<?xml version="1.0" encoding="UTF-8"?>
<svg width="15px" height="15px" viewBox="0 0 15 15" version="1.1" xmlns="http://www.w3.org/2000/svg" xmlns:xlink="http://www.w3.org/1999/xlink">
    <!-- Generator: Sketch 52 (66869) - http://www.bohemiancoding.com/sketch -->
    <title>icon_cellphone</title>
    <desc>Created with Sketch.</desc>
    <g id="icon_cellphone" stroke="none" stroke-width="1" fill="none" fill-rule="evenodd">
        <g id="smartphone" fill="#000000">
            <circle id="Oval" cx="7.50005" cy="11.30425" r="1"></circle>
            <path d="M9.13455,3.4124 L5.86545,3.4124 C5.6822,3.4124 5.5331,3.55455 5.5331,3.72895 L5.5331,9.90855 C5.5331,10.0831 5.6821,10.2251 5.86545,10.2251 L9.13455,10.2251 C9.3178,10.2251 9.4669,10.08295 9.4669,9.90855 L9.4669,3.72895 C9.4668,3.5544 9.3178,3.4124 9.13455,3.4124 Z" id="Path"></path>
            <path d="M7.4998,0 C3.35785,0 5e-05,3.35805 5e-05,7.49985 C5e-05,11.64165 3.35785,15 7.4998,15 C11.64175,15 14.99995,11.64185 14.99995,7.49985 C14.99995,3.35785 11.64175,0 7.4998,0 Z M10.4177,11.20105 C10.4177,11.77395 9.9532,12.2385 9.38025,12.2385 L5.61955,12.2385 C5.04665,12.2385 4.5821,11.774 4.5821,11.20105 L4.5821,3.76615 C4.5821,3.19325 5.0466,2.7287 5.61955,2.7287 L9.38025,2.7287 C9.95315,2.7287 10.4177,3.1932 10.4177,3.76615 L10.4177,11.20105 Z" id="Shape" fill-rule="nonzero"></path>
        </g>
    </g>
</svg>