<?xml version="1.0" encoding="UTF-8"?>
<svg width="40px" height="40px" viewBox="0 0 40 40" version="1.1" xmlns="http://www.w3.org/2000/svg" xmlns:xlink="http://www.w3.org/1999/xlink">
    <!-- Generator: Sketch 52.2 (67145) - http://www.bohemiancoding.com/sketch -->
    <title>Group 14</title>
    <desc>Created with Sketch.</desc>
    <g id="Archived" stroke="none" stroke-width="1" fill="none" fill-rule="evenodd">
        <g id="Icons--Intranet" transform="translate(-67.000000, -207.500000)">
            <g id="Employee-Quicklinks-Cta" transform="translate(67.000000, 49.500000)">
                <g id="Group-33" transform="translate(0.000000, 158.000000)">
                    <g id="Group-27">
                        <g id="Group-26-Copy-2">
                            <g id="Shuttle-Copy">
                                <g id="Group-12">
                                    <g id="Group-25">
                                        <g id="Group-14">
                                            <circle id="Oval-Copy-8" fill="#941A1D" cx="20" cy="20" r="20"></circle>
                                            <path d="M26.0705879,12.7358156 C26.041109,12.3439716 26.3653773,11.9822695 26.7486034,11.9521277 L30.6693019,11.7411348 C30.8756545,11.7411348 31.0820071,11.8014184 31.2294017,11.9521277 C31.3767964,12.1028369 31.4357543,12.3138298 31.4357543,12.5248227 L31.2294017,16.5336879 C31.1999228,16.9255319 30.9051334,17.2269504 30.5219073,17.2269504 C30.5219073,17.2269504 30.4924283,17.2269504 30.4924283,17.2269504 C30.1092022,17.1968085 29.7849339,16.8652482 29.8144128,16.4432624 L29.9323285,13.248227 L26.8075613,13.429078 C26.3948562,13.4592199 26.0705879,13.1276596 26.0705879,12.7358156 Z M32.2906434,27.0531915 L10.4172728,27.0531915 L13.6009979,23.7978723 L14.8391132,25.0638298 C15.1044236,25.3351064 15.5760866,25.3351064 15.870876,25.0638298 L19.3788694,21.4769504 L20.6169847,22.7429078 C20.7643794,22.893617 20.941253,22.9539007 21.1181266,22.9539007 C21.2950002,22.9539007 21.5013528,22.8634752 21.6192685,22.7429078 L29.2248341,14.9663121 C29.5196234,14.6648936 29.5196234,14.212766 29.2248341,13.9113475 C28.9300447,13.6099291 28.4878607,13.6099291 28.1930713,13.9113475 L21.1181266,21.1453901 L19.8800113,19.8794326 C19.7326166,19.7287234 19.555743,19.6684397 19.3788694,19.6684397 C19.2019958,19.6684397 18.9956432,19.7588652 18.8777275,19.8794326 L15.3697341,23.4964539 L14.1316187,22.2304965 C13.9842241,22.0797872 13.8073504,22.0195035 13.6304768,22.0195035 C13.4536032,22.0195035 13.2472506,22.1099291 13.1293349,22.2304965 L9.41498894,25.998227 L9.41498894,12.2234043 C9.41498894,11.8315603 9.09072064,11.5 8.70749447,11.5 C8.3242683,11.5 8,11.8315603 8,12.2234043 L8,27.7765957 C8,28.1684397 8.3242683,28.5 8.70749447,28.5 L32.2906434,28.5 C32.6738696,28.5 32.9981379,28.1684397 32.9981379,27.7765957 C33.0276168,27.3847518 32.7033485,27.0531915 32.2906434,27.0531915 Z" id="Shape" fill="#FFFFFF" fill-rule="nonzero"></path>
                                        </g>
                                    </g>
                                </g>
                            </g>
                        </g>
                    </g>
                </g>
            </g>
        </g>
    </g>
</svg>