<?xml version="1.0" encoding="UTF-8"?>
<svg width="15px" height="15px" viewBox="0 0 15 15" version="1.1" xmlns="http://www.w3.org/2000/svg" xmlns:xlink="http://www.w3.org/1999/xlink">
    <!-- Generator: Sketch 52 (66869) - http://www.bohemiancoding.com/sketch -->
    <title>closed-envelope-circle</title>
    <desc>Created with Sketch.</desc>
    <g id="Symbols" stroke="none" stroke-width="1" fill="none" fill-rule="evenodd">
        <g id="icon_email" fill="#010002" fill-rule="nonzero">
            <g id="closed-envelope-circle">
                <path d="M7.5,15 C6.81,15 6.145,14.91 5.505,14.73 C4.865,14.5499265 4.2675,14.2975 3.7125,13.9725 C3.1575,13.6475 2.6525,13.2575 2.1975,12.8025 C1.7425,12.347549 1.3525,11.8425 1.0275,11.2875 C0.7025,10.732451 0.45,10.135 0.27,9.49497549 C0.09,8.855 0,8.19 0,7.5 C0,6.81 0.09,6.145 0.27,5.505 C0.45,4.865 0.7025,4.2675 1.0275,3.7125 C1.3525,3.1575 1.7425,2.6525 2.1975,2.1975 C2.6525,1.7425 3.1575,1.3525 3.7125,1.0275 C4.2675,0.7025 4.865,0.45 5.505,0.27 C6.145,0.09 6.81,0 7.5,0 C8.53,0 9.5025,0.1975 10.4175,0.5925 C11.3325,0.9875 12.1275,1.5225 12.8025,2.1975 C13.4775,2.8725 14.0125,3.6675 14.4075,4.5825 C14.8025,5.4975 15,6.47 15,7.5 C15,8.19 14.91,8.855 14.73,9.495 C14.5499265,10.1349265 14.2975,10.7324265 13.9725,11.2875 C13.6475,11.8425 13.2575,12.3475 12.8025,12.8025 C12.347549,13.2575 11.8425,13.6475735 11.2875,13.9725 C10.732451,14.2975 10.135,14.55 9.49495098,14.73 C8.855,14.91 8.19,15 7.5,15 Z M11.115,4.41 L4.005,4.41 C3.935,4.41 3.875,4.4325 3.825,4.4775 C3.775,4.5225 3.75,4.585 3.75,4.665 L3.75,5.46 C3.75,5.5 3.765,5.52 3.795,5.52 L7.53,7.65 L7.56007353,7.665 C7.58,7.665 7.59507353,7.66 7.60507353,7.65 L11.2200735,5.52 C11.24,5.51 11.2550735,5.505 11.2650735,5.505 C11.275,5.505 11.2900735,5.5 11.3100735,5.49 C11.3500735,5.49 11.3700735,5.47 11.3700735,5.43 L11.3700735,4.665 C11.3700735,4.585 11.345049,4.5225 11.295,4.4775 C11.244951,4.4325 11.185,4.41 11.115,4.41 Z M6.015,7.605 C6.025,7.595 6.03,7.57997549 6.03,7.56 C6.03,7.52992647 6.02,7.515 6,7.515 L3.855,6.28497549 C3.825,6.27497549 3.8,6.27497549 3.78,6.28497549 C3.76,6.28497549 3.75,6.29997549 3.75,6.32997549 L3.75,9.55497549 C3.75,9.58504902 3.765,9.60497549 3.795,9.61497549 L3.825,9.61497549 C3.845,9.61497549 3.855,9.60997549 3.855,9.59997549 L6.015,7.605 Z M8.625,7.845 C8.615,7.81492647 8.58992647,7.81 8.54992647,7.83 L7.72492647,8.31 C7.62492647,8.37 7.52,8.37 7.40992647,8.31 L6.68992647,7.90507353 C6.65992647,7.88507353 6.63492647,7.88507353 6.61492647,7.90507353 L3.86992647,10.4550735 C3.85992647,10.465 3.85492647,10.4850735 3.85492647,10.515 C3.85492647,10.525 3.86492647,10.5400245 3.88492647,10.56 C3.94492647,10.58 3.98492647,10.5900735 4.00492647,10.5900735 L11.039951,10.5900735 C11.059951,10.5900735 11.0800245,10.5800735 11.099951,10.56 C11.099951,10.52 11.094951,10.4950735 11.084951,10.485 L8.625,7.845 Z M11.325,6.225 L11.2650735,6.225 L9.22507353,7.44 C9.20514706,7.44 9.19507353,7.455 9.19507353,7.485 C9.18507353,7.495 9.19007353,7.51 9.21,7.52992647 L11.25,9.735 C11.27,9.755 11.285,9.76507353 11.295,9.76507353 L11.325,9.76507353 C11.3550735,9.735 11.3700735,9.71507353 11.3700735,9.70507353 L11.3700735,6.28502451 C11.37,6.265 11.355,6.245 11.325,6.225 Z" id="Shape"></path>
            </g>
        </g>
    </g>
</svg>