<?xml version="1.0" encoding="UTF-8"?>
<svg width="40px" height="40px" viewBox="0 0 40 40" version="1.1" xmlns="http://www.w3.org/2000/svg" xmlns:xlink="http://www.w3.org/1999/xlink">
    <!-- Generator: Sketch 52.2 (67145) - http://www.bohemiancoding.com/sketch -->
    <title>Group 10</title>
    <desc>Created with Sketch.</desc>
    <g id="Archived" stroke="none" stroke-width="1" fill="none" fill-rule="evenodd">
        <g id="Icons--Intranet" transform="translate(-67.000000, -49.500000)">
            <g id="Employee-Quicklinks-Cta" transform="translate(67.000000, 49.500000)">
                <g id="Group-30">
                    <g id="Shuttle">
                        <g id="Group-12">
                            <g id="Group-25">
                                <g id="Group-10">
                                    <circle id="Oval-Copy-8" fill="#941A1D" cx="20" cy="20" r="20"></circle>
                                    <g id="noun_Van_1481626_000000" transform="translate(6.000000, 12.500000)" fill="#FFFFFF">
                                        <g id="Group" transform="translate(0.000000, 0.500000)">
                                            <path d="M5.08915789,8.56015789 C3.95576316,8.56015789 3.03755263,9.47836842 3.03755263,10.6114211 C3.03755263,10.6387895 3.03823684,10.6654737 3.03892105,10.6928421 C3.08168421,11.7879211 3.98313158,12.6633684 5.08915789,12.6633684 C6.19518421,12.6633684 7.09663158,11.7879211 7.13939474,10.6928421 C7.14007895,10.6654737 7.14110526,10.6387895 7.14110526,10.6114211 C7.14144737,9.47836842 6.22255263,8.56015789 5.08915789,8.56015789 Z" id="Path"></path>
                                            <path d="M21.2888684,8.56015789 C20.1554737,8.56015789 19.2369211,9.47836842 19.2369211,10.6114211 C19.2369211,10.6387895 19.2376053,10.6654737 19.2389737,10.6928421 C19.2813947,11.7879211 20.1828421,12.6633684 21.2888684,12.6633684 C22.3945526,12.6633684 23.2963421,11.7879211 23.3387632,10.6928421 C23.3401316,10.6654737 23.3408158,10.6387895 23.3408158,10.6114211 C23.3411579,9.47836842 22.4222632,8.56015789 21.2888684,8.56015789 Z" id="Path"></path>
                                            <path d="M25.7317895,7.89407895 C25.7317895,7.89407895 25.8320263,0.486815789 24.5857368,0.336973684 L9.28576316,0.336973684 C9.28576316,0.336973684 7.67547368,0.274710526 6.68439474,1.35884211 L4.14494737,4.20823684 C4.14494737,4.20823684 3.71184211,4.25578947 3.41010526,4.52263158 L0.629815789,6.79626316 C0.629815789,6.79626316 0.257947368,7.13460526 0.257947368,7.61492105 L0.257947368,8.57521053 C0.257947368,8.57521053 -0.376657895,10.2162895 1.01673684,10.6812105 L2.72213158,10.6812105 C2.72110526,10.6504211 2.72007895,10.6189474 2.72007895,10.5885 C2.72007895,9.28815789 3.77410526,8.23447368 5.07410526,8.23447368 C6.37410526,8.23447368 7.42778947,9.28815789 7.42778947,10.5885 C7.42778947,10.6192895 7.42710526,10.6507632 7.42573684,10.6812105 L18.9512632,10.6812105 C18.9498947,10.6504211 18.9492105,10.6189474 18.9492105,10.5885 C18.9492105,9.28815789 20.0028947,8.23447368 21.3032368,8.23447368 C22.6028947,8.23447368 23.6569211,9.28815789 23.6569211,10.5885 C23.6569211,10.6192895 23.6558947,10.6507632 23.6548684,10.6812105 L24.2761316,10.6812105 C24.2761316,10.6812105 25.8867632,10.7588684 25.8867632,9.92207895 L25.8867632,8.51294737 C25.8867632,8.51363158 25.8867632,8.11063158 25.7317895,7.89407895 Z M9.49547368,2.08410526 L9.49547368,3.83773684 C9.49547368,4.59276316 8.996,4.55684211 8.996,4.55684211 L5.21334211,4.55684211 C4.53973684,4.55684211 4.98755263,4.06694737 4.98755263,4.06694737 L7.38023684,1.46523684 L9.03089474,1.46523684 C9.56492105,1.46489474 9.49547368,2.08410526 9.49547368,2.08410526 Z" id="Shape" fill-rule="nonzero"></path>
                                        </g>
                                    </g>
                                </g>
                            </g>
                        </g>
                    </g>
                </g>
            </g>
        </g>
    </g>
</svg>