<?xml version="1.0" encoding="UTF-8"?>
<svg width="40px" height="40px" viewBox="0 0 40 40" version="1.1" xmlns="http://www.w3.org/2000/svg" xmlns:xlink="http://www.w3.org/1999/xlink">
    <!-- Generator: Sketch 52.2 (67145) - http://www.bohemiancoding.com/sketch -->
    <title>Group 30 Copy</title>
    <desc>Created with Sketch.</desc>
    <g id="Archived" stroke="none" stroke-width="1" fill="none" fill-rule="evenodd">
        <g id="Icons--Intranet" transform="translate(-63.000000, -50.500000)">
            <g id="Employee-Quicklinks-Cta" transform="translate(63.000000, 50.500000)">
                <g id="Group-30-Copy">
                    <g id="Shuttle">
                        <g id="Group-12">
                            <g id="Group-25">
                                <g id="Group-10">
                                    <g id="Group-20">
                                        <g id="Group-21">
                                            <circle id="Oval-Copy-8" fill="#941A1D" cx="20" cy="20" r="20"></circle>
                                            <path d="M30.578875,15.6254565 L29.1407008,14.1872842 C27.945567,15.3824184 26.0078434,15.382436 24.8127076,14.1872842 C23.6175718,12.992168 23.6175718,11.0544298 24.8127076,9.85929605 L23.3745158,8.42112378 C22.8130168,7.85962541 21.8942046,7.85962541 21.3327231,8.42112378 L8.42112433,21.3326888 C7.85962522,21.8941871 7.85962522,22.8130323 8.42112433,23.3745315 L9.85928088,24.8127039 C11.0544337,23.6175697 12.9921568,23.6175697 14.1872746,24.8127039 C15.3824274,26.0078362 15.3824099,27.9455573 14.1872746,29.140674 L15.6254659,30.5788639 C16.1869834,31.1403787 17.1057947,31.1403787 17.6672936,30.5788639 L30.578875,17.6673168 C31.140375,17.105801 31.140375,16.1869723 30.578875,15.6254565 Z M14.6109459,19.7981406 C14.2639081,20.3425311 13.4874207,20.3424609 13.1404532,19.798088 C12.9655822,19.5237322 12.9655119,19.1612555 13.1402425,18.8867944 C13.4871047,18.3420002 14.2642246,18.3419124 14.6111566,18.8867593 C14.7859403,19.161238 14.7858525,19.5237497 14.6109459,19.7981406 Z M16.5824637,21.7696374 C16.2354079,22.3140288 15.458903,22.3139586 15.1119535,21.7695847 C14.9370995,21.4952114 14.9370117,21.1327533 15.1117603,20.8583097 C15.4586045,20.3134794 16.2357415,20.3134267 16.5826569,20.858257 C16.7574396,21.1327182 16.7573694,21.4952465 16.5824637,21.7696374 Z M18.5539279,23.7410825 C18.2069082,24.2854905 17.4304384,24.2854554 17.0834703,23.7410825 C16.9085988,23.4667257 16.908511,23.10425 17.0832245,22.8298065 C17.4300862,22.2849771 18.2071891,22.2849069 18.5541386,22.8297363 C18.7289224,23.1041798 18.7288346,23.4667082 18.5539279,23.7410825 Z M20.5254282,25.7125978 C20.1784075,26.2570058 19.4019026,26.2569355 19.0549531,25.7125626 C18.8800815,25.4381883 18.8800113,25.0757302 19.0547248,24.8012857 C19.401569,24.2564738 20.178706,24.2564036 20.5256565,24.8012154 C20.7004041,25.0756951 20.7003339,25.4382235 20.5254282,25.7125978 Z" id="Shape" fill="#FFFFFF" fill-rule="nonzero"></path>
                                            <g id="noun_Ticket_979391_000000" transform="translate(8.000000, 7.500000)"></g>
                                        </g>
                                    </g>
                                </g>
                            </g>
                        </g>
                    </g>
                </g>
            </g>
        </g>
    </g>
</svg>