<?xml version="1.0" encoding="UTF-8"?>
<svg width="42px" height="42px" viewBox="0 0 42 42" version="1.1" xmlns="http://www.w3.org/2000/svg" xmlns:xlink="http://www.w3.org/1999/xlink">
    <!-- Generator: Sketch 52.2 (67145) - http://www.bohemiancoding.com/sketch -->
    <title>Group 35</title>
    <desc>Created with Sketch.</desc>
    <g id="Archived" stroke="none" stroke-width="1" fill="none" fill-rule="evenodd">
        <g id="Icons--Intranet" transform="translate(-9.000000, -119.500000)">
            <g id="Human-Resources-CTA" transform="translate(10.000000, 68.500000)">
                <g id="Group-35" transform="translate(0.000000, 52.000000)">
                    <g id="Group-9">
                        <g id="Group-4">
                            <circle id="Oval-Copy-5" stroke="#941A1D" fill="#941A1D" cx="20" cy="20" r="20"></circle>
                            <g id="noun_benefit_1337911_000000" transform="translate(6.000000, 9.500000)" fill="#FFFFFF">
                                <path d="M1.63807938,8.50044586 C1.90605192,8.50551085 2.19294942,8.57004488 2.4869211,8.70936212 C2.4869211,8.70936212 2.4869211,8.70936212 2.4869211,8.70936212 L8.4681444,11.5421529 C8.57836867,10.8890661 9.19412506,10.3877505 9.91339432,10.4080998 C9.91358579,10.4080997 9.91377725,10.4080997 9.91396872,10.4080998 L13.171782,10.5062416 C14.0197772,10.5059437 14.6619863,10.3046547 15.4189543,10.0889156 C16.1765269,9.8730275 17.0414518,9.64817139 18.2576977,9.64817139 C19.3418014,9.64817139 20.9577085,10.032277 22.1182678,10.4597628 L22.1182678,9.3383127 C22.1182845,9.17377121 22.253626,9.0403881 22.4205834,9.04037165 L25.6976844,9.04037165 C25.8646418,9.0403881 25.9999833,9.17377121 26,9.3383127 L26,11.7724911 L26,18.2020589 C25.9999833,18.3666004 25.8646418,18.4999835 25.6976844,18.5 L22.4205834,18.5 C22.253626,18.4999835 22.1182845,18.3666004 22.1182678,18.2020589 L22.1182678,17.1915621 C17.9116068,16.3890877 15.4679899,17.6300121 11.8818618,17.6300121 C11.8817006,17.6300123 11.8815394,17.6300123 11.8813781,17.6300121 C11.2681007,17.6300121 10.486494,17.2982548 9.52824426,16.8082311 C8.56996429,16.3182075 7.46276367,15.6543054 6.34126351,14.9407068 C4.09847483,13.5136586 1.79721831,11.8855299 0.587532547,11.0779011 C0.587532547,11.0779011 0.587230231,11.0776032 0.587139536,11.0776032 C0.244102034,10.8492611 0.0499851919,10.5053478 0.00905166068,10.1566972 C-0.0318818705,9.80789759 0.0678520434,9.45659529 0.271038353,9.16565586 C0.550408192,8.7656402 1.04835236,8.48915389 1.63798869,8.50032668 L1.63807938,8.50044586 Z M1.56361905,9.08041492 C1.19724278,9.08339434 0.934016598,9.2675517 0.769193986,9.5035806 C0.643612089,9.68338802 0.587381389,9.8978162 0.609722511,10.0882899 C0.632093865,10.2787636 0.720521176,10.4475174 0.925944772,10.5841532 C0.926065777,10.5842524 0.926186703,10.5843517 0.926307551,10.5844511 C2.15337631,11.4036699 4.44402155,13.0243798 6.66927593,14.440285 C7.78188801,15.1482228 8.87778203,15.8043783 9.80673738,16.2794156 C10.7352695,16.7542442 11.524555,17.0334448 11.8819525,17.0342194 C11.8819525,17.0342194 11.8822548,17.0342194 11.882406,17.0342194 C15.292284,17.0342194 17.82847,15.7967213 22.1183585,16.5852818 L22.1183585,15.71732 C22.1168166,15.6098717 22.174098,15.5099288 22.2682686,15.4557612 C22.3624392,15.4015936 22.478909,15.4015936 22.5730796,15.4557612 C22.6672501,15.5099288 22.7245316,15.6098717 22.7229897,15.71732 L22.7229897,17.9042073 L23.6299365,17.9042073 L23.6299365,9.63634313 L22.7229897,9.63634313 L22.7229897,11.820251 C22.7245316,11.9276993 22.6672501,12.0276422 22.5730796,12.0818098 C22.478909,12.1359774 22.3624392,12.1359774 22.2682686,12.0818098 C22.174098,12.0276422 22.1168166,11.9276993 22.1183585,11.820251 L22.1183585,11.0980419 C21.0265155,10.6697517 19.249051,10.2441429 18.2577884,10.2441429 C17.1159424,10.2441429 16.3348496,10.4483219 15.5869208,10.6614689 C14.8389618,10.8746159 14.1165485,11.1022131 13.169817,11.1022131 C13.1667637,11.1022587 13.16371,11.1022587 13.1606568,11.1022131 L9.89619256,11.0038926 C9.89589025,11.0038926 9.89582979,11.0038926 9.8956484,11.0038926 C9.42678714,10.9910811 9.05530174,11.3539733 9.05530174,11.7518438 C9.05530174,12.1537364 9.42161755,12.4811737 9.91641748,12.4998546 C9.91686087,12.4998536 9.91730427,12.4998536 9.91774767,12.4998546 L16.1273099,12.7620427 C16.2364575,12.7649099 16.3355571,12.8255515 16.3865708,12.9206909 C16.4375844,13.0158304 16.4325859,13.1306855 16.3734937,13.2211708 C16.3144016,13.3116561 16.2103973,13.3637124 16.1014015,13.3573587 L9.8932601,13.09526 L9.89183922,13.09526 C9.30214243,13.0726164 8.76900888,12.7370454 8.55288346,12.2415695 C8.54244442,12.2378562 8.53222076,12.2335792 8.52225889,12.228758 L2.2250251,9.24636809 C1.97582636,9.12823446 1.75561968,9.07922316 1.56370975,9.08035534 L1.56361905,9.08041492 Z M25.3954595,9.63634313 L24.2345676,9.63634313 L24.2345676,17.9042073 L25.3954595,17.9042073 L25.3954595,11.7725805 L25.3954595,9.63634313 Z" id="Shape"></path>
                                <path d="M10.5049138,3.50003764 C10.682135,3.50274925 10.8236635,3.64850403 10.8211616,3.82572922 L10.8211616,5.67882473 L12.6742642,5.67882473 C12.7900866,5.6771867 12.8978189,5.73803928 12.9562081,5.83808083 C13.0145973,5.93812238 13.0145973,6.06185344 12.9562081,6.16189499 C12.8978189,6.26193654 12.7900866,6.32278912 12.6742642,6.32115109 L10.8211616,6.32115109 L10.8211616,8.17426265 C10.8227996,8.29008563 10.7619474,8.39781836 10.6619063,8.45620787 C10.5618652,8.51459738 10.4381348,8.51459738 10.3380937,8.45620787 C10.2380526,8.39781836 10.1772004,8.29008563 10.1788384,8.17426265 L10.1788384,6.32115109 L8.32573577,6.32115109 C8.20991335,6.32278912 8.10218115,6.26193654 8.04379192,6.16189499 C7.98540269,6.06185344 7.98540269,5.93812238 8.04379192,5.83808083 C8.10218115,5.73803928 8.20991335,5.6771867 8.32573577,5.67882473 L10.1788384,5.67882473 L10.1788384,3.82572922 C10.1776128,3.73891343 10.211586,3.65529956 10.2730162,3.59394172 C10.3344463,3.53258388 10.4180999,3.49870939 10.5049138,3.50003764 Z" id="Path"></path>
                                <path d="M8.50314073,0.500035737 C8.67140239,0.502610251 8.80577577,0.640995946 8.80340037,0.809260971 L8.80340037,1.69659499 L9.69073211,1.69659499 C9.80069902,1.69503978 9.90298472,1.75281577 9.95842202,1.84779941 C10.0138593,1.94278304 10.0138593,2.0602585 9.95842202,2.15524214 C9.90298472,2.25022577 9.80069902,2.30800176 9.69073211,2.30644655 L8.80340037,2.30644655 L8.80340037,3.19073132 C8.80495558,3.30069851 8.74717974,3.40298447 8.65219634,3.45842192 C8.55721295,3.51385936 8.4397378,3.51385936 8.34475441,3.45842192 C8.24977101,3.40298447 8.19199517,3.30069851 8.19355038,3.19073132 L8.19355038,2.30644655 L7.30926789,2.30644655 C7.19930098,2.30800176 7.09701528,2.25022577 7.04157798,2.15524214 C6.98614067,2.0602585 6.98614067,1.94278304 7.04157798,1.84779941 C7.09701528,1.75281577 7.19930098,1.69503978 7.30926789,1.69659499 L8.19355038,1.69659499 L8.19355038,0.809260971 C8.19238676,0.726834416 8.22464244,0.64744791 8.28296694,0.589192204 C8.34129143,0.530936499 8.42071582,0.49877464 8.50314073,0.500035737 Z" id="Path"></path>
                                <path d="M13.5031407,0.500035737 C13.6714024,0.502610251 13.8057758,0.640995946 13.8034004,0.809260971 L13.8034004,1.69659499 L14.6907321,1.69659499 C14.800699,1.69503978 14.9029847,1.75281577 14.958422,1.84779941 C15.0138593,1.94278304 15.0138593,2.0602585 14.958422,2.15524214 C14.9029847,2.25022577 14.800699,2.30800176 14.6907321,2.30644655 L13.8034004,2.30644655 L13.8034004,3.19073132 C13.8049556,3.30069851 13.7471797,3.40298447 13.6521963,3.45842192 C13.557213,3.51385936 13.4397378,3.51385936 13.3447544,3.45842192 C13.249771,3.40298447 13.1919952,3.30069851 13.1935504,3.19073132 L13.1935504,2.30644655 L12.3092679,2.30644655 C12.199301,2.30800176 12.0970153,2.25022577 12.041578,2.15524214 C11.9861407,2.0602585 11.9861407,1.94278304 12.041578,1.84779941 C12.0970153,1.75281577 12.199301,1.69503978 12.3092679,1.69659499 L13.1935504,1.69659499 L13.1935504,0.809260971 C13.1923868,0.726834416 13.2246424,0.64744791 13.2829669,0.589192204 C13.3412914,0.530936499 13.4207158,0.49877464 13.5031407,0.500035737 Z" id="Path"></path>
                            </g>
                        </g>
                    </g>
                </g>
            </g>
        </g>
    </g>
</svg>