<?xml version="1.0" encoding="UTF-8"?>
<svg width="40px" height="40px" viewBox="0 0 40 40" version="1.1" xmlns="http://www.w3.org/2000/svg" xmlns:xlink="http://www.w3.org/1999/xlink">
    <!-- Generator: Sketch 52.2 (67145) - http://www.bohemiancoding.com/sketch -->
    <title>icon_resetpw</title>
    <desc>Created with Sketch.</desc>
    <g id="Page-1" stroke="none" stroke-width="1" fill="none" fill-rule="evenodd">
        <g id="icon_resetpw">
            <circle id="Oval-Copy" stroke="#941A1D" fill="#941A1D" cx="20" cy="20" r="19.5"></circle>
            <g id="noun_password_1471439_000000" transform="translate(10.000000, 6.500000)" fill="#FFFFFF" fill-rule="nonzero">
                <path d="M17.7461859,9.29393758 L15.9379334,9.29393758 L15.9379334,5.6980768 C15.9379334,2.55639848 13.2739251,0 10,0 C6.7260749,0 4.06206657,2.55639848 4.06206657,5.6980768 L4.06206657,9.29427031 L2.25381415,9.29427031 C1.0110957,9.29427031 0,10.2645239 0,11.457044 L0,22.8372263 C0,24.0297465 1.0110957,25 2.25381415,25 L17.7461859,25 C18.9889043,25 20,24.0297465 20,22.8372263 L20,11.4567113 C20,10.2641911 18.9889043,9.29393758 17.7461859,9.29393758 Z M5.10228849,5.6980768 C5.10228849,3.1067412 7.29958391,0.998203234 10,0.998203234 C12.7004161,0.998203234 14.8977115,3.1067412 14.8977115,5.6980768 L14.8977115,9.29427031 L5.10228849,9.29427031 L5.10228849,5.6980768 Z M18.9597781,22.8368936 C18.9597781,23.479071 18.4153953,24.001464 17.7461859,24.001464 L2.25381415,24.001464 C1.58460472,24.001464 1.04022191,23.479071 1.04022191,22.8368936 L1.04022191,11.4567113 C1.04022191,10.8145338 1.58460472,10.2921408 2.25381415,10.2921408 L17.7461859,10.2921408 C18.4153953,10.2921408 18.9597781,10.8145338 18.9597781,11.4567113 L18.9597781,22.8368936 Z M10,14.2530112 C9.03571429,14.2530112 8.25104022,15.0059892 8.25104022,15.9313236 C8.25104022,16.6819724 8.7704577,17.3111732 9.47988904,17.5251214 L9.47988904,19.8758901 C9.47988904,20.1513942 9.71289875,20.3749917 10,20.3749917 C10.2871012,20.3749917 10.520111,20.1513942 10.520111,19.8758901 L10.520111,17.5251214 C11.2295423,17.3111732 11.7489598,16.6819724 11.7489598,15.9313236 C11.7489598,15.0056565 10.9642857,14.2530112 10,14.2530112 Z M10,16.6111 C9.6092233,16.6111 9.29126214,16.3059826 9.29126214,15.9309909 C9.29126214,15.5559992 9.6092233,15.2508817 10,15.2508817 C10.3907767,15.2508817 10.7087379,15.5559992 10.7087379,15.9309909 C10.7087379,16.3059826 10.3907767,16.6111 10,16.6111 Z" id="Shape"></path>
            </g>
        </g>
    </g>
</svg>