<?xml version="1.0" encoding="UTF-8"?>
<svg width="40px" height="40px" viewBox="0 0 40 40" version="1.1" xmlns="http://www.w3.org/2000/svg" xmlns:xlink="http://www.w3.org/1999/xlink">
    <!-- Generator: Sketch 52.2 (67145) - http://www.bohemiancoding.com/sketch -->
    <title>Manual</title>
    <desc>Created with Sketch.</desc>
    <g id="Manual" stroke="none" stroke-width="1" fill="none" fill-rule="evenodd">
        <g id="Group-32">
            <g id="Group-29">
                <g id="Group-37">
                    <g id="Group-26-Copy">
                        <g id="Shuttle-Copy">
                            <g id="Group-12">
                                <g id="Group-25">
                                    <g id="Manual">
                                        <circle id="Oval-Copy-8" fill="#941A1D" cx="20" cy="20" r="20"></circle>
                                        <g id="noun_manual_241665_000000" transform="translate(11.000000, 9.500000)" fill="#FFFFFF">
                                            <path d="M12.3636364,3.5 L6.63636364,3.5 C6.28636364,3.5 6,3.82727273 6,4.22727273 L6,6.77272727 C6,7.17272727 6.28636364,7.5 6.63636364,7.5 L12.3636364,7.5 C12.7136364,7.5 13,7.17272727 13,6.77272727 L13,4.22727273 C13,3.82727273 12.7136364,3.5 12.3636364,3.5 Z M12.3636364,6.40909091 C12.3636364,6.62727273 12.2363636,6.77272727 12.0454545,6.77272727 L6.95454545,6.77272727 C6.76363636,6.77272727 6.63636364,6.62727273 6.63636364,6.40909091 L6.63636364,4.59090909 C6.63636364,4.37272727 6.76363636,4.22727273 6.95454545,4.22727273 L12.0454545,4.22727273 C12.2363636,4.22727273 12.3636364,4.37272727 12.3636364,4.59090909 L12.3636364,6.40909091 Z" id="Shape" fill-rule="nonzero"></path>
                                            <path d="M15.64,0.5 L1.36,0.5 C0.612,0.5 0,1.13157895 0,1.90350877 L0,19.0964912 C0,19.8684211 0.612,20.5 1.36,20.5 L2.38,20.5 C2.584,20.5 2.72,20.3596491 2.72,20.1491228 C2.72,19.9385965 2.584,19.7982456 2.38,19.7982456 L1.36,19.7982456 C0.986,19.7982456 0.68,19.4824561 0.68,19.0964912 L0.68,18.3947368 L16.32,18.3947368 L16.32,19.0964912 C16.32,19.4824561 16.014,19.7982456 15.64,19.7982456 L6.46,19.7982456 C6.256,19.7982456 6.12,19.9385965 6.12,20.1491228 C6.12,20.3596491 6.256,20.5 6.46,20.5 L15.64,20.5 C16.388,20.5 17,19.8684211 17,19.0964912 L17,1.90350877 C17,1.13157895 16.388,0.5 15.64,0.5 Z M0.68,17.6929825 L0.68,1.90350877 C0.68,1.51754386 0.986,1.20175439 1.36,1.20175439 L15.64,1.20175439 C16.014,1.20175439 16.32,1.51754386 16.32,1.90350877 L16.32,17.6929825 L0.68,17.6929825 Z" id="Shape" fill-rule="nonzero"></path>
                                            <path d="M4.66666667,18.5 C4.46666667,18.5 4.33333333,18.6454545 4.33333333,18.8636364 L4.33333333,21.4090909 C4.33333333,21.6272727 4.2,21.7727273 4,21.7727273 C3.8,21.7727273 3.66666667,21.6272727 3.66666667,21.4090909 L3.66666667,18.8636364 C3.66666667,18.6454545 3.53333333,18.5 3.33333333,18.5 C3.13333333,18.5 3,18.6454545 3,18.8636364 L3,21.7727273 C3,22.1727273 3.3,22.5 3.66666667,22.5 L4.33333333,22.5 C4.7,22.5 5,22.1727273 5,21.7727273 L5,18.8636364 C5,18.6454545 4.86666667,18.5 4.66666667,18.5 Z" id="Path"></path>
                                            <path d="M2.5,1.5 C2.2,1.5 2,1.63953488 2,1.84883721 L2,16.1511628 C2,16.3604651 2.2,16.5 2.5,16.5 C2.8,16.5 3,16.3604651 3,16.1511628 L3,1.84883721 C3,1.63953488 2.8,1.5 2.5,1.5 Z" id="Path"></path>
                                        </g>
                                    </g>
                                </g>
                            </g>
                        </g>
                    </g>
                </g>
            </g>
        </g>
    </g>
</svg>