<?xml version="1.0" encoding="UTF-8"?>
<svg width="42px" height="42px" viewBox="0 0 42 42" version="1.1" xmlns="http://www.w3.org/2000/svg" xmlns:xlink="http://www.w3.org/1999/xlink">
    <!-- Generator: Sketch 52.2 (67145) - http://www.bohemiancoding.com/sketch -->
    <title>Group 4</title>
    <desc>Created with Sketch.</desc>
    <g id="Archived" stroke="none" stroke-width="1" fill="none" fill-rule="evenodd">
        <g id="Artboard" transform="translate(-44.000000, -36.000000)">
            <g id="Group-4" transform="translate(45.000000, 37.000000)">
                <g id="Group-36" fill="#941A1D" stroke="#941A1D">
                    <g id="Group-3">
                        <g id="Group-2">
                            <circle id="Oval" cx="20" cy="20" r="20"></circle>
                        </g>
                    </g>
                </g>
                <g id="noun_Beach-Umbrella_1002010_000000" transform="translate(10.000000, 4.000000)" fill="#FFFFFF">
                    <g id="Group">
                        <path d="M5.22914559,12.0543326 C6.89005509,11.6168414 8.56922559,11.8859363 9.96260559,12.681305 C11.3692471,13.4842186 12.4843426,14.8231671 12.9951646,16.5123041 L12.6520306,16.6222419 L12.9957847,16.512268 C13.0548337,16.7075243 12.9487826,16.9150815 12.7589501,16.9758194 C12.7485151,16.9791542 12.7380624,16.9819423 12.7275742,16.9842748 L12.650401,17.0055589 L12.650525,17.0060145 C12.4955409,17.0487286 12.3370842,16.9806303 12.2546312,16.8489347 C12.083259,16.6180527 11.8251471,16.4478342 11.5219637,16.357959 C11.20544,16.2641119 10.8407087,16.2578069 10.4712137,16.3596355 C10.10294,16.4611359 9.79068767,16.6540598 9.56214167,16.8981697 C9.33680507,17.1388374 9.19400972,17.4271044 9.16259837,17.7214352 L8.80541537,17.6823839 L9.16327157,17.7228019 C9.14585621,17.8860595 9.02772257,18.0127801 8.87950562,18.0448158 L8.73446027,18.0847965 L8.73458429,18.085252 C8.57963534,18.1279661 8.42119664,18.0598678 8.33874359,17.9282268 C8.17571624,17.7086432 7.93296419,17.5438915 7.64685959,17.4510998 C7.34447354,17.3530435 6.99774359,17.33493 6.64578509,17.4151828 L6.64608627,17.416586 C6.63770637,17.4184994 6.62937957,17.4200665 6.62101736,17.4213603 L6.61263746,17.4238204 L6.61272604,17.4241484 C6.60145831,17.4274649 6.59015516,17.4301619 6.57886975,17.4323122 L6.55528903,17.4388724 C6.18701533,17.5403728 5.87478103,17.7332967 5.64621703,17.9774066 C5.42088043,18.2180743 5.27808508,18.5063413 5.24667373,18.8006721 L4.88949073,18.7616208 L5.24734693,18.8020388 C5.22993157,18.9652964 5.11179793,19.092017 4.96358098,19.1240527 L4.81853563,19.1640334 L4.81865964,19.1644889 C4.66372869,19.207203 4.50530709,19.1391411 4.42285449,19.0075183 C4.25148234,18.7765818 3.99331689,18.6063087 3.69009699,18.5164362 C3.37359129,18.4226072 3.00887799,18.4163021 2.63936499,18.5181309 C2.27109129,18.6196313 1.95883899,18.8125552 1.73029299,19.0566467 C1.50495639,19.2973143 1.36216104,19.5855813 1.33074969,19.8799307 L0.985844045,19.8422278 L0.985720029,19.8422461 L1.33142263,19.8812974 C1.31400727,20.0445549 1.19585563,20.1713121 1.04762158,20.2033293 L0.971883429,20.2241943 L0.972007445,20.2246499 C0.779960045,20.2775503 0.582545045,20.1603238 0.531113645,19.9627894 C0.527180573,19.9476463 0.52420421,19.932485 0.52216679,19.9173419 C0.15646214,18.2142822 0.46439309,16.5066679 1.27292429,15.1031647 C2.08496279,13.6935102 3.40133429,12.5897949 5.04677729,12.1042346 L5.04668871,12.1038884 C5.06304108,12.0990594 5.07946428,12.0955241 5.09585211,12.093137 C5.13835407,12.0798709 5.17194441,12.0695204 5.19155676,12.0638166 L5.19136188,12.0631059 C5.20394064,12.0594614 5.21653708,12.0565458 5.22913353,12.0543408 L5.22914559,12.0543326 Z M9.61384659,13.326426 C8.37565359,12.619657 6.88296759,12.3806839 5.40588759,12.7697385 C5.3997045,12.771907 5.39343285,12.7739479 5.38707264,12.7757884 L5.38678917,12.7747315 L5.38615138,12.7748955 L5.38625768,12.77526 C5.33952158,12.7888359 5.30580668,12.7988219 5.28072008,12.806439 C5.26762755,12.8118329 5.25410982,12.8164797 5.2401492,12.820343 C5.22695039,12.8239875 5.21371611,12.8268121 5.20049961,12.8288895 C3.75902811,13.2666722 2.60570061,14.239803 1.89170811,15.4792372 C1.34308161,16.4315936 1.05348411,17.5407937 1.09111761,18.6849441 C1.12965107,18.6369273 1.17023976,18.590095 1.21281246,18.544629 C1.52951346,18.2063971 1.95607296,17.9407439 2.45375046,17.8035855 C2.95020396,17.6667691 3.44819646,17.6776119 3.88698246,17.8076856 C4.17427371,17.8928587 4.43644146,18.029128 4.65749046,18.2088952 C4.76138016,17.9391444 4.92182136,17.6863758 5.12873046,17.4653893 C5.44543146,17.1271393 5.87199096,16.8614903 6.36966846,16.7243272 L6.40116846,16.7164732 C6.40566846,16.7149425 6.41020388,16.7134665 6.41481021,16.712118 L6.41505825,16.7129927 L6.41550116,16.7128834 L6.41534171,16.7123185 L6.42673346,16.7089655 C6.43284567,16.7068699 6.43902872,16.7049383 6.44530037,16.7031707 L6.44558383,16.7042458 C6.45488502,16.7008199 6.46436337,16.6977403 6.47407203,16.6950615 C6.49804249,16.6884467 6.52210143,16.6844559 6.54596583,16.6829617 C7.00719783,16.5874928 7.46136033,16.6157196 7.86064083,16.7452289 C8.12523723,16.8310399 8.36717433,16.9611499 8.57353533,17.1293092 C8.67742503,16.8597041 8.83783068,16.6070443 9.04465383,16.3861504 C9.36135483,16.0479004 9.78791433,15.7822514 10.2855918,15.6450883 C10.7820453,15.5082719 11.2800558,15.5191148 11.7188418,15.6492066 C11.778263,15.666828 11.8365861,15.6866361 11.8937217,15.7085579 C11.3648997,14.6871757 10.5642372,13.8689183 9.61385073,13.3264312 L9.61384659,13.326426 Z" id="Shape" fill-rule="nonzero"></path>
                        <path d="M5.43803559,11.7203349 C5.38678149,11.5230193 5.18970309,11.4058105 4.99786809,11.458529 C4.80603354,11.5112475 4.69208049,11.7139567 4.74333459,11.9112727 L4.90352739,12.5262154 C4.95478149,12.723531 5.15185989,12.8407398 5.34369489,12.7880213 C5.53552944,12.7353028 5.64948249,12.5325936 5.59822839,12.3352776 L5.43803559,11.7203349 Z M6.80981109,16.9861217 C6.75855699,16.7888062 6.56147859,16.6715973 6.36964359,16.7243158 C6.17780904,16.7770343 6.06385599,16.9797435 6.11511009,17.1770595 L7.50746859,22.5219024 C7.55872269,22.7192179 7.75580109,22.8364268 7.94763609,22.7837083 C8.13947064,22.7309898 8.25342369,22.5282806 8.20216959,22.3309646 L6.80981109,16.9861217 Z" id="Shape" fill-rule="nonzero"></path>
                        <path d="M17.1937006,25.1074131 C16.7355151,24.657148 15.9672751,24.2529511 14.9813656,23.9305155 C13.5889531,23.4751298 11.7837241,23.2007889 9.80524059,23.2007889 C7.82673009,23.2007889 6.02153709,23.4751502 4.62911559,23.9305017 C3.64319259,24.2529529 2.87496609,24.6571503 2.41678059,25.1074178 L17.1937006,25.1074178 L17.1937006,25.1074131 Z M15.1979326,23.2275559 C16.7450821,23.7335282 17.8462906,24.4685592 18.2257936,25.3243728 L18.4579864,25.8479846 L17.8995454,25.8479846 L1.71097539,25.8479846 L1.15253439,25.8479846 L1.38472719,25.3243728 C1.76423289,24.4685592 2.86542069,23.7335282 4.41258819,23.2275374 C5.87677119,22.7487163 7.75853169,22.4602128 9.80525319,22.4602128 C11.8519747,22.4602128 13.7337712,22.7487149 15.1979182,23.2275513 L15.1979326,23.2275559 Z" id="Shape" fill-rule="nonzero"></path>
                        <path d="M14.6642056,4.25083886 C15.2157211,4.25083886 15.7150636,4.48080943 16.0765126,4.85259017 C16.4379652,5.22435194 16.6615486,5.73797571 16.6615486,6.3052488 C16.6615486,6.87252189 16.4379661,7.38614983 16.0765126,7.75790743 C15.71506,8.12968725 15.2157211,8.35965874 14.6642056,8.35965874 C14.1126901,8.35965874 13.6133296,8.12968817 13.2518986,7.75790743 C12.890446,7.38614566 12.6668626,6.87252189 12.6668626,6.3052488 C12.6668626,5.73797571 12.8904451,5.22434777 13.2518986,4.85259017 C13.6133336,4.48081035 14.1126901,4.25083886 14.6642056,4.25083886 Z M15.5674456,5.37620194 C15.3363157,5.13846833 15.0169561,4.99141075 14.6642056,4.99141075 C14.3114515,4.99141075 13.9920766,5.13846833 13.7609656,5.37620194 C13.5298357,5.6139175 13.386863,5.94241971 13.386863,6.3052488 C13.386863,6.66808159 13.5298357,6.99658149 13.7609656,7.23429566 C13.9920779,7.47202927 14.3114551,7.61908685 14.6642056,7.61908685 C15.0169597,7.61908685 15.3363166,7.47202927 15.5674456,7.23429566 C15.7985755,6.9965801 15.9415481,6.66807789 15.9415481,6.3052488 C15.9415481,5.94241601 15.7985755,5.61391611 15.5674456,5.37620194 Z" id="Shape" fill-rule="nonzero"></path>
                        <path d="M14.9732206,2.5199892 C14.9732206,2.31549382 14.8120355,2.14970349 14.6132206,2.14970349 C14.4144056,2.14970349 14.2532206,2.31549382 14.2532206,2.5199892 L14.2532206,3.79235571 C14.2532206,3.99685109 14.4144056,4.16264143 14.6132206,4.16264143 C14.8120355,4.16264143 14.9732206,3.99685109 14.9732206,3.79235571 L14.9732206,2.5199892 Z" id="Path"></path>
                        <path d="M16.7708806,3.18460114 C16.8695084,3.00805956 16.8103353,2.78268099 16.6386976,2.68123474 C16.4670599,2.57978895 16.2479419,2.64065272 16.1493136,2.8171944 L15.5308111,3.919086 C15.4321832,4.09562758 15.4913563,4.32100615 15.6629941,4.4224524 C15.8346317,4.52389819 16.0537498,4.46303442 16.1523781,4.28649274 L16.7708806,3.18460114 Z" id="Path"></path>
                        <path d="M18.0043756,4.68685029 C18.1760132,4.5854045 18.2351864,4.36002593 18.1365586,4.18348389 C18.0379307,4.0069423 17.8188127,3.94607844 17.6471746,4.04752423 L16.5758911,4.68369823 C16.4042534,4.78514402 16.3450802,5.01052258 16.4437081,5.18706463 C16.5423359,5.36360621 16.761454,5.42447007 16.9330921,5.32302429 L18.0043756,4.68685029 Z" id="Path"></path>
                        <path d="M18.3443056,6.62307429 C18.5431205,6.62307429 18.7043056,6.45728395 18.7043056,6.25278857 C18.7043056,6.04829319 18.5431205,5.88250286 18.3443056,5.88250286 L17.1073006,5.88250286 C16.9084856,5.88250286 16.7473006,6.04829319 16.7473006,6.25278857 C16.7473006,6.45728395 16.9084856,6.62307429 17.1073006,6.62307429 L18.3443056,6.62307429 Z" id="Path"></path>
                        <path d="M17.6967556,8.47214229 C17.8683932,8.57439021 18.0881314,8.51416388 18.1875391,8.33762211 C18.2869468,8.16108053 18.2283934,7.93506415 18.0567556,7.83281623 L16.9854721,7.19662371 C16.8138344,7.09437579 16.5940963,7.15460212 16.4946886,7.33114389 C16.3952809,7.50768547 16.4538343,7.73370185 16.6254721,7.83594977 L17.6967556,8.47214229 Z" id="Path"></path>
                        <path d="M16.2376306,9.74083371 C16.3362584,9.9173753 16.5553765,9.97823916 16.7270146,9.87679337 C16.8986522,9.77534758 16.9578254,9.54996902 16.8591976,9.37342697 L16.2406951,8.27153537 C16.1420672,8.09499379 15.9229492,8.03412993 15.7513111,8.13557571 C15.5796734,8.2370215 15.5205002,8.46240007 15.6191281,8.63894211 L16.2376306,9.74083371 Z" id="Path"></path>
                        <path d="M14.3551906,10.0905223 C14.3551906,10.2950177 14.5163756,10.460808 14.7151906,10.460808 C14.9140055,10.460808 15.0751906,10.2950177 15.0751906,10.0905223 L15.0751906,8.81815577 C15.0751906,8.61366039 14.9140055,8.44787006 14.7151906,8.44787006 C14.5163756,8.44787006 14.3551906,8.61366039 14.3551906,8.81815577 L14.3551906,10.0905223 Z" id="Path"></path>
                        <path d="M12.5574856,9.42590571 C12.4588577,9.6024473 12.5180308,9.82782586 12.6896686,9.92927211 C12.8613062,10.0307179 13.0804243,9.96985413 13.1790526,9.79331246 L13.7975551,8.69142086 C13.8961829,8.51487927 13.8370098,8.28950071 13.6653721,8.18805446 C13.4937344,8.08660867 13.2746164,8.14747244 13.1759881,8.32401411 L12.5574856,9.42590571 Z" id="Path"></path>
                        <path d="M11.3240356,7.92361029 C11.1523979,8.02505607 11.0932247,8.25043464 11.1918526,8.42697669 C11.2904804,8.60351827 11.5095985,8.66438213 11.6812366,8.56293634 L12.7525201,7.92676234 C12.9241577,7.82531655 12.9833309,7.59993799 12.8847031,7.42339594 C12.7860752,7.24685436 12.5669572,7.1859905 12.3953191,7.28743629 L11.3240356,7.92361029 Z" id="Path"></path>
                        <path d="M10.9840606,5.98738629 C10.7852456,5.98738629 10.6240606,6.15317662 10.6240606,6.357672 C10.6240606,6.56216738 10.7852456,6.72795771 10.9840606,6.72795771 L12.2210836,6.72795771 C12.4198985,6.72795771 12.5810836,6.56216738 12.5810836,6.357672 C12.5810836,6.15317662 12.4198985,5.98738629 12.2210836,5.98738629 L10.9840606,5.98738629 Z" id="Path"></path>
                        <path d="M11.6316556,4.13836457 C11.4600179,4.03611665 11.2402798,4.09634297 11.1408721,4.27288474 C11.0414644,4.44942633 11.1000178,4.67544271 11.2716556,4.77769063 L12.3429391,5.41388314 C12.5145767,5.51613106 12.7343149,5.45590474 12.8337226,5.27936297 C12.9331303,5.10282139 12.8745769,4.87680501 12.7029391,4.77455709 L11.6316556,4.13836457 Z" id="Path"></path>
                        <path d="M13.0907806,2.868192 C12.9913729,2.69165042 12.7716347,2.63142437 12.5999971,2.73367183 C12.4283594,2.83591975 12.3698063,3.06193613 12.4692136,3.23847771 L13.0877161,4.3403508 C13.1871238,4.51689238 13.4068619,4.57711843 13.5784996,4.47487097 C13.7501372,4.37262305 13.8086903,4.14660667 13.7092831,3.97006509 L13.0907806,2.868192 Z" id="Path"></path>
                    </g>
                </g>
            </g>
        </g>
    </g>
</svg>