<?xml version="1.0" encoding="UTF-8"?>
<svg width="40px" height="40px" viewBox="0 0 40 40" version="1.1" xmlns="http://www.w3.org/2000/svg" xmlns:xlink="http://www.w3.org/1999/xlink">
    <!-- Generator: Sketch 52.2 (67145) - http://www.bohemiancoding.com/sketch -->
    <title>Group 16</title>
    <desc>Created with Sketch.</desc>
    <g id="Archived" stroke="none" stroke-width="1" fill="none" fill-rule="evenodd">
        <g id="Icons--Intranet" transform="translate(-122.000000, -70.500000)">
            <g id="Group-16" transform="translate(122.000000, 70.000000)">
                <g id="Group-36" transform="translate(0.000000, 0.500000)" fill="#941A1D">
                    <g id="Group-3">
                        <g id="Group">
                            <g id="Group-15">
                                <circle id="Oval" cx="20" cy="20" r="20"></circle>
                            </g>
                        </g>
                    </g>
                </g>
                <g id="noun_Social-Media_1851278_000000" transform="translate(6.000000, 7.000000)" fill="#FFFFFF">
                    <path d="M7.1848,16.0192941 L7.1848,24.4360941 C7.1848,25.1001882 7.72536471,25.6397647 8.38847059,25.6397647 L19.6108706,25.6397647 C20.2749647,25.6397647 20.8145412,25.0998588 20.8145412,24.4360941 L20.8145412,16.0192941 C20.8145412,15.3555294 20.2746353,14.8159529 19.6108706,14.8159529 L8.38847059,14.8159529 C7.72503529,14.8159529 7.1848,15.3555294 7.1848,16.0192941 Z M19.7281412,16.0192941 L19.7281412,24.4360941 C19.7281412,24.5 19.6754353,24.5527059 19.6112,24.5527059 L8.38847059,24.5527059 C8.32489412,24.5527059 8.27185882,24.5003294 8.27185882,24.4360941 L8.27185882,16.0192941 C8.27185882,15.9553882 8.32456471,15.9026824 8.38847059,15.9026824 L19.6108706,15.9026824 C19.6754353,15.9026824 19.7281412,15.9553882 19.7281412,16.0192941 Z" id="Shape" fill-rule="nonzero"></path>
                    <circle id="Oval" cx="14" cy="18.9345882" r="1.83054118"></circle>
                    <path d="M12.0040941,23.3286118 L15.9955765,23.3286118 C16.2696471,23.3286118 16.4916706,23.1062588 16.4916706,22.8325176 C16.4916706,22.8325176 16.3829647,21.8096941 16.3678118,21.4671059 C16.3552941,21.1936941 16.1454588,20.9710118 15.8710588,20.9710118 C14.9355294,20.9710118 13.0641412,20.9710118 12.1279529,20.9710118 C11.8542118,20.9710118 11.6443765,21.1936941 11.6318588,21.4671059 C11.6160471,21.8093647 11.508,22.8325176 11.508,22.8325176 C11.5083294,23.1065882 11.7306824,23.3286118 12.0040941,23.3286118 Z" id="Path"></path>
                    <path d="M9.96602353,14.4285647 L6.74371765,11.2062588 C6.50225882,11.4790118 6.22357647,11.7178353 5.91392941,11.9144941 L8.42832941,14.4285647 L9.96602353,14.4285647 Z" id="Path"></path>
                    <path d="M18.0346353,14.4285647 L19.5716706,14.4285647 L22.0857412,11.9144941 C21.7767529,11.7175059 21.4980706,11.4790118 21.2562824,11.2065882 L18.0346353,14.4285647 Z" id="Path"></path>
                    <path d="M14,7.67430588 C13.8148706,7.67430588 13.6346824,7.65684706 13.4561412,7.63214118 L13.4561412,14.4285647 L14.5435294,14.4285647 L14.5435294,7.63214118 C14.3653176,7.65684706 14.1851294,7.67430588 14,7.67430588 Z" id="Path"></path>
                    <path d="M7.45689412,8.61872941 C7.45689412,6.61425882 5.82630588,4.98334118 3.82183529,4.98334118 C1.81736471,4.98334118 0.186117647,6.61425882 0.186117647,8.61872941 C0.186117647,10.6232 1.81736471,12.2541176 3.82183529,12.2541176 C4.51030588,12.2541176 5.18362353,12.0568 5.768,11.6848941 C6.05392941,11.5030588 6.31383529,11.2813647 6.54014118,11.0260706 C7.13143529,10.3590118 7.45689412,9.50418824 7.45689412,8.61872941 Z M3.82183529,6.53256471 C4.49943529,6.53256471 5.04856471,7.08169412 5.04856471,7.75929412 C5.04856471,8.43722353 4.49943529,8.98635294 3.82183529,8.98635294 C3.14390588,8.98635294 2.59477647,8.43722353 2.59477647,7.75929412 C2.59477647,7.08169412 3.14390588,6.53256471 3.82183529,6.53256471 Z M5.15891765,10.7048941 L2.48376471,10.7048941 C2.29995294,10.7048941 2.15072941,10.5556706 2.15072941,10.3718588 C2.15072941,10.3718588 2.22385882,9.68668235 2.2344,9.45774118 C2.24230588,9.27392941 2.38296471,9.12470588 2.56677647,9.12470588 C3.19430588,9.12470588 4.44870588,9.12470588 5.07590588,9.12470588 C5.26037647,9.12470588 5.40037647,9.27392941 5.40894118,9.45774118 C5.41948235,9.68668235 5.49195294,10.3718588 5.49195294,10.3718588 C5.49195294,10.5556706 5.34338824,10.7048941 5.15891765,10.7048941 Z" id="Shape" fill-rule="nonzero"></path>
                    <path d="M24.1781647,4.98334118 C22.1736941,4.98334118 20.5427765,6.61425882 20.5427765,8.61872941 C20.5427765,9.50418824 20.8682353,10.3590118 21.4598588,11.0264 C21.6861647,11.2816941 21.9457412,11.5033882 22.2313412,11.6852235 C22.8163765,12.0571294 23.4896941,12.2544471 24.1781647,12.2544471 C26.1826353,12.2544471 27.8135529,10.6235294 27.8135529,8.61905882 C27.8135529,6.61458824 26.1826353,4.98334118 24.1781647,4.98334118 Z M24.2088,6.53256471 C24.8860706,6.53256471 25.4358588,7.08169412 25.4358588,7.75929412 C25.4358588,8.43722353 24.8860706,8.98635294 24.2088,8.98635294 C23.5312,8.98635294 22.9814118,8.43722353 22.9814118,7.75929412 C22.9817412,7.08169412 23.5315294,6.53256471 24.2088,6.53256471 Z M25.5462118,10.7048941 L22.8710588,10.7048941 C22.6865882,10.7048941 22.5380235,10.5556706 22.5380235,10.3718588 C22.5380235,10.3718588 22.6111529,9.68668235 22.6213647,9.45774118 C22.6292706,9.27392941 22.7705882,9.12470588 22.9540706,9.12470588 C23.5812706,9.12470588 24.8363294,9.12470588 25.4632,9.12470588 C25.6470118,9.12470588 25.7873412,9.27392941 25.7962353,9.45774118 C25.8067765,9.68668235 25.8795765,10.3718588 25.8795765,10.3718588 C25.8795765,10.5556706 25.7300235,10.7048941 25.5462118,10.7048941 Z" id="Shape" fill-rule="nonzero"></path>
                    <path d="M13.4940235,7.36301176 C13.8814118,7.41703529 14.1192471,7.41703529 14.5059765,7.36301176 C16.2897412,7.11397647 17.6347294,5.56837647 17.6347294,3.76748235 C17.6347294,1.76301176 16.0044706,0.131764706 14,0.131764706 C11.9955294,0.131764706 10.3646118,1.76268235 10.3646118,3.76715294 C10.3646118,5.56804706 11.7102588,7.11397647 13.4940235,7.36301176 Z M14,1.68131765 C14.6779294,1.68131765 15.2270588,2.23011765 15.2270588,2.90804706 C15.2270588,3.58597647 14.6779294,4.13510588 14,4.13510588 C13.3220706,4.13510588 12.7729412,3.58597647 12.7729412,2.90804706 C12.7729412,2.23011765 13.3220706,1.68131765 14,1.68131765 Z M12.4128941,4.60583529 C12.4208,4.42235294 12.5621176,4.27312941 12.7452706,4.27312941 C13.3728,4.27312941 14.6272,4.27312941 15.2550588,4.27312941 C15.4388706,4.27312941 15.5792,4.42235294 15.5874353,4.60583529 C15.5979765,4.83510588 15.6711059,5.52094118 15.6711059,5.52094118 C15.6711059,5.70442353 15.5218824,5.85331765 15.3380706,5.85331765 L12.6625882,5.85331765 C12.4781176,5.85331765 12.3295529,5.70442353 12.3295529,5.52094118 C12.3298824,5.52127059 12.4026824,4.83543529 12.4128941,4.60583529 Z" id="Shape" fill-rule="nonzero"></path>
                    <rect id="Rectangle" x="6.25256471" y="26.0258353" width="15.4945412" height="1.8424"></rect>
                </g>
            </g>
        </g>
    </g>
</svg>