<?xml version="1.0" encoding="UTF-8"?>
<svg width="40px" height="40px" viewBox="0 0 40 40" version="1.1" xmlns="http://www.w3.org/2000/svg" xmlns:xlink="http://www.w3.org/1999/xlink">
    <!-- Generator: Sketch 52.2 (67145) - http://www.bohemiancoding.com/sketch -->
    <title>Group 11</title>
    <desc>Created with Sketch.</desc>
    <g id="Archived" stroke="none" stroke-width="1" fill="none" fill-rule="evenodd">
        <g id="Icons--Intranet" transform="translate(-67.000000, -101.500000)">
            <g id="Employee-Quicklinks-Cta" transform="translate(67.000000, 49.500000)">
                <g id="Group-31" transform="translate(0.000000, 52.000000)">
                    <g id="Group-26">
                        <g id="Group-28">
                            <g id="Shuttle-Copy">
                                <g id="Group-12">
                                    <g id="Group-25">
                                        <g id="Group-11">
                                            <circle id="Oval-Copy-8" fill="#941A1D" cx="20" cy="20" r="20"></circle>
                                            <g id="noun_training_1064024_000000" transform="translate(7.000000, 9.500000)" fill="#FFFFFF">
                                                <path d="M24.2911392,3.39165447 L17.6265823,3.39165447 L17.6265823,2.1398243 C17.6265823,1.80600293 17.3417722,1.5 16.971519,1.5 C16.6297468,1.5 16.3164557,1.77818448 16.3164557,2.1398243 L16.3164557,3.39165447 L9.70886076,3.39165447 C8.76898734,3.39165447 8,4.14275256 8,5.06076135 L8,7.25841874 L8,9.45607613 L8,15.1032211 C8,16.0212299 8.76898734,16.772328 9.70886076,16.772328 L12.8417722,16.772328 L11.8164557,20.4721816 L13.1550633,20.4721816 L14.1803797,16.772328 L16.3734177,16.772328 L16.3734177,20.4721816 L17.6550633,20.4721816 L17.6550633,16.8001464 L19.8196203,16.8001464 L20.8449367,20.5 L22.1835443,20.5 L21.1582278,16.8001464 L24.2911392,16.8001464 C25.2310127,16.8001464 26,16.0490483 26,15.1310395 L26,5.0885798 C26,4.14275256 25.2310127,3.39165447 24.2911392,3.39165447 Z M25.1455696,15.1310395 C25.1455696,15.6039531 24.7468354,15.965593 24.2911392,15.965593 L9.70886076,15.965593 C9.22468354,15.965593 8.85443038,15.5761347 8.85443038,15.1310395 L8.85443038,9.76207906 L8.85443038,7.56442167 L8.85443038,5.0885798 C8.85443038,4.61566618 9.25316456,4.25402635 9.70886076,4.25402635 L24.2911392,4.25402635 C24.7753165,4.25402635 25.1455696,4.64348463 25.1455696,5.0885798 L25.1455696,15.1310395 Z" id="Shape" fill-rule="nonzero"></path>
                                                <path d="M19.97354,5.62128384 C19.9187429,5.51003161 19.8091487,5.48221855 19.6995545,5.51003161 L13.6444759,8.34696357 C13.5348817,8.04101993 13.3156933,7.7907024 13.0143093,7.67945017 L9.75388235,6.56692783 L8.65794051,6.20535807 L8.0551725,6.01066666 C7.97297686,5.9828536 7.61679577,5.84378831 7.0962234,5.70472302 L6.79483939,5.62128384 C6.68524521,5.59347078 6.54825248,5.6490969 6.49345538,5.76034913 L4.87694117,10.2660646 C4.79474554,10.5163821 4.41116589,10.5163821 4.32897026,10.2660646 L2.71245605,5.76034913 C2.6850575,5.6490969 2.57546332,5.59347078 2.49326768,5.59347078 C2.46586913,5.59347078 1.64391276,5.84378831 1.64391276,5.84378831 C0.657565102,6.17754501 0,7.09537594 0,8.15227216 L0,12.9083052 C0,12.9639313 0,12.9917443 0.0273985459,13.0473704 L1.72610839,15.6617979 L1.72610839,19.5 L7.45240449,19.5 L7.45240449,15.6617979 L7.45240449,8.04101993 L8.87712888,8.51384192 L9.89087508,8.84759862 L12.3293457,9.68199037 C12.4389399,9.70980343 12.548534,9.73761649 12.6581282,9.73761649 C13.096505,9.73761649 13.4800846,9.45948591 13.6444759,9.01447697 C13.6718744,8.9310378 13.6718744,8.87541168 13.6718744,8.7919725 L19.8639458,5.89941443 C20.0009385,5.84378831 20.0283371,5.70472302 19.97354,5.62128384 Z" id="Path"></path>
                                                <path d="M7,3 C7,1.62244898 5.87755102,0.5 4.5,0.5 C3.12244898,0.5 2,1.62244898 2,3 C2,4.37755102 3.12244898,5.5 4.5,5.5 C5.87755102,5.5 7,4.37755102 7,3 Z" id="Path"></path>
                                                <path d="M4.94576157,5.61764706 C4.90816698,5.52941176 4.83297781,5.5 4.75778863,5.5 L4.25026169,5.5 C4.17507252,5.5 4.11868063,5.52941176 4.06228875,5.61764706 C3.98709958,5.73529412 3.98709958,5.91176471 4.02469416,6.05882353 L4.28785628,6.70588235 L4.15627522,8.38235294 L4.40064004,9.41176471 C4.41943734,9.52941176 4.51342381,9.52941176 4.5510184,9.41176471 L4.79538322,8.38235294 L4.66380216,6.70588235 L4.92696428,6.05882353 C5.02095075,5.91176471 5.02095075,5.76470588 4.94576157,5.61764706 Z" id="Path"></path>
                                            </g>
                                        </g>
                                    </g>
                                </g>
                            </g>
                        </g>
                    </g>
                </g>
            </g>
        </g>
    </g>
</svg>