<?xml version="1.0" encoding="UTF-8"?>
<svg width="40px" height="40px" viewBox="0 0 40 40" version="1.1" xmlns="http://www.w3.org/2000/svg" xmlns:xlink="http://www.w3.org/1999/xlink">
    <!-- Generator: Sketch 52.2 (67145) - http://www.bohemiancoding.com/sketch -->
    <title>Group 18</title>
    <desc>Created with Sketch.</desc>
    <g id="Archived" stroke="none" stroke-width="1" fill="none" fill-rule="evenodd">
        <g id="Icons--Intranet" transform="translate(-122.000000, -174.500000)">
            <g id="Group-18" transform="translate(122.000000, 174.000000)">
                <g id="Group-34" transform="translate(0.000000, 0.500000)" fill="#941A1D">
                    <g id="Group-8">
                        <g id="Group-7">
                            <circle id="Oval-Copy-6" cx="20" cy="20" r="20"></circle>
                        </g>
                    </g>
                </g>
                <g id="noun_request_1617972_000000" transform="translate(10.000000, 9.000000)" fill="#FFFFFF" fill-rule="nonzero">
                    <path d="M20.6739596,6.14965214 L19.0995754,4.59398198 C18.882215,4.37920533 18.5973161,4.27178351 18.3124172,4.27178351 C18.0719403,4.27178351 17.8824699,4.37215532 17.8117207,4.40599374 L17.8117207,2.7 C17.8117207,1.48492427 16.8148802,0.5 15.5852556,0.5 L5.56616273,0.5 L0,6 L0,20.3 C0,21.5150085 0.99684052,22.5 2.22646509,22.5 L15.5852556,22.5 C16.8148802,22.5 17.8117207,21.5150085 17.8117207,20.3 L17.8117207,10.5334717 L20.6739596,7.70525509 C21.1086801,7.2757019 21.1086801,6.57920533 20.6739596,6.14965214 Z M16.6984882,20.3 C16.6984882,20.9065308 16.1990827,21.4 15.5852556,21.4 L2.22646509,21.4 C1.61263802,21.4 1.11323255,20.9065308 1.11323255,20.3 L1.11323255,7.1 L6.67939527,7.1 L6.67939527,1.6 L15.5852556,1.6 C16.1990827,1.6 16.6984882,2.09346924 16.6984882,2.7 L16.6984882,5.41092525 L5.71761512,16.2612731 L5.71761512,19.3725463 L8.86631567,19.3725463 L16.6984882,11.6334717 L16.6984882,20.3 Z M17.525191,9.26085815 L8.40523178,18.2725463 L6.83084766,18.2725463 L6.83084766,16.7168762 L15.9508748,7.70525509 L17.525191,9.26085815 Z M18.3124172,8.48305662 L16.7378971,6.92731936 L18.3124172,5.37178351 L19.8867335,6.92745367 L18.3124172,8.48305662 Z" id="Shape"></path>
                </g>
            </g>
        </g>
    </g>
</svg>