<?xml version="1.0" encoding="UTF-8"?>
<svg width="40px" height="40px" viewBox="0 0 40 40" version="1.1" xmlns="http://www.w3.org/2000/svg" xmlns:xlink="http://www.w3.org/1999/xlink">
    <!-- Generator: Sketch 52.2 (67145) - http://www.bohemiancoding.com/sketch -->
    <title>Group 7</title>
    <desc>Created with Sketch.</desc>
    <g id="Symbols" stroke="none" stroke-width="1" fill="none" fill-rule="evenodd">
        <g id="Procurement">
            <g id="Group-7">
                <circle id="Oval-Copy-6" fill="#941A1D" cx="20" cy="20" r="20"></circle>
                <g id="noun_Purchase_191951_000000" transform="translate(9.000000, 9.500000)" fill="#FFFFFF" fill-rule="nonzero">
                    <path d="M5.68633219,13.7717722 L17.6196089,13.7717722 C18.9350882,13.7717722 20,12.7348112 20,11.4538595 L20,6.57404325 C20,6.29955358 19.7494325,6.05556277 19.4675441,6.05556277 C19.1856557,6.05556277 18.9350882,6.29955358 18.9350882,6.57404325 L18.9350882,11.4538595 C18.9350882,12.1553331 18.3399904,12.7348112 17.6196089,12.7348112 L5.68633219,12.7348112 C4.96595066,12.7348112 4.37085287,12.1553331 4.37085287,11.4538595 L4.37085287,8.58696745 L4.37085287,5.35408919 L4.37085287,4.92710527 L4.37085287,1.87722012 C4.37085287,1.84672127 4.37085287,1.81622242 4.37085287,1.78572356 C4.37085287,1.75522471 4.37085287,1.75522471 4.37085287,1.72472586 C4.37085287,1.69422701 4.37085287,1.69422701 4.33953194,1.66372816 C4.33953194,1.63322931 4.308211,1.63322931 4.308211,1.60273046 C4.308211,1.60273046 4.308211,1.5722316 4.27689006,1.5722316 C4.27689006,1.5722316 4.24556913,1.54173275 4.24556913,1.54173275 C4.24556913,1.54173275 4.21424819,1.5112339 4.21424819,1.5112339 C4.21424819,1.5112339 4.18292726,1.48073505 4.18292726,1.48073505 C4.18292726,1.48073505 4.15160632,1.4502362 4.15160632,1.4502362 C4.12028538,1.41973735 4.08896445,1.41973735 4.05764351,1.38923849 L0.768945218,0.0472890294 C0.487056793,-0.0747063766 0.173847431,0.0472890294 0.0485636867,0.321778693 C-0.0767200578,0.596268356 0.0485636867,0.901256871 0.330452112,1.02325228 L3.27462011,2.24320634 L3.27462011,4.92710527 L3.27462011,5.35408919 L3.27462011,8.58696745 L3.27462011,11.4538595 L3.27462011,15.0832228 C3.27462011,16.3031769 4.24556913,17.309639 5.46708564,17.4011355 C5.21651815,17.7671217 5.0912344,18.1941057 5.0912344,18.6820873 C5.0912344,19.963039 6.15614623,21 7.47162555,21 C8.78710487,21 9.85201669,19.963039 9.85201669,18.6820873 C9.85201669,18.2246045 9.69541201,17.7976206 9.47616546,17.4316344 L15.113934,17.4316344 C14.8633665,17.7976206 14.7380827,18.2246045 14.7380827,18.6820873 C14.7380827,19.963039 15.8029946,21 17.1184739,21 C18.4339532,21 19.498865,19.963039 19.498865,18.6820873 C19.498865,17.4011355 18.4339532,16.3641746 17.1184739,16.3641746 L5.74897406,16.3641746 C5.02859253,16.3641746 4.43349474,15.7846964 4.43349474,15.0832228 L4.43349474,13.3752871 C4.74670411,13.6192779 5.21651815,13.7717722 5.68633219,13.7717722 Z M17.055832,17.4011355 C17.7762135,17.4011355 18.3399904,17.9501149 18.3399904,18.6515884 C18.3399904,19.353062 17.7762135,19.9020413 17.055832,19.9020413 C16.3354505,19.9020413 15.7716736,19.353062 15.7716736,18.6515884 C15.7716736,17.9806137 16.3354505,17.4011355 17.055832,17.4011355 Z M7.47162555,17.4011355 C8.19200708,17.4011355 8.75578393,17.9501149 8.75578393,18.6515884 C8.75578393,19.353062 8.19200708,19.9020413 7.47162555,19.9020413 C6.75124402,19.9020413 6.18746717,19.353062 6.18746717,18.6515884 C6.18746717,17.9806137 6.75124402,17.4011355 7.47162555,17.4011355 Z M8.78710487,7.6720019 C8.56785831,7.45850994 8.56785831,7.09252372 8.78710487,6.87903176 C9.00635142,6.6655398 9.38220265,6.6655398 9.60144921,6.87903176 L11.0108913,8.25148008 L11.0108913,2.18220863 C11.0108913,1.87722012 11.2614588,1.63322931 11.5746682,1.63322931 C11.8878775,1.63322931 12.138445,1.87722012 12.138445,2.18220863 L12.138445,8.25148008 L13.5478872,6.87903176 C13.7671337,6.6655398 14.1429849,6.6655398 14.3622315,6.87903176 C14.581478,7.09252372 14.581478,7.45850994 14.3622315,7.6720019 L11.9818404,9.98991461 C11.8878775,10.0814112 11.7312729,10.1424089 11.5746682,10.1424089 C11.4180635,10.1424089 11.2927798,10.0814112 11.167496,9.98991461 L8.78710487,7.6720019 Z" id="Shape"></path>
                </g>
            </g>
        </g>
    </g>
</svg>