<?xml version="1.0" encoding="UTF-8"?>
<svg width="40px" height="41px" viewBox="0 0 40 41" version="1.1" xmlns="http://www.w3.org/2000/svg" xmlns:xlink="http://www.w3.org/1999/xlink">
    <!-- Generator: Sketch 52.2 (67145) - http://www.bohemiancoding.com/sketch -->
    <title>Events</title>
    <desc>Created with Sketch.</desc>
    <g id="Archived" stroke="none" stroke-width="1" fill="none" fill-rule="evenodd">
        <g id="Icons--Intranet" transform="translate(-122.000000, -176.500000)">
            <g id="Events" transform="translate(122.000000, 176.000000)">
                <g transform="translate(0.000000, 0.500000)">
                    <g id="Group-35" transform="translate(0.000000, 0.500000)">
                        <g id="Group-9">
                            <g id="Group-5"></g>
                        </g>
                    </g>
                    <circle id="Oval-Copy-5" fill="#941A1D" cx="20" cy="20.5" r="20"></circle>
                    <path d="M13.28125,12.25 L11.6471182,12.25 C11.4604085,12.25 11.3125,12.4027226 11.3125,12.5911154 L11.3125,15 L29.6875,15 L29.6875,12.5911154 C29.6875,12.4045304 29.5376863,12.25 29.3528818,12.25 L27.71875,12.25 L27.71875,12.9438401 C27.71875,13.3200343 27.4277995,13.625 27.0563517,13.625 L25.7561483,13.625 C25.3903158,13.625 25.09375,13.3149546 25.09375,12.9438401 L25.09375,12.25 L15.90625,12.25 L15.90625,12.9438401 C15.90625,13.3200343 15.6152995,13.625 15.2438517,13.625 L13.9436483,13.625 C13.5778158,13.625 13.28125,13.3149546 13.28125,12.9438401 L13.28125,12.25 Z M15.90625,10.875 L25.09375,10.875 L25.09375,10.1811599 C25.09375,9.80496566 25.3847005,9.5 25.7561483,9.5 L27.0563517,9.5 C27.4221842,9.5 27.71875,9.81004544 27.71875,10.1811599 L27.71875,10.875 L29.686356,10.875 C30.4118615,10.875 31,11.4922653 31,12.2442367 L31,30.1307633 C31,30.8869719 30.416422,31.5 29.686356,31.5 L11.3136441,31.5 C10.5881385,31.5 10,30.8827347 10,30.1307633 L10,12.2442367 C10,11.4880282 10.583578,10.875 11.3136441,10.875 L13.28125,10.875 L13.28125,10.1811599 C13.28125,9.80496566 13.5722005,9.5 13.9436483,9.5 L15.2438517,9.5 C15.6096842,9.5 15.90625,9.81004544 15.90625,10.1811599 L15.90625,10.875 Z M29.6875,15.6875 L11.3125,15.6875 L11.3125,29.7838846 C11.3125,29.9704696 11.4623137,30.125 11.6471182,30.125 L29.3528818,30.125 C29.5395915,30.125 29.6875,29.9722774 29.6875,29.7838846 L29.6875,15.6875 Z M22.4387631,20.4705461 L25.7595381,21.1132096 L23.4532633,23.6849653 C23.3701942,23.7775968 23.3312482,23.9044271 23.3471829,24.0304241 L23.7908034,27.5381792 L20.6695211,26.0229253 C20.5617604,25.970612 20.4374883,25.970612 20.3297277,26.0229253 L17.2086547,27.5380775 L17.6531509,24.0305358 C17.669126,23.9044757 17.6301616,23.77757 17.5470307,23.6849058 L15.2398502,21.1131445 L18.5594073,20.4705425 C18.6783765,20.4475124 18.7812368,20.3698499 18.8397204,20.2588982 L20.499528,17.1100069 L22.1583856,20.2588126 C22.2168639,20.3698146 22.319754,20.4475145 22.4387631,20.4705461 Z M25.75,10.1875 L25.75,12.9375 L27.0625,12.9375 L27.0625,10.1875 L25.75,10.1875 Z M13.9375,10.1875 L13.9375,12.9375 L15.25,12.9375 L15.25,10.1875 L13.9375,10.1875 Z" id="Shape" fill="#FFFFFF"></path>
                </g>
            </g>
        </g>
    </g>
</svg>