<?xml version="1.0" encoding="UTF-8"?>
<svg width="42px" height="42px" viewBox="0 0 42 42" version="1.1" xmlns="http://www.w3.org/2000/svg" xmlns:xlink="http://www.w3.org/1999/xlink">
    <!-- Generator: Sketch 52.2 (67145) - http://www.bohemiancoding.com/sketch -->
    <title>Paystub</title>
    <desc>Created with Sketch.</desc>
    <g id="Intranet-Screens-V1-&amp;-V2" stroke="none" stroke-width="1" fill="none" fill-rule="evenodd">
        <g id="MM-Intranet--HR-Home-Copy" transform="translate(-42.000000, -708.000000)">
            <g id="Page"></g>
            <g id="Human-Resources-CTA" transform="translate(43.000000, 569.000000)">
                <g id="Group-34" transform="translate(0.000000, 140.000000)">
                    <g id="Paystub">
                        <g fill="#941A1D" id="Oval-Copy-6" stroke="#941A1D">
                            <circle stroke-width="2" cx="20" cy="20" r="20"></circle>
                        </g>
                        <g id="noun_receipt_550632_000000" transform="translate(11.000000, 9.000000)" fill="#FFFFFF">
                            <path d="M19,3.00748397 C19,2.45106594 18.5452911,2 18.0000398,2 L2.9999602,2 C2.44769743,2 2,2.43861485 2,2.99874609 L2,22.0012539 C2,22.5528461 2.44483697,23 2.9955775,23 L13,23 L14,22 L3,22 L3,3 L18,3 L18,18 L19,16.983676 L19,3.00748397 Z" id="Path"></path>
                            <path d="M17,1.00748397 C17,0.45106594 16.5452911,0 16.0000398,0 L0.999960201,0 C0.447697432,0 0,0.438614845 0,0.998746091 L0,20.0012539 C0,20.5528461 0.444836974,21 0.995577499,21 L2.5,21 L2.5,20 L1,20 L1,1 L16,1 L16,2.5 L17,2.5 L17,1.00748397 Z" id="Path"></path>
                            <path d="M11.0000114,7.88059571 L11.0000114,7 L10.0000114,7 L10.0000114,7.92783266 C9.01547523,8.15146228 8.35874237,8.90341474 8.35874237,9.81436569 C8.35874237,11.9671435 11.7515995,11.6397625 11.7515995,13.1576197 C11.7515995,13.8223022 11.196044,14.1893657 10.541282,14.1893657 C9.49961538,14.1893657 8.75556776,13.4353974 8.75556776,13.4353974 L8.20001221,14.1794451 C8.20001221,14.1794451 8.84008034,14.8880919 10.0000114,15.0632655 L10.0000114,16 L11.0000114,16 L11.0000114,15.0642104 C12.0995212,14.8835758 12.743663,14.0785661 12.743663,13.1278578 C12.743663,10.8560324 9.35080586,11.2429371 9.35080586,9.79452442 C9.35080586,9.23896886 9.87659951,8.77269902 10.6206471,8.77269902 C11.5135043,8.77269902 12.1583455,9.37785775 12.1583455,9.37785775 L12.6047741,8.56436569 C12.6047741,8.56436569 12.0531057,7.99670689 11.0000114,7.88059571 Z" id="Path"></path>
                            <polygon id="Path" points="19 16.2928932 19 17.7071068 13.7071068 23 12.2928932 23"></polygon>
                            <path d="M19,17 L13.990778,17 C13.4435864,17 13,17.4509752 13,17.990778 L13,23 L14,22 L14,18 L18,18 L19,17 Z" id="Path"></path>
                        </g>
                    </g>
                </g>
            </g>
        </g>
    </g>
</svg>