<?xml version="1.0" encoding="UTF-8"?>
<svg width="180px" height="76px" viewBox="0 0 180 76" version="1.1" xmlns="http://www.w3.org/2000/svg" xmlns:xlink="http://www.w3.org/1999/xlink">
    <!-- Generator: Sketch 52 (66869) - http://www.bohemiancoding.com/sketch -->
    <title>Group 3</title>
    <desc>Created with Sketch.</desc>
    <defs>
        <polygon id="path-1" points="0.00964285714 0.154862777 179.993571 0.154862777 179.993571 54.4536241 0.00964285714 54.4536241"></polygon>
    </defs>
    <g id="Page-1" stroke="none" stroke-width="1" fill="none" fill-rule="evenodd">
        <g id="Company-Homepage-Desktop" transform="translate(-442.000000, -48.000000)">
            <g id="Group-3" transform="translate(442.000000, 48.000000)">
                <g id="Group-2">
                    <g id="Group">
                        <mask id="mask-2" fill="white">
                            <use xlink:href="#path-1"></use>
                        </mask>
                        <g id="Clip-2"></g>
                        <path d="M177.425357,2.76707048 C177.544286,2.75967358 177.650357,2.73826978 177.743571,2.70380337 C177.833571,2.66917958 177.9075,2.61315199 177.96375,2.5357206 C178.02,2.45844659 178.047321,2.3522145 178.047321,2.21796862 C178.047321,2.10355273 178.024821,2.01132754 177.983036,1.94129305 C177.939643,1.87141594 177.880179,1.81538835 177.80625,1.77258075 C177.732321,1.73071744 177.650357,1.70175936 177.560357,1.68696556 C177.467143,1.67217176 177.370714,1.66477486 177.269464,1.66477486 L176.528571,1.66477486 L176.528571,2.77871667 L177.06375,2.77871667 C177.184286,2.77871667 177.304821,2.77446738 177.425357,2.76707048 Z M176.123571,4.54295623 L176.123571,1.32797979 L177.383571,1.32797979 C177.754821,1.32797979 178.024821,1.40462428 178.196786,1.55618206 C178.367143,1.70836936 178.452321,1.92901734 178.452321,2.21796862 C178.452321,2.35709331 178.429821,2.47890611 178.386429,2.58435129 C178.344643,2.68885219 178.283571,2.77698548 178.208036,2.84938068 C178.130893,2.92193326 178.044107,2.97874775 177.944464,3.02155535 C177.844821,3.06357604 177.73875,3.09473746 177.627857,3.11456745 L178.605,4.54295623 L178.130893,4.54295623 L177.208393,3.11456745 L176.528571,3.11456745 L176.528571,4.54295623 L176.123571,4.54295623 Z M176.195893,0.737801525 C175.903393,0.861975033 175.651071,1.03163161 175.437321,1.2456696 C175.221964,1.46065187 175.056429,1.71167436 174.935893,2.00062564 C174.816964,2.2905212 174.755893,2.60166319 174.755893,2.93499587 C174.755893,3.26927284 174.816964,3.58041482 174.935893,3.86952349 C175.056429,4.15926167 175.221964,4.41028416 175.437321,4.62447953 C175.651071,4.83930442 175.903393,5.00896099 176.195893,5.13329188 C176.488393,5.25746539 176.808214,5.32010298 177.15375,5.32010298 C177.496071,5.32010298 177.811071,5.25746539 178.103571,5.13329188 C178.397679,5.00896099 178.651607,4.83930442 178.86375,4.62447953 C179.0775,4.41028416 179.24625,4.15926167 179.368393,3.86952349 C179.490536,3.58041482 179.551607,3.26927284 179.551607,2.93499587 C179.551607,2.60166319 179.490536,2.2905212 179.368393,2.00062564 C179.24625,1.71167436 179.0775,1.46065187 178.86375,1.2456696 C178.651607,1.03163161 178.397679,0.861975033 178.103571,0.737801525 C177.811071,0.613470637 177.496071,0.55083305 177.15375,0.55083305 C176.808214,0.55083305 176.488393,0.613470637 176.195893,0.737801525 Z M178.275536,0.367326954 C178.622679,0.509756643 178.923214,0.706482732 179.177143,0.958449507 C179.431071,1.209472 179.630357,1.50503327 179.776607,1.84418905 C179.92125,2.18255792 179.993571,2.54657988 179.993571,2.93499587 C179.993571,3.32939233 179.92125,3.69420119 179.776607,4.03083888 C179.630357,4.36668966 179.431071,4.65989022 179.177143,4.9093389 C178.923214,5.1578433 178.622679,5.35378248 178.275536,5.49542527 C177.931607,5.63785496 177.555536,5.70867635 177.15375,5.70867635 C176.751964,5.70867635 176.3775,5.63785496 176.033571,5.49542527 C175.686429,5.35378248 175.385893,5.1578433 175.131964,4.9093389 C174.878036,4.65989022 174.677143,4.36668966 174.5325,4.03083888 C174.38625,3.69420119 174.313929,3.32939233 174.313929,2.93499587 C174.313929,2.54657988 174.38625,2.18255792 174.5325,1.84418905 C174.677143,1.50503327 174.878036,1.209472 175.131964,0.958449507 C175.385893,0.706482732 175.686429,0.509756643 176.033571,0.367326954 C176.3775,0.22568417 176.751964,0.154862777 177.15375,0.154862777 C177.555536,0.154862777 177.931607,0.22568417 178.275536,0.367326954 Z M143.603518,28.4423432 C143.230339,25.145214 143.291411,20.3144081 139.817893,20.3144081 C136.961839,20.3144081 136.252768,25.7301987 136.093339,28.4423432 L143.603518,28.4423432 Z M136.093339,36.166439 C136.093339,39.7092398 136.618232,46.3776247 140.231089,46.4018614 C142.395107,46.4207471 142.795768,43.3636236 143.419018,40.0661796 L152.539554,40.0905737 C151.990071,44.7762743 148.938107,54.4339515 140.006089,54.4339515 C130.381393,54.4339515 126.039054,44.3747957 126.039054,33.1884782 C126.039054,21.7668762 130.631786,12.104635 139.878964,12.104635 C149.560875,12.104635 152.908393,22.8896313 152.908393,33.4336776 L152.908393,36.166439 L136.093339,36.166439 Z M91.4710179,0.164935153 L100.918929,0.164935153 L107.634054,19.7361908 L114.345804,0.164935153 L123.789054,0.164935153 L123.789054,53.6834021 L114.656946,53.6834021 L114.656946,21.3413183 L107.708304,41.6026891 L107.556268,41.6026891 L100.60425,21.3413183 L100.60425,53.6834021 L91.4710179,53.6834021 L91.4710179,0.164935153 Z M52.1326607,28.4423432 C51.7598036,25.145214 51.8218393,20.3144081 48.3471964,20.3144081 C45.4909821,20.3144081 44.7822321,25.7301987 44.6221607,28.4423432 L52.1326607,28.4423432 Z M44.6221607,36.166439 C44.6221607,39.7092398 45.1425536,46.3776247 48.7571786,46.4018614 C50.9240893,46.4207471 51.3218571,43.3636236 51.9438214,40.0661796 L61.0688571,40.0905737 C60.519375,44.7762743 57.4712679,54.4339515 48.5312143,54.4339515 C38.9150357,54.4339515 34.5675536,44.3747957 34.5675536,33.1884782 C34.5675536,21.7668762 39.1572321,12.104635 48.4081071,12.104635 C58.0898571,12.104635 61.4410714,22.8896313 61.4410714,33.4336776 L61.4410714,36.166439 L44.6221607,36.166439 Z M0,0.164935153 L9.44823214,0.164935153 L16.1595,19.7361908 L22.8751071,0.164935153 L32.3181964,0.164935153 L32.3181964,53.6834021 L23.189625,53.6834021 L23.189625,21.3413183 L16.237125,41.6026891 L16.0813929,41.6026891 L9.13242857,21.3413183 L9.13242857,53.6834021 L0,53.6834021 L0,0.164935153 Z M79.97175,34.5694953 L79.97175,31.8208384 C79.97175,24.5588128 78.6437679,20.5789654 76.3007143,20.5789654 C73.960875,20.5789654 72.8713929,24.5588128 72.8713929,31.8208384 L72.8713929,34.5694953 C72.8713929,41.9114703 73.960875,45.8154602 76.3007143,45.8154602 C78.6437679,45.8154602 79.97175,41.9114703 79.97175,34.5694953 Z M63.6566786,35.0304639 L63.6566786,31.3597124 C63.6566786,16.7591742 67.5576964,11.9403293 72.5522143,11.9403293 C76.6161964,11.9403293 78.4928571,15.2264419 79.898625,17.6741866 L79.898625,0.164935153 L89.1122143,0.164935153 L89.1122143,53.6834021 L79.898625,53.6834021 L79.898625,48.5592384 C78.5706429,51.0115471 76.6161964,54.4536241 72.5522143,54.4536241 C67.5576964,54.4536241 63.6566786,49.7836615 63.6566786,35.0304639 Z M155.269768,12.7072463 L164.484643,12.7072463 L164.484643,17.5980143 C166.122321,14.4606266 168.2325,11.9403293 171.9,11.9403293 C177.201964,11.9403293 179.942143,16.3742206 179.942143,22.6412843 L179.942143,53.6834021 L170.731607,53.6834021 L170.731607,24.7073804 C170.731607,21.7262719 169.56,20.0410375 167.684464,20.0410375 C165.812143,20.0410375 164.484643,21.7262719 164.484643,24.7073804 L164.484643,53.6834021 L155.269768,53.6834021 L155.269768,12.7072463 Z" id="Fill-1" fill="#94070A" mask="url(#mask-2)"></path>
                    </g>
                </g>
                <text id="EMPLOYEE-INTRANET" font-family="AvenirNext-Medium, Avenir Next" font-size="11" font-weight="400" letter-spacing="3" fill="#222222">
                    <tspan x="9.531" y="75">EMPLOYEE INTRANE</tspan>
                    <tspan x="165.21" y="75">T</tspan>
                </text>
            </g>
        </g>
    </g>
</svg>