<?xml version="1.0" encoding="UTF-8"?>
<svg width="119px" height="36px" viewBox="0 0 119 36" version="1.1" xmlns="http://www.w3.org/2000/svg" xmlns:xlink="http://www.w3.org/1999/xlink">
    <!-- Generator: Sketch 52 (66869) - http://www.bohemiancoding.com/sketch -->
    <title>Group 2</title>
    <desc>Created with Sketch.</desc>
    <defs>
        <polygon id="path-1" points="0.006375 0.102381503 118.99575 0.102381503 118.99575 35.999896 0.006375 35.999896"></polygon>
    </defs>
    <g id="Symbols" stroke="none" stroke-width="1" fill="none" fill-rule="evenodd">
        <g id="Top-Nav-v2" transform="translate(-43.000000, -45.000000)">
            <g id="Group-2" transform="translate(43.000000, 45.000000)">
                <g id="Group">
                    <mask id="mask-2" fill="white">
                        <use xlink:href="#path-1"></use>
                    </mask>
                    <g id="Clip-2"></g>
                    <path d="M117.297875,1.82934104 C117.3765,1.82445087 117.446625,1.81030058 117.50825,1.78751445 C117.56775,1.76462428 117.616625,1.72758382 117.653813,1.67639306 C117.691,1.62530636 117.709063,1.55507514 117.709063,1.4663237 C117.709063,1.39068208 117.694188,1.32971098 117.666563,1.2834104 C117.637875,1.23721387 117.598563,1.20017341 117.549688,1.17187283 C117.500812,1.14419653 117.446625,1.12505202 117.387125,1.11527168 C117.3255,1.10549133 117.26175,1.10060116 117.194812,1.10060116 L116.705,1.10060116 L116.705,1.83704046 L117.058812,1.83704046 C117.1385,1.83704046 117.218187,1.83423121 117.297875,1.82934104 Z M116.43725,3.00339884 L116.43725,0.877942197 L117.27025,0.877942197 C117.515687,0.877942197 117.694187,0.928612717 117.807875,1.02880925 C117.9205,1.12942197 117.976812,1.2752948 117.976812,1.4663237 C117.976812,1.55830058 117.961937,1.63883237 117.93325,1.70854335 C117.905625,1.77763006 117.86525,1.83589595 117.815312,1.88375723 C117.764312,1.93172254 117.706937,1.96928324 117.641062,1.99758382 C117.575187,2.02536416 117.505062,2.04596532 117.43175,2.05907514 L118.07775,3.00339884 L117.764312,3.00339884 L117.154437,2.05907514 L116.705,2.05907514 L116.705,3.00339884 L116.43725,3.00339884 Z M116.485062,0.487768786 C116.291687,0.569861272 116.124875,0.682023121 115.983562,0.823526012 C115.841187,0.965653179 115.73175,1.13160694 115.652062,1.32263584 C115.573437,1.51428902 115.533062,1.71998844 115.533062,1.94035838 C115.533062,2.1613526 115.573437,2.36705202 115.652062,2.55818497 C115.73175,2.7497341 115.841187,2.91568786 115.983562,3.0572948 C116.124875,3.19931792 116.291687,3.31147977 116.485062,3.3936763 C116.678437,3.47576879 116.889875,3.51717919 117.118312,3.51717919 C117.344625,3.51717919 117.552875,3.47576879 117.74625,3.3936763 C117.940687,3.31147977 118.108562,3.19931792 118.248812,3.0572948 C118.390125,2.91568786 118.501687,2.7497341 118.582437,2.55818497 C118.663187,2.36705202 118.703562,2.1613526 118.703562,1.94035838 C118.703562,1.71998844 118.663187,1.51428902 118.582437,1.32263584 C118.501687,1.13160694 118.390125,0.965653179 118.248812,0.823526012 C118.108562,0.682023121 117.940687,0.569861272 117.74625,0.487768786 C117.552875,0.405572254 117.344625,0.36416185 117.118312,0.36416185 C116.889875,0.36416185 116.678437,0.405572254 116.485062,0.487768786 Z M117.859937,0.242843931 C118.089437,0.33700578 118.288125,0.467063584 118.456,0.633641618 C118.623875,0.799595376 118.755625,0.99499422 118.852312,1.21921387 C118.947937,1.44291329 118.99575,1.68357225 118.99575,1.94035838 C118.99575,2.20109827 118.947937,2.44227746 118.852312,2.66483237 C118.755625,2.88686705 118.623875,3.0807052 118.456,3.2456185 C118.288125,3.40990751 118.089437,3.53944509 117.859937,3.63308671 C117.632562,3.72724855 117.383937,3.77406936 117.118312,3.77406936 C116.852687,3.77406936 116.605125,3.72724855 116.37775,3.63308671 C116.14825,3.53944509 115.949562,3.40990751 115.781687,3.2456185 C115.613812,3.0807052 115.481,2.88686705 115.385375,2.66483237 C115.288687,2.44227746 115.240875,2.20109827 115.240875,1.94035838 C115.240875,1.68357225 115.288687,1.44291329 115.385375,1.21921387 C115.481,0.99499422 115.613812,0.799595376 115.781687,0.633641618 C115.949562,0.467063584 116.14825,0.33700578 116.37775,0.242843931 C116.605125,0.149202312 116.852687,0.102381503 117.118312,0.102381503 C117.383937,0.102381503 117.632562,0.149202312 117.859937,0.242843931 Z M94.9378812,18.8035491 C94.6911687,16.6237803 94.7315437,13.4300809 92.4351625,13.4300809 C90.5469937,13.4300809 90.0782187,17.0105202 89.9728187,18.8035491 L94.9378812,18.8035491 Z M89.9728187,23.9100347 C89.9728187,26.2522197 90.3198312,30.660763 92.7083312,30.6767861 C94.1389875,30.6892717 94.4038687,28.6681734 94.8159062,26.4881965 L100.845594,26.5043237 C100.482325,29.6020925 98.4646375,35.9868902 92.5595812,35.9868902 C86.1965875,35.9868902 83.3258187,29.3366705 83.3258187,21.9412717 C83.3258187,14.3903237 86.362125,8.00250867 92.4755375,8.00250867 C98.8763563,8.00250867 101.089438,15.1325896 101.089438,22.1033757 L101.089438,23.9100347 L89.9728187,23.9100347 Z M60.4725062,0.109040462 L66.718625,0.109040462 L71.1580688,13.047815 L75.5952813,0.109040462 L81.8383188,0.109040462 L81.8383188,35.4906936 L75.8009813,35.4906936 L75.8009813,14.1089827 L71.2071563,27.504 L71.1066438,27.504 L66.5105875,14.1089827 L66.5105875,35.4906936 L60.4725062,35.4906936 L60.4725062,0.109040462 Z M34.4654813,18.8035491 C34.2189813,16.6237803 34.2599938,13.4300809 31.9628688,13.4300809 C30.0745938,13.4300809 29.6060313,17.0105202 29.5002063,18.8035491 L34.4654813,18.8035491 Z M29.5002062,23.9100347 C29.5002062,26.2522197 29.8442437,30.660763 32.2339125,30.6767861 C33.6664812,30.6892717 33.92945,28.6681734 34.3406375,26.4881965 L40.3733,26.5043237 C40.0100312,29.6020925 37.9948937,35.9868902 32.084525,35.9868902 C25.7271625,35.9868902 22.8529938,29.3366705 22.8529938,21.9412717 C22.8529938,14.3903237 25.8872813,8.00250867 32.0031375,8.00250867 C38.40385,8.00250867 40.619375,15.1325896 40.619375,22.1033757 L40.619375,23.9100347 L29.5002062,23.9100347 Z M0,0.109040462 L6.24633125,0.109040462 L10.683225,13.047815 L15.1229875,0.109040462 L21.3659188,0.109040462 L21.3659188,35.4906936 L15.3309188,35.4906936 L15.3309188,14.1089827 L10.7345438,27.504 L10.6315875,27.504 L6.03755,14.1089827 L6.03755,35.4906936 L0,35.4906936 L0,0.109040462 Z M52.8702125,22.8542775 L52.8702125,21.0371098 C52.8702125,16.236104 51.9922687,13.6049827 50.44325,13.6049827 C48.8963563,13.6049827 48.1760875,16.236104 48.1760875,21.0371098 L48.1760875,22.8542775 C48.1760875,27.7081387 48.8963563,30.2891098 50.44325,30.2891098 C51.9922687,30.2891098 52.8702125,27.7081387 52.8702125,22.8542775 Z M42.0841375,23.1590289 L42.0841375,20.7322543 C42.0841375,11.0796763 44.6631437,7.89388439 47.965075,7.89388439 C50.6518187,7.89388439 51.8925,10.0663699 52.8218687,11.6846012 L52.8218687,0.109040462 L58.913075,0.109040462 L58.913075,35.4906936 L52.8218687,35.4906936 L52.8218687,32.103052 C51.943925,33.7243006 50.6518187,35.999896 47.965075,35.999896 C44.6631437,35.999896 42.0841375,32.9125318 42.0841375,23.1590289 Z M102.650569,8.40090173 L108.742625,8.40090173 L108.742625,11.6342428 C109.825313,9.56008092 111.220375,7.89388439 113.645,7.89388439 C117.150187,7.89388439 118.96175,10.8251792 118.96175,14.9684046 L118.96175,35.4906936 L112.872562,35.4906936 L112.872562,16.3343237 C112.872562,14.3634798 112.098,13.2493526 110.858063,13.2493526 C109.62025,13.2493526 108.742625,14.3634798 108.742625,16.3343237 L108.742625,35.4906936 L102.650569,35.4906936 L102.650569,8.40090173 Z" id="Fill-1" fill="#94070A" mask="url(#mask-2)"></path>
                </g>
            </g>
        </g>
    </g>
</svg>