<?xml version="1.0" encoding="UTF-8"?>
<svg width="47px" height="46px" viewBox="0 0 47 46" version="1.1" xmlns="http://www.w3.org/2000/svg" xmlns:xlink="http://www.w3.org/1999/xlink">
    <!-- Generator: Sketch 52.6 (67491) - http://www.bohemiancoding.com/sketch -->
    <title>Facebook</title>
    <desc>Created with Sketch.</desc>
    <g id="The-New-Normal---Web" stroke="none" stroke-width="1" fill="none" fill-rule="evenodd">
        <g id="Share-Entire-Website" transform="translate(-744.000000, -357.000000)">
            <g id="Group-6" transform="translate(405.000000, 232.000000)">
                <g id="Group-5">
                    <g id="Group-4">
                        <g id="Social-Share" transform="translate(157.000000, 125.000000)">
                            <g id="Group-8">
                                <g id="Facebook" transform="translate(182.134796, -0.000000)">
                                    <ellipse id="Oval-Copy-2" fill="#FFFFFF" cx="23.3471224" cy="23" rx="23.3471224" ry="23"></ellipse>
                                    <path d="M24.6122464,36.5966316 L24.6122464,24.3376527 L28.7346014,24.3376527 L29.3517458,19.5393151 L24.6122464,19.5393151 L24.6122464,16.4831454 C24.6122464,15.0972307 24.996132,14.1527941 26.978584,14.1527941 L29.491102,14.1516486 L29.491102,9.8727078 C29.0539195,9.81447766 27.5540419,9.68421053 25.8089864,9.68421053 C22.165809,9.68421053 19.6716331,11.9137349 19.6716331,16.0081719 L19.6716331,19.5393151 L15.5647483,19.5393151 L15.5647483,24.3376527 L19.6716331,24.3376527 L19.6716331,36.5966316 L24.6122464,36.5966316 Z" id="Fill-1" fill="#C7282C"></path>
                                </g>
                            </g>
                        </g>
                    </g>
                </g>
            </g>
        </g>
    </g>
</svg>