<?xml version="1.0" encoding="UTF-8"?>
<svg width="49px" height="48px" viewBox="0 0 49 48" version="1.1" xmlns="http://www.w3.org/2000/svg" xmlns:xlink="http://www.w3.org/1999/xlink">
    <!-- Generator: Sketch 52.6 (67491) - http://www.bohemiancoding.com/sketch -->
    <title>Instagram</title>
    <desc>Created with Sketch.</desc>
    <defs>
        <ellipse id="path-1" cx="23.3471224" cy="23" rx="23.3471224" ry="23"></ellipse>
        <polygon id="path-3" points="2.60062628e-05 0.0079907293 26.2060429 0.0079907293 26.2060429 25.3131839 2.60062628e-05 25.3131839"></polygon>
    </defs>
    <g id="The-New-Normal---Web" stroke="none" stroke-width="1" fill="none" fill-rule="evenodd">
        <g id="Share-Entire-Website" transform="translate(-561.000000, -356.000000)">
            <g id="Group-6" transform="translate(405.000000, 232.000000)">
                <g id="Group-5">
                    <g id="Group-4">
                        <g id="Social-Share" transform="translate(157.000000, 125.000000)">
                            <g id="Group-8">
                                <g id="Instagram" transform="translate(0.000000, -0.000000)">
                                    <g id="Group-2">
                                        <mask id="mask-2" fill="white">
                                            <use xlink:href="#path-1"></use>
                                        </mask>
                                        <use id="Mask" stroke="#FFFFFF" stroke-width="2" fill="#FFFFFF" xlink:href="#path-1"></use>
                                        <g mask="url(#mask-2)" id="Group">
                                            <g transform="translate(9.830367, 10.491228)">
                                                <g>
                                                    <g id="Group-3" transform="translate(0.000000, 0.042239)">
                                                        <mask id="mask-4" fill="white">
                                                            <use xlink:href="#path-3"></use>
                                                        </mask>
                                                        <g id="Clip-2"></g>
                                                        <path d="M13.1030214,0.0079907293 C9.54448048,0.0079907293 9.09821301,0.022555855 7.70068846,0.0841311794 C6.30597259,0.14555583 5.35351922,0.359462279 4.5200185,0.67226091 C3.65843101,0.995556475 2.92765503,1.42819093 2.19921961,2.13158605 C1.47073218,2.8350314 1.0227483,3.5406364 0.687891656,4.37260643 C0.363957647,5.17745518 0.142488314,6.09716753 0.0788249824,7.44393941 C0.0150576261,8.79347364 2.60062628e-05,9.22430002 2.60062628e-05,12.6605647 C2.60062628e-05,16.0968295 0.0150576261,16.5277061 0.0788249824,17.8772403 C0.142488314,19.2239619 0.363957647,20.1437245 0.687891656,20.9485231 C1.0227483,21.7804931 1.47073218,22.4861483 2.19921961,23.1895434 C2.92765503,23.8929888 3.65843101,24.325573 4.5200185,24.648969 C5.35351922,24.9617174 6.30597259,25.1756239 7.70068846,25.2370987 C9.09821301,25.2986238 9.54448048,25.313189 13.1030214,25.313189 C16.6616144,25.313189 17.1077779,25.2986238 18.5053544,25.2370987 C19.9000703,25.1756239 20.8525237,24.9617174 21.6860244,24.648969 C22.5476639,24.325573 23.2783878,23.8929888 24.0068233,23.1895434 C24.7353107,22.4861483 25.1832946,21.7805433 25.5181512,20.9485231 C25.8420852,20.1437245 26.0636066,19.2239619 26.1272179,17.8772403 C26.1909852,16.5277061 26.2060689,16.0968295 26.2060689,12.6605647 C26.2060689,9.22435024 26.1909852,8.79347364 26.1272179,7.44393941 C26.0636066,6.09716753 25.8420852,5.17745518 25.5181512,4.37260643 C25.1832946,3.5406364 24.7353107,2.8350314 24.0068233,2.13158605 C23.2783878,1.42819093 22.5476639,0.995556475 21.6860244,0.67226091 C20.8525237,0.359462279 19.9000703,0.14555583 18.5053544,0.0841311794 C17.1077779,0.022555855 16.6616144,0.0079907293 13.1030214,0.0079907293 M13.1030214,2.28773425 C16.601696,2.28773425 17.0160798,2.30059174 18.3977405,2.36146392 C19.6752721,2.41776566 20.3690672,2.6238873 20.8307824,2.79716207 C21.4423977,3.02668836 21.8789388,3.3008643 22.3374292,3.7435939 C22.7959197,4.18637372 23.079856,4.60785832 23.3176053,5.19844905 C23.4969965,5.64429257 23.7104559,6.31423813 23.7687619,7.54785405 C23.8317491,8.88201956 23.8451163,9.28220895 23.8451163,12.6605647 C23.8451163,16.0389708 23.8317491,16.4391601 23.7687619,17.7732754 C23.7104559,19.0069416 23.4969965,19.6768871 23.3176053,20.1227306 C23.079856,20.7132712 22.7959197,21.134806 22.3374292,21.5775356 C21.8789388,22.0203154 21.4423977,22.2944913 20.8307824,22.5240176 C20.3690672,22.6972422 19.6752721,22.903414 18.3977405,22.9596656 C17.0162878,23.0205377 16.601956,23.0334455 13.1030214,23.0334455 C9.60408683,23.0334455 9.18975505,23.0205377 7.80830238,22.9596656 C6.53077072,22.903414 5.83692363,22.6972422 5.37520844,22.5240176 C4.76364517,22.2944913 4.32710404,22.0203154 3.86861363,21.5775356 C3.41012322,21.134806 3.12613483,20.7132712 2.88843759,20.1227306 C2.70904639,19.6768871 2.49558698,19.0069416 2.43728094,17.7733257 C2.37424176,16.4391601 2.36092655,16.0389708 2.36092655,12.6605647 C2.36092655,9.28220895 2.37424176,8.88201956 2.43728094,7.54785405 C2.49558698,6.31423813 2.70904639,5.64429257 2.88843759,5.19844905 C3.12613483,4.60785832 3.41012322,4.18637372 3.86861363,3.74364412 C4.32710404,3.3008643 4.76364517,3.02668836 5.37520844,2.79716207 C5.83692363,2.6238873 6.53077072,2.41776566 7.80825036,2.36146392 C9.1899631,2.30059174 9.60434689,2.28773425 13.1030214,2.28773425" id="Fill-1" fill="#C7282C" mask="url(#mask-4)"></path>
                                                    </g>
                                                    <path d="M13.1030214,16.9203618 C10.6908365,16.9203618 8.73532162,15.0320685 8.73532162,12.7028036 C8.73532162,10.3735387 10.6908365,8.48529567 13.1030214,8.48529567 C15.5152063,8.48529567 17.4707213,10.3735387 17.4707213,12.7028036 C17.4707213,15.0320685 15.5152063,16.9203618 13.1030214,16.9203618 M13.1030214,6.20555216 C9.38693454,6.20555216 6.37442107,9.11445888 6.37442107,12.7028036 C6.37442107,16.2911986 9.38693454,19.2001053 13.1030214,19.2001053 C16.8191083,19.2001053 19.8315698,16.2911986 19.8315698,12.7028036 C19.8315698,9.11445888 16.8191083,6.20555216 13.1030214,6.20555216" id="Fill-4" fill="#C7282C"></path>
                                                    <path d="M21.6698017,5.94884433 C21.6698017,6.78739377 20.9658641,7.46713312 20.097463,7.46713312 C19.2290619,7.46713312 18.5250724,6.78739377 18.5250724,5.94884433 C18.5250724,5.11029489 19.2290619,4.43055554 20.097463,4.43055554 C20.9658641,4.43055554 21.6698017,5.11029489 21.6698017,5.94884433" id="Fill-6" fill="#C7282C"></path>
                                                </g>
                                            </g>
                                        </g>
                                    </g>
                                </g>
                            </g>
                        </g>
                    </g>
                </g>
            </g>
        </g>
    </g>
</svg>