<?xml version="1.0" encoding="UTF-8"?>
<svg width="38px" height="38px" viewBox="0 0 38 38" version="1.1" xmlns="http://www.w3.org/2000/svg" xmlns:xlink="http://www.w3.org/1999/xlink">
    <!-- Generator: Sketch 52.6 (67491) - http://www.bohemiancoding.com/sketch -->
    <title>Group Copy 6</title>
    <desc>Created with Sketch.</desc>
    <g id="The-New-Normal---Web" stroke="none" stroke-width="1" fill="none" fill-rule="evenodd">
        <g id="Website---Timeline---v2.6" transform="translate(-1474.000000, -18.000000)">
            <g id="Group-Copy-6" transform="translate(1475.000000, 19.000000)">
                <g id="Group">
                    <path d="M25.7126582,17.0745528 C23.4923157,19.3039983 21.272093,21.5328424 19.0512113,23.7610851 C18.9954946,23.8176181 18.9385796,23.8771582 18.872079,23.9192572 C18.6510093,24.0599883 18.3760202,23.9169117 18.3549916,23.6546346 C18.3514569,23.6047171 18.3538533,23.5541983 18.3538533,23.5042808 L18.3538533,19.1313922 C18.0549,19.1464276 17.7631359,19.1530432 17.4725701,19.1770998 C16.4415106,19.2612979 15.4445402,19.500661 14.489627,19.8987978 C13.0577664,20.4954015 11.8206149,21.372866 10.7793706,22.5275828 C10.1389276,23.237854 9.6129135,24.0245048 9.1941392,24.8845283 C9.17257143,24.929033 9.12823767,24.9615094 9.0946878,25 C9.07491734,24.953691 9.03957015,24.9079835 9.03837194,24.8616745 C9.02339432,24.2716864 8.9838534,23.679894 9.00721849,23.0911087 C9.05155225,22.0067574 9.31515838,20.9651066 9.71715774,19.9589393 C10.3899525,18.2743758 11.4527645,16.8833029 12.8708457,15.7634681 C14.2691564,14.6598715 15.854987,13.9862867 17.6073687,13.7030202 C17.8476097,13.6639283 18.0914454,13.6452844 18.3538533,13.6152136 L18.3538533,13.4222196 C18.3538533,12.0743884 18.3532542,10.7260159 18.3538533,9.37824481 C18.3538533,9.12384626 18.5144134,8.96507269 18.7450688,9.00657033 C18.826547,9.0216057 18.9080253,9.07874013 18.9721295,9.13647597 C19.1165138,9.26758445 19.2495151,9.41072122 19.3873092,9.54904668 C21.4943609,11.6642233 23.6020118,13.7793999 25.7090037,15.895178 C26.0954862,16.2824893 26.0972835,16.6884444 25.7126582,17.0745528" id="Fill-1" fill="#FFFFFF"></path>
                    <circle id="Oval" stroke="#FFFFFF" cx="18" cy="18" r="18"></circle>
                </g>
            </g>
        </g>
    </g>
</svg>