<?xml version="1.0" encoding="UTF-8"?>
<svg width="48px" height="46px" viewBox="0 0 48 46" version="1.1" xmlns="http://www.w3.org/2000/svg" xmlns:xlink="http://www.w3.org/1999/xlink">
    <!-- Generator: Sketch 52.6 (67491) - http://www.bohemiancoding.com/sketch -->
    <title>Twitter</title>
    <desc>Created with Sketch.</desc>
    <defs>
        <polygon id="path-1" points="0 0 27.0335101 0 27.0335101 21.6998051 0 21.6998051"></polygon>
    </defs>
    <g id="The-New-Normal---Web" stroke="none" stroke-width="1" fill="none" fill-rule="evenodd">
        <g id="Share-Entire-Website" transform="translate(-652.000000, -357.000000)">
            <g id="Group-6" transform="translate(405.000000, 232.000000)">
                <g id="Group-5">
                    <g id="Group-4">
                        <g id="Social-Share" transform="translate(157.000000, 125.000000)">
                            <g id="Group-8">
                                <g id="Twitter" transform="translate(90.864476, -0.000000)">
                                    <ellipse id="Oval-Copy" fill="#FFFFFF" cx="23.3471224" cy="23" rx="23.3471224" ry="23"></ellipse>
                                    <g id="Group-3" transform="translate(9.830367, 12.912281)">
                                        <mask id="mask-2" fill="white">
                                            <use xlink:href="#path-1"></use>
                                        </mask>
                                        <g id="Clip-2"></g>
                                        <path d="M8.50185668,21.6998051 C18.7035873,21.6998051 24.2825691,13.3521652 24.2825691,6.11355679 C24.2825691,5.87634968 24.277595,5.64031738 24.2667815,5.40545991 C25.349532,4.63221385 26.2909507,3.6674719 27.0335101,2.56901392 C26.0397543,3.00497945 24.9703044,3.2988984 23.8484092,3.43143961 C24.9934452,2.75335408 25.8726866,1.68020816 26.2872741,0.401148096 C25.2154452,1.02860951 24.0288857,1.48508101 22.7655506,1.73083228 C21.753412,0.666123715 20.3120876,0 18.716996,0 C15.6537626,0 13.1698056,2.45334742 13.1698056,5.47765803 C13.1698056,5.90764265 13.2186824,6.32566545 13.3137326,6.72670674 C8.70428441,6.49783018 4.61669319,4.31789573 1.88153983,1.00329745 C1.40477494,1.81264257 1.13043778,2.75335408 1.13043778,3.75665152 C1.13043778,5.65719209 2.10959544,7.33494381 3.598499,8.31645366 C2.68876367,8.28879195 1.83396066,8.04186586 1.08642705,7.63121239 C1.08523757,7.65406801 1.08523757,7.67703043 1.08523757,7.70106086 C1.08523757,10.3542347 2.99737946,12.5692002 5.53497114,13.0714897 C5.06912783,13.1967684 4.57895426,13.2642672 4.07288493,13.2642672 C3.71560863,13.2642672 3.36806443,13.2292362 3.03025234,13.1653686 C3.73626231,15.3417786 5.78368043,16.9255446 8.21162375,16.9701878 C6.31299867,18.439569 3.92171294,19.3151313 1.32302528,19.3151313 C0.875564829,19.3151313 0.434051775,19.2898192 0,19.2393019 C2.45465254,20.7929498 5.36909286,21.6998051 8.50185668,21.6998051" id="Fill-1" fill="#C7282C" mask="url(#mask-2)"></path>
                                    </g>
                                </g>
                            </g>
                        </g>
                    </g>
                </g>
            </g>
        </g>
    </g>
</svg>