<?xml version="1.0" encoding="UTF-8"?>
<svg width="24px" height="36px" viewBox="0 0 24 36" version="1.1" xmlns="http://www.w3.org/2000/svg" xmlns:xlink="http://www.w3.org/1999/xlink">
    <!-- Generator: Sketch 52.6 (67491) - http://www.bohemiancoding.com/sketch -->
    <title>Group 596</title>
    <desc>Created with Sketch.</desc>
    <g id="The-New-Normal---Web" stroke="none" stroke-width="1" fill="none" fill-rule="evenodd" stroke-linecap="round" stroke-linejoin="round">
        <g id="Home" transform="translate(-709.000000, -695.000000)" stroke="#FFFFFF">
            <g id="Group-596" transform="translate(710.000000, 696.000000)">
                <path d="M22,25.1304348 C22,30.0086957 18.0414667,34 13.2,34 L8.8,34 C3.96,34 0,30.0086957 0,25.1304348 L0,8.86956522 C0,3.99130435 3.96,0 8.8,0 L13.2,0 C18.0414667,0 22,3.99130435 22,8.86956522 L22,25.1304348 L22,25.1304348 Z" id="Stroke-1903"></path>
                <path d="M12,9.5 C12,10.325 11.3265,11 10.5,11 C9.675,11 9,10.325 9,9.5 L9,6.5 C9,5.675 9.675,5 10.5,5 C11.3265,5 12,5.675 12,6.5 L12,9.5 L12,9.5 Z" id="Stroke-1904"></path>
            </g>
        </g>
    </g>
</svg>