<?xml version="1.0" encoding="UTF-8"?>
<svg width="80px" height="83px" viewBox="0 0 80 83" version="1.1" xmlns="http://www.w3.org/2000/svg" xmlns:xlink="http://www.w3.org/1999/xlink">
    <!-- Generator: Sketch 52.6 (67491) - http://www.bohemiancoding.com/sketch -->
    <title>Geoleaf</title>
    <desc>Created with Sketch.</desc>
    <g id="The-New-Normal---Web---v2.6" stroke="none" stroke-width="1" fill="none" fill-rule="evenodd">
        <g id="Home" transform="translate(-681.000000, -332.000000)" fill="#C7282C">
            <g id="Geoleaf" transform="translate(681.000000, 332.000000)">
                <polygon id="Fill-1" points="39.4591287 -2.48689958e-13 32.4324324 34.6677158 39.4591287 63.7837838 46.4864865 34.6677158"></polygon>
                <polygon id="Fill-2" points="38.9189189 75.7465961 40.5401937 82.1621622 40.5408874 82.1621622 42.1621622 75.7465961 40.5401937 68.1081081"></polygon>
                <polygon id="Fill-3" points="38.9189189 64.8648649 27.2014388 38.7153967 8.64864865 22.7027027 17.732246 45.1822912"></polygon>
                <polygon id="Fill-4" points="16.2145484 62.5358538 38.9189189 65.9459459 19.3173612 54.0781369 1.3500312e-13 51.8918919"></polygon>
                <polygon id="Fill-5" points="25.2940942 67.9015792 15.1351351 73.5135135 26.690224 73.2033838 38.9189189 67.027027"></polygon>
                <polygon id="Fill-6" points="62.26823 45.1826008 71.3513514 22.7027027 52.7988244 38.7158081 41.0810811 64.8648649"></polygon>
                <polygon id="Fill-7" points="60.6826388 54.0781369 41.0810811 65.9459459 63.7854516 62.5358538 80 51.8918919"></polygon>
                <polygon id="Fill-8" points="41.0810811 67.027027 53.3104371 73.2033838 64.8648649 73.5135135 54.7059058 67.9015792"></polygon>
            </g>
        </g>
    </g>
</svg>