<?xml version="1.0" encoding="UTF-8"?>
<svg width="62px" height="62px" viewBox="0 0 62 62" version="1.1" xmlns="http://www.w3.org/2000/svg" xmlns:xlink="http://www.w3.org/1999/xlink">
    <!-- Generator: Sketch 52 (66869) - http://www.bohemiancoding.com/sketch -->
    <title>AWESOME ICON Copy</title>
    <desc>Created with Sketch.</desc>
    <defs>
        <rect id="path-1" x="0" y="0" width="60" height="60" rx="13"></rect>
    </defs>
    <g id="Icon-Template" stroke="none" stroke-width="1" fill="none" fill-rule="evenodd">
        <g id="preview-black" transform="translate(-199.000000, -200.000000)">
            <g id="AWESOME-ICON-Copy" transform="translate(200.000000, 201.000000)">
                <mask id="mask-2" fill="white">
                    <use xlink:href="#path-1"></use>
                </mask>
                <use id="Mask" stroke="#D2D2D2" xlink:href="#path-1"></use>
                <g id="app-icon-QA" mask="url(#mask-2)">
                    <rect id="bg" fill="#FFFFFF" x="0" y="0" width="60" height="60"></rect>
                    <g id="QA-Icon" transform="translate(5.000000, 9.000000)" stroke-width="1">
                        <g>
                            <polygon id="Fill-1" fill="#7C7C7C" points="16.8507 0.9996 16.5217 1.9896 16.9867 2.1456 17.2027 1.4936 17.8827 1.4936 17.8827 0.9996"></polygon>
                            <path d="M16.0132,5.0723 L15.5482,4.9163 L16.0342,3.4523 L16.4992,3.6083 L16.0132,5.0723 Z M15.0392,8.0013 L14.5752,7.8443 L15.0622,6.3803 L15.5272,6.5363 L15.0392,8.0013 Z M14.0652,10.9283 L13.6012,10.7703 L14.0882,9.3063 L14.5532,9.4653 L14.0652,10.9283 Z M13.0922,13.8543 L12.6272,13.6983 L13.1142,12.2353 L13.5782,12.3913 L13.0922,13.8543 Z" id="Fill-2" fill="#7C7C7C"></path>
                            <polygon id="Fill-3" fill="#7C7C7C" points="12.1001 16.835 11.5951 15.318 12.0601 15.162 12.1001 15.284 12.1401 15.162 12.6051 15.318"></polygon>
                            <path d="M8.19,5.0723 L7.703,3.6083 L8.168,3.4523 L8.655,4.9163 L8.19,5.0723 Z M9.163,8.0003 L8.676,6.5363 L9.141,6.3803 L9.627,7.8433 L9.163,8.0003 Z M10.135,10.9273 L9.65,9.4633 L10.115,9.3063 L10.6,10.7713 L10.135,10.9273 Z M11.109,13.8543 L10.623,12.3913 L11.086,12.2353 L11.574,13.6983 L11.109,13.8543 Z" id="Fill-4" fill="#7C7C7C"></path>
                            <polygon id="Fill-5" fill="#7C7C7C" points="6.3198 0.9996 6.3198 1.4936 6.9998 1.4936 7.2158 2.1456 7.6818 1.9896 7.3518 0.9996"></polygon>
                            <polygon id="Fill-6" fill="#7C7C7C" points="2.84 1.494 4.581 1.494 4.581 1 2.84 1"></polygon>
                            <polygon id="Fill-7" fill="#7C7C7C" points="0 0.9996 0 2.1106 0.49 2.1106 0.49 1.4936 1.101 1.4936 1.101 0.9996"></polygon>
                            <path d="M0,5.483 L0.49,5.483 L0.49,3.797 L0,3.797 L0,5.483 Z M0,8.856 L0.49,8.856 L0.49,7.17 L0,7.17 L0,8.856 Z M0,12.227 L0.49,12.227 L0.49,10.542 L0,10.542 L0,12.227 Z M0,15.599 L0.49,15.599 L0.49,13.913 L0,13.913 L0,15.599 Z M0,18.972 L0.49,18.972 L0.49,17.286 L0,17.286 L0,18.972 Z M0,22.343 L0.49,22.343 L0.49,20.658 L0,20.658 L0,22.343 Z M0,25.714 L0.49,25.714 L0.49,24.029 L0,24.029 L0,25.714 Z M0,29.087 L0.49,29.087 L0.49,27.401 L0,27.401 L0,29.087 Z M0,32.459 L0.49,32.459 L0.49,30.773 L0,30.773 L0,32.459 Z M0,35.831 L0.49,35.831 L0.49,34.145 L0,34.145 L0,35.831 Z M0,39.203 L0.49,39.203 L0.49,37.518 L0,37.518 L0,39.203 Z" id="Fill-8" fill="#7C7C7C"></path>
                            <polygon id="Fill-9" fill="#7C7C7C" points="0 40.8885 0 41.9995 1.101 41.9995 1.101 41.5055 0.49 41.5055 0.49 40.8885"></polygon>
                            <polygon id="Fill-10" fill="#7C7C7C" points="2.764 42 4.426 42 4.426 41.506 2.764 41.506"></polygon>
                            <polygon id="Fill-11" fill="#7C7C7C" points="6.6996 40.8885 6.6996 41.5055 6.0886 41.5055 6.0886 41.9995 7.1896 41.9995 7.1896 40.8885"></polygon>
                            <path d="M6.7,21.638 L7.19,21.638 L7.19,19.888 L6.7,19.888 L6.7,21.638 Z M6.7,25.139 L7.19,25.139 L7.19,23.388 L6.7,23.388 L6.7,25.139 Z M6.7,28.639 L7.19,28.639 L7.19,26.889 L6.7,26.889 L6.7,28.639 Z M6.7,32.139 L7.19,32.139 L7.19,30.389 L6.7,30.389 L6.7,32.139 Z M6.7,35.638 L7.19,35.638 L7.19,33.888 L6.7,33.888 L6.7,35.638 Z M6.7,39.139 L7.19,39.139 L7.19,37.388 L6.7,37.388 L6.7,39.139 Z" id="Fill-12" fill="#7C7C7C"></path>
                            <polygon id="Fill-13" fill="#7C7C7C" points="6.6996 18.1392 6.9746 18.1392 6.9846 18.1722 7.0836 18.1392 7.1896 18.1392 7.1896 18.1032 7.4496 18.0172 6.6996 15.7642"></polygon>
                            <path d="M7.9966,21.2158 L7.4906,19.6948 L7.9556,19.5378 L8.4616,21.0598 L7.9966,21.2158 Z M9.0096,24.2608 L8.5026,22.7388 L8.9676,22.5808 L9.4746,24.1028 L9.0096,24.2608 Z M10.0206,27.3028 L9.5156,25.7808 L9.9796,25.6238 L10.4856,27.1458 L10.0206,27.3028 Z M11.0326,30.3468 L10.5266,28.8248 L10.9916,28.6678 L11.4976,30.1898 L11.0326,30.3468 Z" id="Fill-14" fill="#7C7C7C"></path>
                            <polygon id="Fill-15" fill="#7C7C7C" points="12.3326 32.8564 11.8666 32.8564 11.5386 31.8694 12.0026 31.7114 12.0996 32.0044 12.1966 31.7114 12.6616 31.8694"></polygon>
                            <path d="M16.2056,21.2168 L15.7406,21.0588 L16.2476,19.5368 L16.7126,19.6958 L16.2056,21.2168 Z M15.1926,24.2608 L14.7276,24.1028 L15.2346,22.5798 L15.6996,22.7378 L15.1926,24.2608 Z M14.1816,27.3028 L13.7166,27.1458 L14.2226,25.6238 L14.6866,25.7808 L14.1816,27.3028 Z M13.1686,30.3468 L12.7036,30.1898 L13.2096,28.6678 L13.6746,28.8248 L13.1686,30.3468 Z" id="Fill-16" fill="#7C7C7C"></path>
                            <polygon id="Fill-17" fill="#7C7C7C" points="16.7526 18.0159 17.0136 18.1029 17.0136 18.1389 17.1186 18.1389 17.2166 18.1739 17.2266 18.1389 17.5026 18.1389 17.5026 15.7689"></polygon>
                            <path d="M17.014,21.638 L17.503,21.638 L17.503,19.888 L17.014,19.888 L17.014,21.638 Z M17.014,25.139 L17.503,25.139 L17.503,23.389 L17.014,23.389 L17.014,25.139 Z M17.014,28.639 L17.503,28.639 L17.503,26.889 L17.014,26.889 L17.014,28.639 Z M17.014,32.139 L17.503,32.139 L17.503,30.389 L17.014,30.389 L17.014,32.139 Z M17.014,35.638 L17.503,35.638 L17.503,33.887 L17.014,33.887 L17.014,35.638 Z M17.014,39.139 L17.503,39.139 L17.503,37.388 L17.014,37.388 L17.014,39.139 Z" id="Fill-18" fill="#7C7C7C"></path>
                            <polygon id="Fill-19" fill="#7C7C7C" points="17.0136 40.8885 17.0136 41.9995 18.1156 41.9995 18.1156 41.5055 17.5026 41.5055 17.5026 40.8885"></polygon>
                            <polygon id="Fill-20" fill="#7C7C7C" points="19.776 42 21.437 42 21.437 41.506 19.776 41.506"></polygon>
                            <polygon id="Fill-21" fill="#7C7C7C" points="23.7105 40.8885 23.7105 41.5055 23.0985 41.5055 23.0985 41.9995 24.2005 41.9995 24.2005 40.8885"></polygon>
                            <path d="M23.71,5.482 L24.2,5.482 L24.2,3.796 L23.71,3.796 L23.71,5.482 Z M23.71,8.855 L24.2,8.855 L24.2,7.169 L23.71,7.169 L23.71,8.855 Z M23.71,12.226 L24.2,12.226 L24.2,10.541 L23.71,10.541 L23.71,12.226 Z M23.71,15.598 L24.2,15.598 L24.2,13.912 L23.71,13.912 L23.71,15.598 Z M23.71,18.971 L24.2,18.971 L24.2,17.285 L23.71,17.285 L23.71,18.971 Z M23.71,22.342 L24.2,22.342 L24.2,20.657 L23.71,20.657 L23.71,22.342 Z M23.71,25.714 L24.2,25.714 L24.2,24.028 L23.71,24.028 L23.71,25.714 Z M23.71,29.086 L24.2,29.086 L24.2,27.4 L23.71,27.4 L23.71,29.086 Z M23.71,32.458 L24.2,32.458 L24.2,30.772 L23.71,30.772 L23.71,32.458 Z M23.71,35.831 L24.2,35.831 L24.2,34.145 L23.71,34.145 L23.71,35.831 Z M23.71,39.202 L24.2,39.202 L24.2,37.516 L23.71,37.516 L23.71,39.202 Z" id="Fill-22" fill="#7C7C7C"></path>
                            <polygon id="Fill-23" fill="#7C7C7C" points="23.0985 0.9996 23.0985 1.4936 23.7105 1.4936 23.7105 2.1106 24.2005 2.1106 24.2005 0.9996"></polygon>
                            <polygon id="Fill-24" fill="#7C7C7C" points="19.622 1.494 21.36 1.494 21.36 1 19.622 1"></polygon>
                            <polygon id="Fill-25" fill="#7C7C7C" points="42.4449 0.9996 42.1159 1.9896 42.5809 2.1456 42.7969 1.4936 43.4769 1.4936 43.4769 0.9996"></polygon>
                            <path d="M41.607,5.0723 L41.142,4.9163 L41.629,3.4523 L42.094,3.6083 L41.607,5.0723 Z M40.633,8.0013 L40.17,7.8443 L40.656,6.3803 L41.121,6.5363 L40.633,8.0013 Z M39.66,10.9283 L39.195,10.7703 L39.682,9.3063 L40.147,9.4653 L39.66,10.9283 Z M38.686,13.8543 L38.221,13.6983 L38.708,12.2353 L39.172,12.3913 L38.686,13.8543 Z" id="Fill-26" fill="#7C7C7C"></path>
                            <polygon id="Fill-27" fill="#7C7C7C" points="37.6949 16.835 37.1899 15.318 37.6539 15.162 37.6949 15.284 37.7349 15.162 38.1999 15.318"></polygon>
                            <path d="M33.7837,5.0723 L33.2977,3.6083 L33.7617,3.4523 L34.2487,4.9163 L33.7837,5.0723 Z M34.7577,8.0003 L34.2697,6.5363 L34.7347,6.3803 L35.2217,7.8433 L34.7577,8.0003 Z M35.7297,10.9273 L35.2437,9.4633 L35.7087,9.3063 L36.1937,10.7713 L35.7297,10.9273 Z M36.7027,13.8543 L36.2167,12.3913 L36.6807,12.2353 L37.1677,13.6983 L36.7027,13.8543 Z" id="Fill-28" fill="#7C7C7C"></path>
                            <polygon id="Fill-29" fill="#7C7C7C" points="31.914 0.9996 31.914 1.4936 32.594 1.4936 32.81 2.1456 33.275 1.9896 32.945 0.9996"></polygon>
                            <polygon id="Fill-30" fill="#7C7C7C" points="28.436 1.494 30.175 1.494 30.175 1 28.436 1"></polygon>
                            <polygon id="Fill-31" fill="#7C7C7C" points="25.5942 0.9996 25.5942 2.1106 26.0842 2.1106 26.0842 1.4936 26.6962 1.4936 26.6962 0.9996"></polygon>
                            <path d="M25.594,5.483 L26.084,5.483 L26.084,3.797 L25.594,3.797 L25.594,5.483 Z M25.594,8.856 L26.084,8.856 L26.084,7.17 L25.594,7.17 L25.594,8.856 Z M25.594,12.227 L26.084,12.227 L26.084,10.542 L25.594,10.542 L25.594,12.227 Z M25.594,15.599 L26.084,15.599 L26.084,13.913 L25.594,13.913 L25.594,15.599 Z M25.594,18.972 L26.084,18.972 L26.084,17.286 L25.594,17.286 L25.594,18.972 Z M25.594,22.343 L26.084,22.343 L26.084,20.658 L25.594,20.658 L25.594,22.343 Z M25.594,25.714 L26.084,25.714 L26.084,24.029 L25.594,24.029 L25.594,25.714 Z M25.594,29.087 L26.084,29.087 L26.084,27.401 L25.594,27.401 L25.594,29.087 Z M25.594,32.459 L26.084,32.459 L26.084,30.773 L25.594,30.773 L25.594,32.459 Z M25.594,35.831 L26.084,35.831 L26.084,34.145 L25.594,34.145 L25.594,35.831 Z M25.594,39.203 L26.084,39.203 L26.084,37.518 L25.594,37.518 L25.594,39.203 Z" id="Fill-32" fill="#7C7C7C"></path>
                            <polygon id="Fill-33" fill="#7C7C7C" points="25.5942 40.8885 25.5942 41.9995 26.6962 41.9995 26.6962 41.5055 26.0842 41.5055 26.0842 40.8885"></polygon>
                            <polygon id="Fill-34" fill="#7C7C7C" points="28.358 42 30.02 42 30.02 41.506 28.358 41.506"></polygon>
                            <polygon id="Fill-35" fill="#7C7C7C" points="32.2938 40.8885 32.2938 41.5055 31.6818 41.5055 31.6818 41.9995 32.7838 41.9995 32.7838 40.8885"></polygon>
                            <path d="M32.294,21.638 L32.784,21.638 L32.784,19.888 L32.294,19.888 L32.294,21.638 Z M32.294,25.139 L32.784,25.139 L32.784,23.388 L32.294,23.388 L32.294,25.139 Z M32.294,28.639 L32.784,28.639 L32.784,26.889 L32.294,26.889 L32.294,28.639 Z M32.294,32.139 L32.784,32.139 L32.784,30.389 L32.294,30.389 L32.294,32.139 Z M32.294,35.638 L32.784,35.638 L32.784,33.888 L32.294,33.888 L32.294,35.638 Z M32.294,39.139 L32.784,39.139 L32.784,37.388 L32.294,37.388 L32.294,39.139 Z" id="Fill-36" fill="#7C7C7C"></path>
                            <polygon id="Fill-37" fill="#7C7C7C" points="32.2938 18.1392 32.5688 18.1392 32.5778 18.1722 32.6768 18.1392 32.7838 18.1392 32.7838 18.1032 33.0438 18.0172 32.2938 15.7642"></polygon>
                            <path d="M33.5904,21.2158 L33.0844,19.6948 L33.5494,19.5378 L34.0554,21.0598 L33.5904,21.2158 Z M34.6034,24.2608 L34.0964,22.7388 L34.5614,22.5808 L35.0684,24.1028 L34.6034,24.2608 Z M35.6144,27.3028 L35.1094,25.7808 L35.5734,25.6238 L36.0794,27.1458 L35.6144,27.3028 Z M36.6264,30.3468 L36.1204,28.8248 L36.5854,28.6678 L37.0914,30.1898 L36.6264,30.3468 Z" id="Fill-38" fill="#7C7C7C"></path>
                            <polygon id="Fill-39" fill="#7C7C7C" points="37.9273 32.8564 37.4613 32.8564 37.1323 31.8694 37.5973 31.7114 37.6943 32.0044 37.7913 31.7114 38.2553 31.8694"></polygon>
                            <path d="M41.7993,21.2168 L41.3343,21.0588 L41.8413,19.5368 L42.3063,19.6958 L41.7993,21.2168 Z M40.7863,24.2608 L40.3213,24.1028 L40.8283,22.5798 L41.2933,22.7378 L40.7863,24.2608 Z M39.7753,27.3028 L39.3103,27.1458 L39.8163,25.6238 L40.2803,25.7808 L39.7753,27.3028 Z M38.7623,30.3468 L38.2973,30.1898 L38.8033,28.6678 L39.2683,28.8248 L38.7623,30.3468 Z" id="Fill-40" fill="#7C7C7C"></path>
                            <polygon id="Fill-41" fill="#7C7C7C" points="42.3459 18.0159 42.6069 18.1029 42.6069 18.1389 42.7119 18.1389 42.8109 18.1739 42.8219 18.1389 43.0969 18.1389 43.0969 15.7689"></polygon>
                            <path d="M42.607,21.638 L43.098,21.638 L43.098,19.888 L42.607,19.888 L42.607,21.638 Z M42.607,25.139 L43.098,25.139 L43.098,23.389 L42.607,23.389 L42.607,25.139 Z M42.607,28.639 L43.098,28.639 L43.098,26.889 L42.607,26.889 L42.607,28.639 Z M42.607,32.139 L43.098,32.139 L43.098,30.389 L42.607,30.389 L42.607,32.139 Z M42.607,35.638 L43.098,35.638 L43.098,33.887 L42.607,33.887 L42.607,35.638 Z M42.607,39.139 L43.098,39.139 L43.098,37.388 L42.607,37.388 L42.607,39.139 Z" id="Fill-42" fill="#7C7C7C"></path>
                            <polygon id="Fill-43" fill="#7C7C7C" points="42.6069 40.8885 42.6069 41.9995 43.7089 41.9995 43.7089 41.5055 43.0969 41.5055 43.0969 40.8885"></polygon>
                            <polygon id="Fill-44" fill="#7C7C7C" points="45.37 42 47.031 42 47.031 41.506 45.37 41.506"></polygon>
                            <polygon id="Fill-45" fill="#7C7C7C" points="49.3038 40.8885 49.3038 41.5055 48.6928 41.5055 48.6928 41.9995 49.7938 41.9995 49.7938 40.8885"></polygon>
                            <path d="M49.304,5.482 L49.795,5.482 L49.795,3.796 L49.304,3.796 L49.304,5.482 Z M49.304,8.855 L49.795,8.855 L49.795,7.169 L49.304,7.169 L49.304,8.855 Z M49.304,12.226 L49.795,12.226 L49.795,10.541 L49.304,10.541 L49.304,12.226 Z M49.304,15.598 L49.795,15.598 L49.795,13.912 L49.304,13.912 L49.304,15.598 Z M49.304,18.971 L49.795,18.971 L49.795,17.285 L49.304,17.285 L49.304,18.971 Z M49.304,22.342 L49.795,22.342 L49.795,20.657 L49.304,20.657 L49.304,22.342 Z M49.304,25.714 L49.795,25.714 L49.795,24.028 L49.304,24.028 L49.304,25.714 Z M49.304,29.086 L49.795,29.086 L49.795,27.4 L49.304,27.4 L49.304,29.086 Z M49.304,32.458 L49.795,32.458 L49.795,30.772 L49.304,30.772 L49.304,32.458 Z M49.304,35.831 L49.795,35.831 L49.795,34.145 L49.304,34.145 L49.304,35.831 Z M49.304,39.202 L49.795,39.202 L49.795,37.516 L49.304,37.516 L49.304,39.202 Z" id="Fill-46" fill="#7C7C7C"></path>
                            <polygon id="Fill-47" fill="#7C7C7C" points="48.6927 0.9996 48.6927 1.4936 49.3037 1.4936 49.3037 2.1106 49.7947 2.1106 49.7947 0.9996"></polygon>
                            <polygon id="Fill-48" fill="#7C7C7C" points="45.215 1.494 46.955 1.494 46.955 1 45.215 1"></polygon>
                            <polygon id="Fill-49" fill="#94070A" points="29.952 0.9996 24.924 15.9846 19.898 0.9996 12.823 0.9996 12.823 41.9746 19.661 41.9746 19.661 17.2136 24.865 32.7256 24.981 32.7256 30.187 17.2136 30.187 41.9746 37.023 41.9746 37.023 0.9996"></polygon>
                        </g>
                    </g>
                </g>
            </g>
        </g>
    </g>
</svg>