<?xml version="1.0" encoding="UTF-8"?>
<svg width="399px" height="188px" viewBox="0 0 399 188" version="1.1" xmlns="http://www.w3.org/2000/svg" xmlns:xlink="http://www.w3.org/1999/xlink">
    <!-- Generator: Sketch 52 (66869) - http://www.bohemiancoding.com/sketch -->
    <title>Group 2</title>
    <desc>Created with Sketch.</desc>
    <defs>
        <polygon id="path-1" points="0 0.001 21 0.001 21 14.0009 0 14.0009"></polygon>
        <polygon id="path-3" points="0 0 24 0 24 24 0 24"></polygon>
        <polygon id="path-5" points="0 4.66666667 17.9998759 4.66666667 17.9998759 20 0 20"></polygon>
    </defs>
    <g id="Page-1" stroke="none" stroke-width="1" fill="none" fill-rule="evenodd">
        <g id="Artboard" transform="translate(-93.000000, -82.000000)">
            <g id="Group-2" transform="translate(93.000000, 82.000000)">
                <g id="Hamburger_Menu" transform="translate(0.000000, 2.000000)" fill="#222222">
                    <rect id="Rectangle" x="0" y="0" width="24" height="2.7" rx="1"></rect>
                    <rect id="Rectangle" x="0" y="8" width="24" height="2.7" rx="1"></rect>
                    <rect id="Rectangle" x="0" y="16" width="24" height="2.7" rx="1"></rect>
                </g>
                <g id="Group-4" transform="translate(2.000000, 79.000000)" fill="#222222" stroke="#222222" stroke-width="0.5">
                    <path d="M14.9991667,12.5 C13.6208333,12.5 12.4991667,13.6216667 12.4991667,15 C12.4991667,16.3783333 13.6208333,17.5 14.9991667,17.5 C16.3775,17.5 17.4991667,16.3783333 17.4991667,15 C17.4991667,13.6216667 16.3775,12.5 14.9991667,12.5 M14.9991667,18.3333333 C13.1608333,18.3333333 11.6658333,16.8383333 11.6658333,15 C11.6658333,13.1616667 13.1608333,11.6666667 14.9991667,11.6666667 C16.8375,11.6666667 18.3325,13.1616667 18.3325,15 C18.3325,16.8383333 16.8375,18.3333333 14.9991667,18.3333333" id="Fill-2725"></path>
                    <path d="M0.416666667,20 C0.306666667,20 0.2,19.9558333 0.121666667,19.8783333 C0.0441666667,19.8 0,19.6941667 0,19.5833333 C0,16.9808333 0.888333333,15.4941667 2.715,15.0375 L5.90666667,14.24 L6.19666667,13.0791667 C5.39166667,12.2475 4.83666667,11.1225 4.66416667,9.9775 C4.14333333,9.87583333 3.73,9.44833333 3.6625,8.905 L3.45416667,7.23833333 C3.40916667,6.8825 3.52,6.525 3.75666667,6.25583333 C3.90833333,6.08416667 4.10333333,5.95916667 4.3175,5.89166667 C4.2575,5.38333333 4.16666667,4.54083333 4.16666667,4.16666667 C4.16666667,2.55833333 4.65,0.909166667 8.2,0.835 C9.44333333,0 10.7791667,0 11.3583333,0 C12.8283333,0 13.89,0.484166667 14.515,1.43833333 C15.3283333,2.68083333 14.94,3.53666667 14.47,4.03583333 L14.1583333,4.3475 L14.0816667,5.91666667 C14.2725,5.98916667 14.445,6.10666667 14.5816667,6.26333333 C14.815,6.53083333 14.9241667,6.88583333 14.88,7.23833333 L14.6716667,8.905 C14.6075,9.41416667 14.2408333,9.82166667 13.7666667,9.95416667 C13.7175,10.2825 13.6333333,10.6191667 13.5166667,10.9583333 C13.4408333,11.1766667 13.2033333,11.2916667 12.9866667,11.2166667 C12.7691667,11.1416667 12.6533333,10.9041667 12.7283333,10.6866667 C12.8633333,10.2966667 12.9466667,9.91416667 12.975,9.55083333 C12.9916667,9.33416667 13.1733333,9.16666667 13.39,9.16666667 C13.6408333,9.16666667 13.8191667,9.01 13.845,8.80166667 L14.0533333,7.135 C14.0675,7.01666667 14.0325,6.90166667 13.9541667,6.81166667 C13.875,6.72083333 13.765,6.67 13.6433333,6.66833333 C13.5308333,6.6675 13.4225,6.62 13.3458333,6.5375 C13.2675,6.45583333 13.2266667,6.345 13.2325,6.23166667 L13.3341667,4.14666667 C13.3391667,4.04333333 13.3825,3.945 13.455,3.87166667 L13.8716667,3.455 C14.1333333,3.1775 14.3716667,2.74 13.8175,1.895 C13.3566667,1.19083333 12.53,0.833333333 11.3583333,0.833333333 C10.5041667,0.833333333 9.50666667,0.923333333 8.57583333,1.58916667 C8.50666667,1.63833333 8.4225,1.66583333 8.3375,1.66666667 C5.255,1.6975 5,2.86666667 5,4.16666667 C5,4.57416667 5.14,5.77083333 5.19333333,6.19833333 C5.20916667,6.31666667 5.17166667,6.43583333 5.0925,6.52583333 C5.01416667,6.615 4.9,6.66666667 4.78,6.66666667 L4.69416667,6.66666667 C4.5725,6.66666667 4.46166667,6.71666667 4.38166667,6.8075 C4.30166667,6.89833333 4.26583333,7.01416667 4.28083333,7.135 L4.48916667,8.80166667 C4.515,9.01 4.6925,9.16666667 4.9025,9.16666667 L5.0375,9.16666667 C5.255,9.16666667 5.43583333,9.33333333 5.45333333,9.55 C5.545,10.6983333 6.10166667,11.8558333 6.94416667,12.645 C7.05333333,12.7483333 7.09916667,12.9033333 7.0625,13.05 L6.65416667,14.6841667 C6.61666667,14.8333333 6.5,14.95 6.35083333,14.9875 L2.9175,15.8458333 C1.58833333,16.1783333 0.9225,17.2375 0.841666667,19.1666667 L14.965,19.165 C15.195,19.165 15.3816667,19.3516667 15.3816667,19.5816667 C15.3816667,19.8116667 15.1958333,19.9983333 14.965,19.9983333 L0.416666667,20 Z" id="Fill-2726"></path>
                    <path d="M19.5825,20 C19.4758333,20 19.3691667,19.9591667 19.2883333,19.8783333 L16.7883333,17.3783333 C16.625,17.215 16.625,16.9516667 16.7883333,16.7883333 C16.9508333,16.6258333 17.2141667,16.6258333 17.3775,16.7883333 L19.8775,19.2883333 C20.04,19.4516667 20.04,19.715 19.8775,19.8783333 C19.7958333,19.9591667 19.6891667,20 19.5825,20" id="Fill-2727"></path>
                </g>
                <g id="icon_calendar" transform="translate(2.000000, 156.000000)" fill="#222222" fill-rule="nonzero">
                    <g id="calendar">
                        <path d="M17.65625,1.5625 C16.7946875,1.5625 16.4821875,1.5625 16.71875,1.5625 L16.71875,0 L15.15625,0 L15.15625,1.5625 L4.84375,1.5625 L4.84375,0 C4.47399293,0 4.2071602,0 4.04325181,0 C3.87934342,0 3.62534282,0 3.28125,0 L3.28125,1.5625 L2.34375,1.5625 C1.05140625,1.5625 0,2.61390625 0,3.90625 L0,17.65625 C0,18.9485938 1.05140625,20 2.34375,20 L17.65625,20 C18.9485938,20 20,18.9485938 20,17.65625 L20,3.90625 C20,2.61390625 18.9485938,1.5625 17.65625,1.5625 Z M18.4375,17.65625 C18.4375,18.0870313 18.0870313,18.4375 17.65625,18.4375 L2.34375,18.4375 C1.91296875,18.4375 1.5625,18.0870313 1.5625,17.65625 L1.5625,7.34375 L18.4375,7.34375 L18.4375,17.65625 Z M18.4375,5.78125 L1.5625,5.78125 L1.5625,3.90625 C1.5625,3.47546875 1.91296875,3.125 2.34375,3.125 L3.28125,3.125 L3.28125,4.6875 L4.84375,4.6875 L4.84375,3.125 L15.15625,3.125 L15.15625,4.6875 L16.71875,4.6875 L16.71875,3.125 L17.65625,3.125 C18.0870313,3.125 18.4375,3.47546875 18.4375,3.90625 L18.4375,5.78125 Z" id="Shape"></path>
                        <polygon id="Rectangle-path" points="2.92682927 9.26829268 4.3902439 9.26829268 4.3902439 10.7317073 2.92682927 10.7317073"></polygon>
                        <polygon id="Rectangle-path" points="5.85365854 9.26829268 7.31707317 9.26829268 7.31707317 10.7317073 5.85365854 10.7317073"></polygon>
                        <polygon id="Rectangle-path" points="9.26829268 9.26829268 10.7317073 9.26829268 10.7317073 10.7317073 9.26829268 10.7317073"></polygon>
                        <polygon id="Rectangle-path" points="12.195122 9.26829268 13.6585366 9.26829268 13.6585366 10.7317073 12.195122 10.7317073"></polygon>
                        <polygon id="Rectangle-path" points="15.6097561 9.26829268 17.0731707 9.26829268 17.0731707 10.7317073 15.6097561 10.7317073"></polygon>
                        <polygon id="Rectangle-path" points="2.92682927 12.195122 4.3902439 12.195122 4.3902439 13.6585366 2.92682927 13.6585366"></polygon>
                        <polygon id="Rectangle-path" points="5.85365854 12.195122 7.31707317 12.195122 7.31707317 13.6585366 5.85365854 13.6585366"></polygon>
                        <polygon id="Rectangle-path" points="9.26829268 12.195122 10.7317073 12.195122 10.7317073 13.6585366 9.26829268 13.6585366"></polygon>
                        <polygon id="Rectangle-path" points="12.195122 12.195122 13.6585366 12.195122 13.6585366 13.6585366 12.195122 13.6585366"></polygon>
                        <polygon id="Rectangle-path" points="2.92682927 15.1219512 4.3902439 15.1219512 4.3902439 16.5853659 2.92682927 16.5853659"></polygon>
                        <rect id="Rectangle-path" x="5.85365854" y="15.1219512" width="1.46341463" height="1.46341463"></rect>
                        <polygon id="Rectangle-path" points="9.26829268 15.1219512 10.7317073 15.1219512 10.7317073 16.5853659 9.26829268 16.5853659"></polygon>
                        <polygon id="Rectangle-path" points="12.195122 15.1219512 13.6585366 15.1219512 13.6585366 16.5853659 12.195122 16.5853659"></polygon>
                        <polygon id="Rectangle-path" points="15.6097561 12.195122 17.0731707 12.195122 17.0731707 13.6585366 15.6097561 13.6585366"></polygon>
                    </g>
                </g>
                <g id="search" transform="translate(64.000000, 1.000000)" fill="#222222" fill-rule="nonzero">
                    <path d="M19.5497059,17.3722262 L15.9359804,13.7596805 C16.926634,12.3399503 17.5120588,10.6175024 17.5120588,8.7561633 C17.5120588,3.92026334 13.5918627,0 8.75604575,0 C3.92022876,0 0,3.92026334 0,8.7561633 C0,13.5920633 3.92019608,17.5123266 8.75601307,17.5123266 C10.6173203,17.5123266 12.3397386,16.9269244 13.7594444,15.9362211 L17.3719281,19.5487668 C17.9735948,20.1504111 18.9480392,20.1504111 19.5497059,19.5487668 C20.150098,18.9483316 20.150098,17.9739031 19.5497059,17.3722262 Z M8.75601307,15.0105517 C5.30238562,15.0105517 2.50173203,12.20985 2.50173203,8.7561633 C2.50173203,5.30247659 5.3024183,2.50177495 8.75601307,2.50177495 C12.2096405,2.50177495 15.0102941,5.30250928 15.0102941,8.7561633 C15.0102941,12.20985 12.2096405,15.0105517 8.75601307,15.0105517 Z" id="Shape"></path>
                </g>
                <g id="stethoscope" transform="translate(64.000000, 79.000000)" fill="#222222" fill-rule="nonzero">
                    <circle id="Oval" cx="17.2601096" cy="8.04383562" r="1.0739726"></circle>
                    <path d="M17.2601096,5.34794521 C15.7696986,5.34794521 14.5642192,6.55342466 14.5642192,8.04383562 C14.5642192,9.40273973 15.5724384,10.5205479 16.865589,10.7178082 L16.865589,14.0054795 C16.865589,16.8767123 14.5423014,19.2219178 11.6929863,19.2219178 C8.84367123,19.2219178 6.52038356,16.8767123 6.52038356,14.0054795 L6.52038356,11.5945205 C9.58887671,11.3315068 11.9998356,8.76712329 11.9998356,5.63287671 C11.9998356,4.20821918 11.495726,2.84931507 10.5751781,1.77534247 C10.6847671,1.6 10.7505205,1.40273973 10.7505205,1.18356164 C10.7505205,0.526027397 10.2244932,9.73346213e-16 9.5669589,9.73346213e-16 C8.90942466,9.73346213e-16 8.38339726,0.526027397 8.38339726,1.18356164 C8.38339726,1.84109589 8.90942466,2.36712329 9.5669589,2.36712329 C9.72038356,2.36712329 9.87380822,2.34520548 10.0053151,2.27945205 C10.7943562,3.22191781 11.2327123,4.38356164 11.2327123,5.63287671 C11.2327123,8.50410959 8.88750685,10.8493151 6.01627397,10.8493151 C3.1450411,10.8493151 0.799835616,8.50410959 0.799835616,5.63287671 C0.799835616,4.36164384 1.26010959,3.15616438 2.07106849,2.23561644 C2.24641096,2.32328767 2.42175342,2.36712329 2.6190137,2.36712329 C3.27654795,2.36712329 3.80257534,1.84109589 3.80257534,1.18356164 C3.80257534,0.526027397 3.27654795,0 2.6190137,0 C1.96147945,0 1.43545205,0.526027397 1.43545205,1.18356164 C1.43545205,1.35890411 1.47928767,1.51232877 1.5450411,1.66575342 C0.580657534,2.76164384 0.0327123288,4.14246575 0.0327123288,5.63287671 C0.0327123288,8.85479452 2.57517808,11.4630137 5.75326027,11.5945205 L5.75326027,13.9835616 C5.75326027,17.2931507 8.42723288,19.9671233 11.6929863,19.9671233 C14.9587397,19.9671233 17.6327123,17.2931507 17.6327123,13.9835616 L17.6327123,10.6958904 C18.925863,10.4986301 19.9340822,9.38082192 19.9340822,8.02191781 C19.956,6.55342466 18.7286027,5.34794521 17.2601096,5.34794521 Z M17.2601096,9.95068493 C16.2080548,9.95068493 15.3532603,9.09589041 15.3532603,8.04383562 C15.3532603,6.99178082 16.2080548,6.1369863 17.2601096,6.1369863 C18.3121644,6.1369863 19.1669589,6.99178082 19.1669589,8.04383562 C19.1669589,9.09589041 18.3121644,9.95068493 17.2601096,9.95068493 Z" id="Shape" stroke="#222222" stroke-width="0.5"></path>
                </g>
                <g id="CTA_Close" transform="translate(67.000000, 159.000000)" fill="#222222" fill-rule="nonzero">
                    <path d="M9.28272779,7.50003521 L14.6307791,2.15197763 C15.1230736,1.65968251 15.1230736,0.861516466 14.6307791,0.369291771 C14.1384845,-0.123003352 13.3403899,-0.123003352 12.8480953,0.369291771 L7.49997359,5.71741978 L2.15185186,0.369221343 C1.65955731,-0.123073781 0.861462634,-0.123073781 0.369168088,0.369221343 C-0.123056029,0.861516466 -0.123056029,1.65968251 0.369168088,2.1519072 L5.71728982,7.49996479 L0.369168088,12.8480928 C-0.123056029,13.3403879 -0.123056029,14.138554 0.369168088,14.6307787 C0.861462634,15.1230738 1.65955731,15.1230738 2.15185186,14.6307787 L7.49997359,9.28265065 L12.8480953,14.6307787 C13.3403194,15.1230738 14.1384845,15.1230738 14.6307791,14.6307787 C15.1230736,14.1384835 15.1230736,13.3403879 14.6307791,12.8480928 L9.28272779,7.50003521 Z" id="Shape"></path>
                </g>
                <g id="Group-5" transform="translate(126.000000, 79.000000)" fill="#222222" stroke="#222222" stroke-width="0.5">
                    <path d="M14.9991667,12.5 C13.6208333,12.5 12.4991667,13.6216667 12.4991667,15 C12.4991667,16.3783333 13.6208333,17.5 14.9991667,17.5 C16.3775,17.5 17.4991667,16.3783333 17.4991667,15 C17.4991667,13.6216667 16.3775,12.5 14.9991667,12.5 M14.9991667,18.3333333 C13.1608333,18.3333333 11.6658333,16.8383333 11.6658333,15 C11.6658333,13.1616667 13.1608333,11.6666667 14.9991667,11.6666667 C16.8375,11.6666667 18.3325,13.1616667 18.3325,15 C18.3325,16.8383333 16.8375,18.3333333 14.9991667,18.3333333" id="Fill-8419"></path>
                    <path d="M19.5825,20 C19.4758333,20 19.3691667,19.9591667 19.2875,19.8783333 L16.7875,17.3783333 C16.625,17.215 16.625,16.9516667 16.7875,16.7883333 C16.9508333,16.6258333 17.2141667,16.6258333 17.3775,16.7883333 L19.8775,19.2883333 C20.04,19.4516667 20.04,19.715 19.8775,19.8783333 C19.7958333,19.9591667 19.6891667,20 19.5825,20" id="Fill-8421"></path>
                    <path d="M9.58333333,20 C9.35333333,20 9.16666667,19.8133333 9.16666667,19.5833333 L9.16666667,0.416666667 C9.16666667,0.186666667 9.35333333,0 9.58333333,0 C9.81333333,0 10,0.186666667 10,0.416666667 L10,19.5833333 C10,19.8133333 9.81333333,20 9.58333333,20" id="Fill-8423"></path>
                    <path d="M5.41666667,10.8333333 C5.31,10.8333333 5.20333333,10.7925 5.12166667,10.7116667 L4.58333333,10.1725 L4.045,10.7116667 C3.88166667,10.8741667 3.61833333,10.8741667 3.455,10.7116667 L2.62166667,9.87833333 C2.54416667,9.8 2.5,9.69416667 2.5,9.58333333 L2.5,2.5 C2.5,2.27 2.68666667,2.08333333 2.91666667,2.08333333 C3.14666667,2.08333333 3.33333333,2.27 3.33333333,2.5 L3.33333333,9.41083333 L3.75,9.8275 L4.28833333,9.28833333 C4.45166667,9.12583333 4.715,9.12583333 4.87833333,9.28833333 L5.41666667,9.8275 L5.83333333,9.41083333 L5.83333333,1.66666667 C5.83333333,1.43666667 6.02,1.25 6.25,1.25 C6.48,1.25 6.66666667,1.43666667 6.66666667,1.66666667 L6.66666667,9.58333333 C6.66666667,9.69416667 6.6225,9.8 6.545,9.87833333 L5.71166667,10.7116667 C5.63,10.7925 5.52333333,10.8333333 5.41666667,10.8333333" id="Fill-8429"></path>
                    <path d="M9.58333333,20 C9.54666667,20 9.50916667,19.995 9.47333333,19.985 L0.306666667,17.485 C0.125833333,17.4358333 0,17.2716667 0,17.0833333 L0,2.91666667 C0,2.72833333 0.125833333,2.56416667 0.306666667,2.515 L9.47333333,0.015 C9.545,-0.005 9.62166667,-0.005 9.69333333,0.015 L18.86,2.515 C19.0408333,2.56416667 19.1666667,2.72833333 19.1666667,2.91666667 L19.1666667,12.375 C19.1666667,12.605 18.98,12.7916667 18.75,12.7916667 C18.52,12.7916667 18.3333333,12.605 18.3333333,12.375 L18.3333333,3.235 L9.58333333,0.848333333 L0.833333333,3.235 L0.833333333,16.765 L9.58333333,19.1516667 L12.3341667,18.4016667 C12.56,18.3383333 12.7858333,18.4725 12.8458333,18.6941667 C12.9058333,18.9158333 12.7758333,19.145 12.5533333,19.205 L9.69333333,19.985 C9.6575,19.995 9.62,20 9.58333333,20" id="Fill-8431"></path>
                </g>
                <g id="Zoomin" transform="translate(126.000000, 1.000000)">
                    <g id="search">
                        <circle id="Oval" fill="#FFFFFF" cx="9" cy="9" r="7"></circle>
                        <path d="M19.5497059,17.3722262 L15.9359804,13.7596805 C16.926634,12.3399503 17.5120588,10.6175024 17.5120588,8.7561633 C17.5120588,3.92026334 13.5918627,0 8.75604575,0 C3.92022876,0 0,3.92026334 0,8.7561633 C0,13.5920633 3.92019608,17.5123266 8.75601307,17.5123266 C10.6173203,17.5123266 12.3397386,16.9269244 13.7594444,15.9362211 L17.3719281,19.5487668 C17.9735948,20.1504111 18.9480392,20.1504111 19.5497059,19.5487668 C20.150098,18.9483316 20.150098,17.9739031 19.5497059,17.3722262 Z M8.75601307,15.0105517 C5.30238562,15.0105517 2.50173203,12.20985 2.50173203,8.7561633 C2.50173203,5.30247659 5.3024183,2.50177495 8.75601307,2.50177495 C12.2096405,2.50177495 15.0102941,5.30250928 15.0102941,8.7561633 C15.0102941,12.20985 12.2096405,15.0105517 8.75601307,15.0105517 Z" id="Shape" fill="#222222" fill-rule="nonzero"></path>
                    </g>
                    <path d="M7.67857143,7.67857143 L7.67857143,6.07142857 C7.67857143,5.47969491 8.15826634,5 8.75,5 C9.34173366,5 9.82142857,5.47969491 9.82142857,6.07142857 L9.82142857,7.67857143 L11.4285714,7.67857143 C12.0203051,7.67857143 12.5,8.15826634 12.5,8.75 C12.5,9.34173366 12.0203051,9.82142857 11.4285714,9.82142857 L9.82142857,9.82142857 L9.82142857,11.4285714 C9.82142857,12.0203051 9.34173366,12.5 8.75,12.5 C8.15826634,12.5 7.67857143,12.0203051 7.67857143,11.4285714 L7.67857143,9.82142857 L6.07142857,9.82142857 C5.47969491,9.82142857 5,9.34173366 5,8.75 C5,8.15826634 5.47969491,7.67857143 6.07142857,7.67857143 L7.67857143,7.67857143 Z" id="Combined-Shape" fill="#222222"></path>
                </g>
                <path d="M148.238424,161.460913 L134.522349,175.234821 C133.506657,176.25506 131.859044,176.25506 130.84239,175.234821 L123.762058,168.123621 C122.745981,167.103381 122.745981,165.448512 123.762058,164.42808 C124.778327,163.407454 126.425811,163.407454 127.441631,164.427693 L132.682915,169.69151 L144.558273,157.76518 C145.574542,156.744554 147.222154,156.745327 148.238039,157.76518 C149.253923,158.785612 149.253923,160.439901 148.238424,161.460913 Z" id="Shape" fill="#222222" fill-rule="nonzero"></path>
                <path d="M203.866412,1.0009088 C198.34398,1.07482158 193.927425,5.6119789 194.000904,11.1345674 C194.074817,16.6547646 198.61159,21.0725745 204.133805,20.9990966 C209.655151,20.924749 214.072575,16.3875917 213.999096,10.865438 C213.925183,5.34480596 209.388192,0.927213421 203.866412,1.0009088 Z M203.836847,17.0869369 L203.781629,17.0860674 C202.931188,17.0608501 202.331618,16.4343306 202.355749,15.5965076 C202.379445,14.7730324 202.99358,14.1752085 203.815977,14.1752085 L203.865325,14.176078 C204.739462,14.2019475 205.332293,14.8221626 205.307727,15.684116 C205.283379,16.5099825 204.67881,17.0869369 203.836847,17.0869369 Z M207.414047,9.9871803 C207.214046,10.2713097 206.77426,10.6241345 206.220125,11.055872 L205.609903,11.4771748 C205.274901,11.7376087 205.072725,11.9826078 204.996855,12.2236939 C204.937072,12.4134758 204.907724,12.463693 204.902507,12.8497785 L204.901637,12.9478216 L202.57162,12.9478216 L202.578359,12.7506485 C202.606838,11.9402166 202.626838,11.4634792 202.96271,11.0695676 C203.48967,10.4508743 204.65207,9.70239873 204.701418,9.67065971 C204.867941,9.54522539 205.008377,9.40239983 205.112943,9.24979169 C205.35751,8.91261901 205.465772,8.6471852 205.465772,8.38631658 C205.465772,8.02436139 205.35838,7.68958 205.145987,7.39153761 C204.941855,7.10392997 204.554026,6.95827833 203.993152,6.95827833 C203.436844,6.95827833 203.055971,7.13479942 202.828144,7.49697201 C202.593794,7.86936195 202.475315,8.26044748 202.475315,8.66001124 L202.475315,8.7593587 L200.072906,8.7593587 L200.077253,8.65566342 C200.13921,7.18414707 200.664432,6.12458572 201.6377,5.50632711 C202.249226,5.1126329 203.010101,4.91306841 203.897934,4.91306841 C205.060117,4.91306841 206.041211,5.19545868 206.813608,5.75241317 C207.596223,6.31675893 207.993182,7.16197323 207.993182,8.2645779 C207.993182,8.88131477 207.798398,9.46066048 207.414047,9.9871803 Z" id="Question-Mark" fill="#222222" fill-rule="nonzero"></path>
                <g id="Transaction" transform="translate(189.000000, 79.000000)">
                    <path d="M16.6504,19.0888 C16.1604,19.5738 13.4004,20.1768 12.5894,19.9518 L5.0954,18.5458 C5.2164,17.9498 5.4214,16.8738 5.6164,15.5988 L5.9804,13.6068 C6.6004,12.4568 8.1804,11.9428 9.5004,11.9428 C9.6294,11.9428 9.7594,11.8898 9.8504,11.7958 L13.3194,8.3258 C13.4604,8.2058 13.8594,8.0448 14.1204,8.2728 L14.2994,8.4728 C14.6094,8.7848 14.8304,9.2898 14.6094,9.6298 L12.6004,12.1488 C12.5094,12.2688 12.3904,12.3878 12.2804,12.5128 C11.9304,12.8848 11.5004,13.3488 11.5004,13.9428 L11.5004,14.4428 C11.5004,15.0798 11.7704,15.6528 12.2904,16.0988 C13.0604,16.7728 14.3794,17.1078 15.5004,16.9428 L18.0004,16.9638 L19.8394,16.9528 L16.6504,19.0888 Z M1.0004,11.9768 C2.3594,12.0298 4.2404,12.2418 4.9804,12.6748 C4.8844,13.6638 4.7504,14.6518 4.6124,15.5408 L4.0504,18.6318 C3.3874,19.0158 2.0354,19.7008 1.0004,19.8918 L1.0004,11.9768 Z M21.5004,15.9428 L18.0004,15.9638 L15.4304,15.9478 C14.5204,16.0768 13.5004,15.8288 12.9404,15.3438 C12.6504,15.0898 12.5004,14.7868 12.5004,14.4428 L12.5004,13.9428 C12.5004,13.7418 12.7804,13.4398 13.0094,13.1948 C13.1604,13.0388 13.2904,12.8868 13.3904,12.7548 L15.4204,10.2198 C15.9004,9.4978 15.7304,8.4878 15.0304,7.7898 L14.8304,7.5658 C14.1404,6.9648 13.2104,7.1148 12.6504,7.5888 L9.2904,10.9468 C8.1844,10.9848 6.8414,11.3338 5.8904,12.1548 C5.8734,12.1308 5.8624,12.1018 5.8394,12.0798 C4.7704,11.0588 1.2104,10.9718 0.5004,10.9638 C0.3594,10.9678 0.2404,11.0148 0.1504,11.1088 C0.0494,11.2028 0.0004,11.3298 0.0004,11.4638 L0.0004,20.4428 C0.0004,20.7188 0.2194,20.9428 0.5004,20.9428 C1.9554,20.9428 4.0044,19.8138 4.5934,19.4688 L12.3594,20.9238 C12.5404,20.9748 12.7904,20.9988 13.0694,20.9988 C14.4204,20.9988 16.6794,20.4668 17.2804,19.8598 L21.7804,16.8598 C21.9604,16.7358 22.0404,16.5078 21.9804,16.2958 C21.9104,16.0868 21.7194,15.9428 21.5004,15.9428 Z" id="Fill-1" stroke="#222222" stroke-width="0.25" fill="#222222"></path>
                    <g id="Group-5" transform="translate(9.000000, 0.999000)">
                        <mask id="mask-2" fill="white">
                            <use xlink:href="#path-1"></use>
                        </mask>
                        <g id="Clip-4"></g>
                        <path d="M1,4.0009 L1,3.0009 C1,1.8799 1.88,1.0009 3,1.0009 L17.98,1.0009 C19.09,1.0009 20,1.9079 20,3.0219 L20,4.0009 L1,4.0009 Z M17.98,0.0009 L3,0.0009 C1.32,0.0009 0,1.3189 0,3.0009 L0,6.5009 C0,6.7769 0.22,7.0009 0.5,7.0009 C0.78,7.0009 1,6.7769 1,6.5009 L1,5.0009 L20,5.0009 L20,10.9799 C20,12.0939 19.09,13.0009 17.98,13.0009 L6.5,13.0009 C6.22,13.0009 6,13.2249 6,13.5009 C6,13.7769 6.22,14.0009 6.5,14.0009 L17.98,14.0009 C19.64,14.0009 21,12.6469 21,10.9799 L21,3.0219 C21,1.3569 19.64,0.0009 17.98,0.0009 Z" id="Fill-3" stroke="#222222" stroke-width="0.25" fill="#222222" mask="url(#mask-2)"></path>
                    </g>
                </g>
                <g id="Group" transform="translate(258.000000, 1.000000)" fill="#222222">
                    <path d="M10,20 C4.4771525,20 0,15.5228475 0,10 C0,4.4771525 4.4771525,0 10,0 C15.5228475,0 20,4.4771525 20,10 C20,15.5228475 15.5228475,20 10,20 Z M10.7923235,10.0000157 L13.1692352,7.62310117 C13.3880327,7.40430334 13.3880327,7.04956287 13.1692352,6.83079634 C12.9504376,6.61199851 12.5957288,6.61199851 12.3769313,6.83079634 L9.99998826,9.20774213 L7.62304527,6.83076504 C7.40424769,6.61196721 7.04953895,6.61196721 6.83074137,6.83076504 C6.6119751,7.04956287 6.6119751,7.40430334 6.83074137,7.62306987 L9.20768436,9.99998435 L6.83074137,12.3769301 C6.6119751,12.595728 6.6119751,12.9504684 6.83074137,13.169235 C7.04953895,13.3880328 7.40424769,13.3880328 7.62304527,13.169235 L9.99998826,10.7922892 L12.3769313,13.169235 C12.5956975,13.3880328 12.9504376,13.3880328 13.1692352,13.169235 C13.3880327,12.9504371 13.3880327,12.595728 13.1692352,12.3769301 L10.7923235,10.0000157 Z" id="Combined-Shape"></path>
                </g>
                <g id="leaf" transform="translate(258.000000, 79.000000)" fill="#222222">
                    <polygon id="Fill-1" points="9.72843636 1.6e-05 8.01158788 8.435696 9.72843636 15.520496 11.4454465 8.435696"></polygon>
                    <polygon id="Fill-2" points="9.35069091 18.296224 9.72838788 19.854944 9.72854949 19.854944 10.1062465 18.296224 9.72838788 16.440384"></polygon>
                    <polygon id="Fill-3" points="9.42831515 15.660896 6.64366869 9.352896 2.23461818 5.490176 4.39332525 10.912896"></polygon>
                    <polygon id="Fill-4" points="3.928 15.135136 9.42828283 15.959456 4.67967677 13.090656 -8.08080808e-05 12.562176"></polygon>
                    <polygon id="Fill-5" points="6.0971798 16.433072 3.61346263 17.767792 6.43851313 17.694032 9.42825051 16.225072"></polygon>
                    <polygon id="Fill-6" points="15.0637253 10.912928 17.2222707 5.490048 12.8133818 9.352928 10.0287354 15.660928"></polygon>
                    <polygon id="Fill-7" points="14.7773091 13.090624 10.028703 15.959424 15.5289859 15.135104 19.4570667 12.562144"></polygon>
                    <polygon id="Fill-8" points="10.0286869 16.225104 13.0185859 17.694064 15.8434747 17.767824 13.3597576 16.433104"></polygon>
                </g>
                <g id="Plus" transform="translate(379.000000, 1.000000)" fill="#222222">
                    <path d="M10,20 C4.4771525,20 0,15.5228475 0,10 C0,4.4771525 4.4771525,0 10,0 C15.5228475,0 20,4.4771525 20,10 C20,15.5228475 15.5228475,20 10,20 Z M8.82352941,9.41176471 L5.88235294,9.41176471 C5.23260618,9.41176471 4.70588235,9.93848853 4.70588235,10.5882353 C4.70588235,11.2379821 5.23260618,11.7647059 5.88235294,11.7647059 L8.82352941,11.7647059 L8.82352941,14.7058824 C8.82352941,15.3556291 9.35025324,15.8823529 10,15.8823529 C10.6497468,15.8823529 11.1764706,15.3556291 11.1764706,14.7058824 L11.1764706,11.7647059 L14.1176471,11.7647059 C14.7673938,11.7647059 15.2941176,11.2379821 15.2941176,10.5882353 C15.2941176,9.93848853 14.7673938,9.41176471 14.1176471,9.41176471 L11.1764706,9.41176471 L11.1764706,6.47058824 C11.1764706,5.82084147 10.6497468,5.29411765 10,5.29411765 C9.35025324,5.29411765 8.82352941,5.82084147 8.82352941,6.47058824 L8.82352941,9.41176471 Z" id="Combined-Shape"></path>
                </g>
                <path d="M398.584457,93.283571 L391.519415,80.4204652 C390.384297,78.5277692 387.617226,78.5252544 386.480585,80.4204652 L379.415894,93.283571 C378.255503,95.2175867 379.660386,97.6666667 381.934723,97.6666667 L396.065042,97.6666667 C398.337465,97.6666667 399.744848,95.2195598 398.584457,93.283571 Z M389,94.701659 C388.353984,94.701659 387.828124,94.18083 387.828124,93.5409943 C387.828124,92.9011585 388.353984,92.3803295 389,92.3803295 C389.646016,92.3803295 390.171875,92.9011585 390.171875,93.5409943 C390.171875,94.18083 389.646016,94.701659 389,94.701659 Z M390.171875,90.1597143 C390.171875,90.7496638 389.646016,91.2298851 389,91.2298851 C388.353984,91.2298851 387.828124,90.7496638 387.828124,90.1597143 L387.828124,84.8088604 C387.828124,84.218911 388.353984,83.7386897 389,83.7386897 C389.646016,83.7386897 390.171875,84.218911 390.171875,84.8088604 L390.171875,90.1597143 Z" id="Shape" fill="#222222" fill-rule="nonzero"></path>
                <g id="Group-3" transform="translate(318.000000, 0.000000)">
                    <path d="M11,22 C4.92486775,22 0,17.0751322 0,11 C0,4.92486775 4.92486775,0 11,0 C17.0751322,0 22,4.92486775 22,11 C22,17.0751322 17.0751322,22 11,22 Z M15.245283,15.1801242 C15.245283,15.6944099 14.8226415,16.1118012 14.3018868,16.1118012 L7.69811321,16.1118012 C7.17735849,16.1118012 6.75471698,15.6944099 6.75471698,15.1801242 L6.75471698,10.5217391 C6.75471698,10.0074534 7.17735849,9.59006211 7.69811321,9.59006211 L14.3018868,9.59006211 C14.8226415,9.59006211 15.245283,10.0074534 15.245283,10.5217391 L15.245283,15.1801242 Z M8.78301887,8.8447205 L8.78301887,6.60869565 C8.78301887,5.58198758 9.63018868,4.74534161 10.6698113,4.74534161 L11.4245283,4.74534161 C12.4641509,4.74534161 13.3113208,5.58198758 13.3113208,6.60869565 L13.3113208,8.94451032 C13.3113208,8.94451032 14.0660377,8.94451032 14.0660377,8.94451032 L14.0660377,6.60869565 C14.0660377,5.17018634 12.8811321,4 11.4245283,4 L10.6698113,4 C9.21320755,4 8.02830189,5.17018634 8.02830189,6.60869565 L8.02830189,8.8447205 L7.69811321,8.8447205 C6.76226415,8.8447205 6,9.59751553 6,10.5217391 L6,15.1801242 C6,16.1043478 6.76226415,16.8571429 7.69811321,16.8571429 L14.3018868,16.8571429 C15.2377358,16.8571429 16,16.1043478 16,15.1801242 L16,10.5217391 C16,9.59751553 15.2377358,8.8447205 14.3018868,8.8447205 L8.78301887,8.8447205 Z M12.0714286,12.1974206 C12.0714286,11.6160714 11.5929089,11.1428571 11.0001008,11.1428571 C10.4070911,11.1428571 9.92857143,11.6160714 9.92857143,12.1974206 C9.92857143,12.5724206 10.1263085,12.8980159 10.4238212,13.0855159 L10.4238212,14.1446429 C10.4238212,14.4565476 10.6832377,14.7142857 11.0001008,14.7142857 C11.3167623,14.7142857 11.5761788,14.4565476 11.5761788,14.1446429 L11.5761788,13.0855159 C11.8738931,12.8980159 12.0714286,12.5724206 12.0714286,12.1974206 Z" id="Combined-Shape" fill="#222222" fill-rule="nonzero"></path>
                    <g id="Group-5" transform="translate(6.000000, 4.000000)"></g>
                </g>
                <g id="barcode" transform="translate(319.000000, 79.000000)" fill="#222222" fill-rule="nonzero" stroke="#222222" stroke-width="0.5">
                    <path d="M4.21877197,3.75 C3.96001793,3.75 3.75,3.95632989 3.75,4.21054005 L3.75,13.4210389 C3.75,13.6752491 3.96001793,13.8815789 4.21877197,13.8815789 C4.47752602,13.8815789 4.6875,13.6752491 4.6875,13.4210389 L4.6875,4.21054005 C4.6875,3.95632989 4.47752602,3.75 4.21877197,3.75 Z" id="Shape"></path>
                    <path d="M10.468772,3.75 C10.2100179,3.75 10,3.9630433 10,4.22552478 L10,13.7357083 C10,13.9981897 10.2100179,14.211233 10.468772,14.211233 C10.727526,14.211233 10.9375,13.9981897 10.9375,13.7357083 L10.9375,4.22552478 C10.9375,3.9630433 10.727526,3.75 10.468772,3.75 Z" id="Shape"></path>
                    <path d="M6.71875,3.75 C6.46000809,3.75 6.25,3.97195683 6.25,4.24542028 L6.25,12.1719125 C6.25,12.445376 6.46000809,12.6673328 6.71875,12.6673328 C6.97749191,12.6673328 7.1875,12.4453295 7.1875,12.1718661 L7.1875,4.24542028 C7.1875,3.97195683 6.97749191,3.75 6.71875,3.75 Z" id="Shape"></path>
                    <path d="M12.96875,3.75 C12.7100081,3.75 12.5,3.97195683 12.5,4.24542028 L12.5,12.1719125 C12.5,12.445376 12.7100081,12.6673328 12.96875,12.6673328 C13.2274919,12.6673328 13.4375,12.445376 13.4375,12.1719125 L13.4375,4.24542028 C13.4374561,3.97195683 13.2274919,3.75 12.96875,3.75 Z" id="Shape"></path>
                    <path d="M15.46875,3.75 C15.2100081,3.75 15,3.95632989 15,4.21054005 L15,13.4210389 C15,13.6752491 15.2100081,13.8815789 15.46875,13.8815789 C15.7274919,13.8815789 15.9375,13.6752491 15.9375,13.4210389 L15.9375,4.21054005 C15.9375,3.95632989 15.7274919,3.75 15.46875,3.75 Z" id="Shape"></path>
                    <path d="M9.86842105,0.600328947 C9.60967914,0.600328947 9.39967105,0.900445148 9.39967105,1.27020539 L9.39967105,14.6672946 C9.39967105,15.0370549 9.60967914,15.3371711 9.86842105,15.3371711 C10.127163,15.3371711 10.3371711,15.0370549 10.3371711,14.6672946 L10.3371711,1.27020539 C10.3371711,0.900445148 10.127163,0.600328947 9.86842105,0.600328947 Z" id="Shape" transform="translate(9.868421, 7.968750) rotate(-90.000000) translate(-9.868421, -7.968750) "></path>
                    <path d="M4.10154877,0 L0.585951233,0 C0.26251626,0 0,0.206328569 0,0.460537109 L0,3.22367342 C0,3.47788196 0.26251626,3.68421053 0.585951233,3.68421053 C0.909386206,3.68421053 1.17190247,3.47788196 1.17190247,3.22367342 L1.17190247,0.921031045 L4.10154877,0.921031045 C4.42498374,0.921031045 4.6875,0.714702476 4.6875,0.460493935 C4.6875,0.206285395 4.42498374,0 4.10154877,0 Z" id="Shape"></path>
                    <path d="M4.10154877,16.5131363 L1.17184753,16.5131363 L1.17184753,14.2105371 C1.17184753,13.9563286 0.909331275,13.75 0.585896302,13.75 C0.262461328,13.75 0,13.9563286 0,14.2105371 L0,16.9736734 C0,17.227882 0.26251626,17.4342105 0.585951233,17.4342105 L4.10154877,17.4342105 C4.42498374,17.4342105 4.6875,17.227882 4.6875,16.9736734 C4.6875,16.7194649 4.42498374,16.5131363 4.10154877,16.5131363 Z" id="Shape"></path>
                    <path d="M19.1015488,0 L15.5859512,0 C15.2625163,0 15,0.206330987 15,0.460542506 C15,0.714754026 15.2625163,0.921041838 15.5859512,0.921041838 L18.5155975,0.921041838 L18.5155975,3.22366802 C18.5155975,3.47787954 18.7781138,3.68421053 19.1015488,3.68421053 C19.4249837,3.68421053 19.6875,3.47787954 19.6875,3.22366802 L19.6875,0.460499332 C19.6875,0.206330987 19.4249837,0 19.1015488,0 Z" id="Shape"></path>
                    <path d="M19.1015488,13.75 C18.7781138,13.75 18.5155975,13.9563286 18.5155975,14.2105371 L18.5155975,16.5131363 L15.5859512,16.5131363 C15.2625163,16.5131363 15,16.7194649 15,16.9736734 C15,17.227882 15.2625163,17.4342105 15.5859512,17.4342105 L19.1015488,17.4342105 C19.4249837,17.4342105 19.6875,17.227882 19.6875,16.9736734 L19.6875,14.2105371 C19.6875,13.9563286 19.4249837,13.75 19.1015488,13.75 Z" id="Shape"></path>
                </g>
                <g id="New-CTA-Profile" transform="translate(186.000000, 144.000000)">
                    <circle id="Oval-4" fill="#550505" cx="22" cy="22" r="22"></circle>
                    <g id="Group-3" stroke-width="1" transform="translate(10.000000, 10.000000)">
                        <mask id="mask-4" fill="white">
                            <use xlink:href="#path-3"></use>
                        </mask>
                        <g id="Clip-2"></g>
                        <path d="M19.3504,20.4296 L16.3808,19.1408 C15.368,18.7264 14.9192,17.1624 14.8328,16.572 C15.5256,15.9544 16.176,15.0168 16.176,14.1784 C16.176,13.7408 16.3448,13.6704 16.3248,13.6784 C16.4496,13.6464 16.5512,13.5592 16.6,13.4408 C16.6496,13.3184 17.0824,12.2352 17.0824,11.5112 C17.0824,11.4784 17.0784,11.4448 17.0696,11.4128 C17.0216,11.2192 16.8824,10.9344 16.6296,10.7784 L16.6296,8.4 C16.6296,6.9712 16.184,6.3968 15.716,6.0624 C15.64,5.3936 14.9096,4 12.1496,4 C9.3736,4 7.6696,6.5624 7.6696,8.4 L7.6696,10.7784 C7.4168,10.9344 7.2776,11.2192 7.2296,11.4128 C7.2208,11.4448 7.2168,11.4784 7.2168,11.5112 C7.2168,12.2352 7.6496,13.3184 7.7,13.4408 C7.748,13.5592 7.8248,13.64 7.9496,13.6704 C7.9568,13.6736 8.1232,13.7488 8.1232,14.1784 C8.1232,15.0168 8.7736,15.9544 9.4672,16.572 C9.38,17.1624 8.932,18.7264 7.9232,19.1392 L4.6528,20.428 C4.6512,20.428 4.6512,20.4296 4.6496,20.4304 C2.296,18.376 0.8,15.3624 0.8,12 C0.8,5.824 5.824,0.8 12,0.8 C18.1752,0.8 23.2,5.824 23.2,12 C23.2,15.3616 21.7032,18.3752 19.3504,20.4296 M12,0 C5.3824,0 0,5.3824 0,12 C0,18.6168 5.3824,24 12,24 C18.6168,24 24,18.6168 24,12 C24,5.3824 18.6168,0 12,0" id="Fill-1" fill="#FFFFFF" mask="url(#mask-4)"></path>
                    </g>
                </g>
                <g id="New-CTA-Order" transform="translate(247.000000, 144.000000)">
                    <circle id="Oval-4" fill="#550505" cx="22" cy="22" r="22"></circle>
                    <g id="Group-4" stroke-width="1" transform="translate(13.000000, 12.000000)">
                        <path d="M13.9653931,8 C13.7940828,8 13.6550483,7.85066667 13.6550483,7.66666667 L13.6550483,3 C13.6550483,1.798 12.2560138,0.666666667 11.1722897,0.666666667 L6.51711724,0.666666667 C5.40049655,0.666666667 4.34470345,1.80066667 4.34470345,3 L4.34470345,7.66666667 C4.34470345,7.85066667 4.20566897,8 4.03435862,8 C3.86304828,8 3.72401379,7.85066667 3.72401379,7.66666667 L3.72401379,3 C3.72401379,1.43 5.0553931,0 6.51711724,0 L11.1722897,0 C12.5694621,0 14.2757379,1.38466667 14.2757379,3 L14.2757379,7.66666667 C14.2757379,7.85066667 14.1367034,8 13.9653931,8" id="Fill-1" fill="#FFFFFF"></path>
                        <mask id="mask-6" fill="white">
                            <use xlink:href="#path-5"></use>
                        </mask>
                        <g id="Clip-4"></g>
                        <path d="M15.8274621,16.6666667 L2.17228966,16.6666667 C2.00097931,16.6666667 1.86194483,16.5173333 1.86194483,16.3333333 C1.86194483,16.1493333 2.00097931,16 2.17228966,16 L15.8274621,16 C15.9987724,16 16.1378069,16.1493333 16.1378069,16.3333333 C16.1378069,16.5173333 15.9987724,16.6666667 15.8274621,16.6666667 M17.689531,4.66666667 L14.8964276,4.66666667 L14.8964276,7.66666667 C14.8964276,8.218 14.4787034,8.66666667 13.9653931,8.66666667 C13.4520828,8.66666667 13.0343586,8.218 13.0343586,7.66666667 L13.0343586,4.66666667 L4.9653931,4.66666667 L4.9653931,7.66666667 C4.9653931,8.218 4.54766897,8.66666667 4.03435862,8.66666667 C3.52104828,8.66666667 3.10332414,8.218 3.10332414,7.66666667 L3.10332414,4.66666667 L0.31022069,4.66666667 C0.138910345,4.66666667 -0.000124137931,4.816 -0.000124137931,5 L-0.000124137931,19.6666667 C-0.000124137931,19.8506667 0.138910345,20 0.31022069,20 L17.689531,20 C17.8608414,20 17.9998759,19.8506667 17.9998759,19.6666667 L17.9998759,5 C17.9998759,4.816 17.8608414,4.66666667 17.689531,4.66666667" id="Fill-3" fill="#FFFFFF" mask="url(#mask-6)"></path>
                    </g>
                </g>
            </g>
        </g>
    </g>
</svg>