<?xml version="1.0" encoding="UTF-8"?>
<svg width="191px" height="52px" viewBox="0 0 191 52" version="1.1" xmlns="http://www.w3.org/2000/svg" xmlns:xlink="http://www.w3.org/1999/xlink">
    <!-- Generator: Sketch 52.2 (67145) - http://www.bohemiancoding.com/sketch -->
    <title>logo_ember</title>
    <desc>Created with Sketch.</desc>
    <defs>
        <polygon id="path-1" points="0.259475714 0.0269430052 36.7959186 0.0269430052 36.7959186 51.9998922 0.259475714 51.9998922"></polygon>
        <polygon id="path-3" points="0.135714286 0.0269430052 35.9742857 0.0269430052 35.9742857 51.9998922 0.135714286 51.9998922"></polygon>
    </defs>
    <g id="Page-1" stroke="none" stroke-width="1" fill="none" fill-rule="evenodd">
        <g id="logo_ember">
            <g id="Group-3" transform="translate(36.000000, 0.000000)">
                <g id="Fill-1-Clipped">
                    <g>
                        <mask id="mask-2" fill="white">
                            <use xlink:href="#path-1"></use>
                        </mask>
                        <g id="path-1"></g>
                        <path d="M18.59879,40.312286 L18.4431257,40.3133637 C15.97734,33.829799 12.6240829,27.3465036 10.1582971,20.8648249 C10.139621,20.8664415 10.1111662,31.2447972 10.0729329,51.9998922 L0.259475714,51.9998922 L0.259475714,0.0556642487 C0.364132857,0.0494673575 0.474075714,0.0357264249 0.585868571,0.0357264249 C3.74699,0.0338404145 6.90731857,0.0373430052 10.0668543,0.0295295337 C10.33669,0.0287212435 10.4466329,0.106586528 10.5330543,0.331291192 C12.8481971,6.43927047 16.0592686,12.5445554 18.3839257,18.6509181 C18.4169614,18.7376746 18.4558114,18.8206591 18.5184471,18.9685762 C18.5861043,18.8233534 18.6342043,18.7349803 18.6688257,18.6422964 C20.98344,12.5542549 24.1818257,6.46729119 26.4877186,0.377902591 C26.58339,0.124907772 26.7009971,0.0252186528 27.0215757,0.0268352332 C30.1472829,0.0400373057 33.2727257,0.0338404145 36.39764,0.0338404145 L36.7959186,0.0338404145 L36.7959186,51.9893845 L26.9827257,51.9893845 L26.9827257,20.841115 C24.42444,27.3184829 21.0688043,33.8149803 18.59879,40.312286 Z" id="Fill-1" fill="#FFFFFF" mask="url(#mask-2)"></path>
                    </g>
                </g>
            </g>
            <polygon id="Fill-4" fill="#FFFFFF" points="0 0 0 52 27 52 27 41.6970451 10.3212221 41.6970451 10.3212221 30.908056 27 30.908056 27 20.7673821 10.3212221 20.7673821 10.3212221 10.3029549 27 10.3029549 27 0"></polygon>
            <g id="Group-8" transform="translate(81.000000, 0.000000)">
                <g id="Fill-6-Clipped">
                    <g>
                        <mask id="mask-4" fill="white">
                            <use xlink:href="#path-3"></use>
                        </mask>
                        <g id="path-3"></g>
                        <path d="M34.2871429,30.0273326 C32.6,26.8642238 30.4297143,25.1625036 26.1717143,23.6216332 C30.0282857,20.2971358 31.4748571,17.6211565 31.4748571,13.2429181 C31.4748571,10.1614466 30.1085714,6.27033782 28.5814286,4.56727047 C25.6888571,1.3238715 21.8314286,0.0268352332 15.162,0.0268352332 L0.135714286,0.0268352332 L0.135714286,51.9998922 L17.412,51.9998922 C29.1448571,51.9998922 35.9742857,46.4057161 35.9742857,36.8382549 C35.9742857,34.405571 35.412,31.972887 34.2871429,30.0273326 Z M11.2251429,8.86441036 L11.2251429,8.78331192 L13.8762857,8.78331192 C17.6531429,8.78331192 20.4662857,10.9729699 20.4662857,13.8911668 C20.4662857,17.4589596 17.5725714,20.1349389 13.7957143,20.1349389 L11.2251429,20.1349389 L11.2251429,8.86441036 Z M15.2425714,43.2434155 L11.2251429,43.2434155 L11.2251429,28.972514 L15.8048571,28.972514 C21.3497143,28.972514 24.4031429,31.6487627 24.4031429,36.5133223 C24.4031429,40.9726591 21.2691429,43.2434155 15.2425714,43.2434155 Z" id="Fill-6" fill="#FFFFFF" fill-rule="nonzero" mask="url(#mask-4)"></path>
                    </g>
                </g>
            </g>
            <polygon id="Fill-9" fill="#FFFFFF" points="120 0 120 52 147 52 147 41.6970451 130.321488 41.6970451 130.321488 30.908056 147 30.908056 147 20.7673821 130.321488 20.7673821 130.321488 10.3029549 147 10.3029549 147 0"></polygon>
            <path d="M155,0 L155,52 L165.393401,52 L165.393401,31.8814723 L166.598417,31.8814723 L179.100061,52 L191,52 L177.518812,30.3395334 C181.510362,28.230959 182.941653,26.9329808 184.522903,23.769041 C185.803434,21.1736236 186.556167,18.2531052 186.556167,15.2503681 C186.556167,5.84049767 180.531621,0 170.890953,0 L155,0 Z M165.468915,9.24785899 L167.878948,9.24785899 C172.849239,9.24785899 175.862048,11.681804 175.862048,15.6568792 C175.862048,20.4438984 173.151029,22.7958942 167.727919,22.7958942 L165.468915,22.7958942 L165.468915,9.32872991 L165.468915,9.24785899 Z" id="Fill-11" fill="#FFFFFF" fill-rule="nonzero"></path>
        </g>
    </g>
</svg>