<?xml version="1.0" encoding="UTF-8"?>
<svg width="264px" height="82px" viewBox="0 0 264 82" version="1.1" xmlns="http://www.w3.org/2000/svg" xmlns:xlink="http://www.w3.org/1999/xlink">
    <!-- Generator: Sketch 52 (66869) - http://www.bohemiancoding.com/sketch -->
    <title>Group 3</title>
    <desc>Created with Sketch.</desc>
    <defs>
        <polygon id="path-1" points="0.0003 -0.0002 263.494 -0.0002 263.494 81.2487 0.0003 81.2487"></polygon>
    </defs>
    <g id="Page-1" stroke="none" stroke-width="1" fill="none" fill-rule="evenodd">
        <g id="Group-3">
            <mask id="mask-2" fill="white">
                <use xlink:href="#path-1"></use>
            </mask>
            <g id="Clip-2"></g>
            <path d="M259.7293,3.9088 C259.9043,3.8978 260.0593,3.8658 260.1953,3.8138 C260.3283,3.7628 260.4363,3.6788 260.5173,3.5628 C260.6013,3.4468 260.6403,3.2878 260.6403,3.0868 C260.6403,2.9158 260.6083,2.7778 260.5463,2.6728 C260.4833,2.5688 260.3963,2.4848 260.2883,2.4208 C260.1793,2.3578 260.0593,2.3148 259.9263,2.2928 C259.7913,2.2698 259.6503,2.2598 259.5003,2.2598 L258.4163,2.2598 L258.4163,3.9258 L259.1993,3.9258 C259.3763,3.9258 259.5543,3.9198 259.7293,3.9088 Z M257.8223,6.5658 L257.8223,1.7558 L259.6673,1.7558 C260.2113,1.7558 260.6083,1.8698 260.8603,2.0968 C261.1093,2.3248 261.2343,2.6548 261.2343,3.0868 C261.2343,3.2948 261.2023,3.4778 261.1383,3.6358 C261.0773,3.7918 260.9883,3.9238 260.8763,4.0318 C260.7633,4.1398 260.6353,4.2248 260.4903,4.2888 C260.3443,4.3518 260.1893,4.3988 260.0273,4.4288 L261.4583,6.5658 L260.7633,6.5658 L259.4113,4.4288 L258.4163,4.4288 L258.4163,6.5658 L257.8223,6.5658 Z M257.9273,0.8718 C257.4993,1.0578 257.1293,1.3118 256.8173,1.6328 C256.5013,1.9538 256.2573,2.3298 256.0833,2.7618 C255.9083,3.1958 255.8193,3.6608 255.8193,4.1598 C255.8193,4.6598 255.9083,5.1258 256.0833,5.5578 C256.2573,5.9918 256.5013,6.3678 256.8173,6.6878 C257.1293,7.0098 257.4993,7.2628 257.9273,7.4498 C258.3563,7.6358 258.8253,7.7288 259.3333,7.7288 C259.8333,7.7288 260.2953,7.6358 260.7243,7.4498 C261.1533,7.2628 261.5253,7.0098 261.8373,6.6878 C262.1513,6.3678 262.3973,5.9918 262.5773,5.5578 C262.7543,5.1258 262.8453,4.6598 262.8453,4.1598 C262.8453,3.6608 262.7543,3.1958 262.5773,2.7618 C262.3973,2.3298 262.1513,1.9538 261.8373,1.6328 C261.5253,1.3118 261.1533,1.0578 260.7243,0.8718 C260.2953,0.6858 259.8333,0.5928 259.3333,0.5928 C258.8253,0.5928 258.3563,0.6858 257.9273,0.8718 Z M260.9753,0.3178 C261.4833,0.5308 261.9243,0.8258 262.2963,1.2018 C262.6683,1.5778 262.9613,2.0198 263.1753,2.5278 C263.3873,3.0338 263.4943,3.5788 263.4943,4.1598 C263.4943,4.7498 263.3873,5.2958 263.1753,5.7998 C262.9613,6.3028 262.6683,6.7408 262.2963,7.1138 C261.9243,7.4858 261.4833,7.7798 260.9753,7.9918 C260.4703,8.2038 259.9203,8.3098 259.3333,8.3098 C258.7443,8.3098 258.1943,8.2038 257.6893,7.9918 C257.1813,7.7798 256.7403,7.4858 256.3683,7.1138 C255.9973,6.7408 255.7033,6.3028 255.4913,5.7998 C255.2773,5.2958 255.1703,4.7498 255.1703,4.1598 C255.1703,3.5788 255.2773,3.0338 255.4913,2.5278 C255.7033,2.0198 255.9973,1.5778 256.3683,1.2018 C256.7403,0.8258 257.1813,0.5308 257.6893,0.3178 C258.1943,0.1058 258.7443,-0.0002 259.3333,-0.0002 C259.9203,-0.0002 260.4703,0.1058 260.9753,0.3178 Z M210.1703,42.3268 C209.6243,37.3938 209.7133,30.1648 204.6243,30.1648 C200.4383,30.1648 199.4003,38.2688 199.1663,42.3268 L210.1703,42.3268 Z M199.1663,53.8848 C199.1663,59.1858 199.9353,69.1638 205.2293,69.2008 C208.4003,69.2288 208.9873,64.6548 209.9003,59.7208 L223.2643,59.7568 C222.4593,66.7678 217.9873,81.2198 204.8993,81.2198 C190.7963,81.2198 184.4333,66.1678 184.4333,49.4298 C184.4333,32.3388 191.1633,17.8808 204.7123,17.8808 C218.9003,17.8808 223.8053,34.0188 223.8053,49.7958 L223.8053,53.8848 L199.1663,53.8848 Z M134.0323,0.0148 L147.8753,0.0148 L157.7143,29.2998 L167.5493,0.0148 L181.3863,0.0148 L181.3863,80.0968 L168.0053,80.0968 L168.0053,31.7018 L157.8243,62.0188 L157.6013,62.0188 L147.4143,31.7018 L147.4143,80.0968 L134.0323,80.0968 L134.0323,0.0148 Z M76.3893,42.3268 C75.8433,37.3938 75.9343,30.1648 70.8423,30.1648 C66.6583,30.1648 65.6193,38.2688 65.3843,42.3268 L76.3893,42.3268 Z M65.3843,53.8848 C65.3843,59.1858 66.1473,69.1638 71.4433,69.2008 C74.6193,69.2288 75.2013,64.6548 76.1133,59.7208 L89.4843,59.7568 C88.6783,66.7678 84.2113,81.2198 71.1123,81.2198 C57.0213,81.2198 50.6513,66.1678 50.6513,49.4298 C50.6513,32.3388 57.3763,17.8808 70.9313,17.8808 C85.1183,17.8808 90.0293,34.0188 90.0293,49.7958 L90.0293,53.8848 L65.3843,53.8848 Z M0.0003,0.0148 L13.8443,0.0148 L23.6783,29.2998 L33.5183,0.0148 L47.3553,0.0148 L47.3553,80.0968 L33.9793,80.0968 L33.9793,31.7018 L23.7923,62.0188 L23.5643,62.0188 L13.3813,31.7018 L13.3813,80.0968 L0.0003,80.0968 L0.0003,0.0148 Z M117.1813,51.4948 L117.1813,47.3828 C117.1813,36.5158 115.2363,30.5608 111.8023,30.5608 C108.3743,30.5608 106.7783,36.5158 106.7783,47.3828 L106.7783,51.4948 C106.7783,62.4818 108.3743,68.3228 111.8023,68.3228 C115.2363,68.3228 117.1813,62.4818 117.1813,51.4948 Z M93.2753,52.1848 L93.2753,46.6928 C93.2753,24.8458 98.9923,17.6348 106.3103,17.6348 C112.2643,17.6348 115.0143,22.5518 117.0743,26.2148 L117.0743,0.0148 L130.5753,0.0148 L130.5753,80.0968 L117.0743,80.0968 L117.0743,72.4288 C115.1283,76.0978 112.2643,81.2488 106.3103,81.2488 C98.9923,81.2488 93.2753,74.2608 93.2753,52.1848 Z M227.2653,18.7828 L240.7663,18.7828 L240.7663,26.1008 C243.1673,21.4068 246.2593,17.6348 251.6333,17.6348 C259.4013,17.6348 263.4173,24.2698 263.4173,33.6468 L263.4173,80.0968 L249.9213,80.0968 L249.9213,36.7388 C249.9213,32.2778 248.2063,29.7558 245.4563,29.7558 C242.7113,29.7558 240.7663,32.2778 240.7663,36.7388 L240.7663,80.0968 L227.2653,80.0968 L227.2653,18.7828 Z" id="Fill-1" fill="#FFFFFF" mask="url(#mask-2)"></path>
        </g>
    </g>
</svg>