<?xml version="1.0" encoding="UTF-8"?>
<svg width="1215px" height="395px" viewBox="0 0 1215 395" version="1.1" xmlns="http://www.w3.org/2000/svg" xmlns:xlink="http://www.w3.org/1999/xlink">
    <!-- Generator: Sketch 52.2 (67145) - http://www.bohemiancoding.com/sketch -->
    <title>Group 9</title>
    <desc>Created with Sketch.</desc>
    <defs>
        <polygon id="path-1" points="0 0.4208 79.3855 0.4208 79.3855 91.2208 0 91.2208"></polygon>
        <polygon id="path-3" points="0.1448 0.8925 48.237 0.8925 48.237 64.7595 0.1448 64.7595"></polygon>
    </defs>
    <g id="Page-1" stroke="none" stroke-width="1" fill="none" fill-rule="evenodd">
        <g id="Group-9">
            <path d="M948.9189,17.7143 C949.6779,17.6663 950.3509,17.5273 950.9389,17.3033 C951.5159,17.0783 951.9849,16.7153 952.3379,16.2133 C952.7009,15.7113 952.8719,15.0223 952.8719,14.1513 C952.8719,13.4083 952.7329,12.8103 952.4669,12.3563 C952.1889,11.9023 951.8149,11.5383 951.3449,11.2603 C950.8739,10.9883 950.3509,10.8013 949.7729,10.7053 C949.1859,10.6093 948.5769,10.5613 947.9249,10.5613 L943.2229,10.5613 L943.2229,17.7893 L946.6209,17.7893 C947.3909,17.7893 948.1599,17.7623 948.9189,17.7143 Z M940.6479,29.2383 L940.6479,8.3753 L948.6509,8.3753 C951.0129,8.3753 952.7329,8.8723 953.8229,9.8553 C954.9019,10.8443 955.4469,12.2763 955.4469,14.1513 C955.4469,15.0543 955.3089,15.8443 955.0309,16.5283 C954.7639,17.2073 954.3789,17.7783 953.8979,18.2493 C953.4059,18.7193 952.8509,19.0873 952.2209,19.3653 C951.5899,19.6373 950.9169,19.8403 950.2119,19.9693 L956.4199,29.2383 L953.4059,29.2383 L947.5399,19.9693 L943.2229,19.9693 L943.2229,29.2383 L940.6479,29.2383 Z M941.1069,4.5453 C939.2479,5.3523 937.6459,6.4523 936.2879,7.8413 C934.9199,9.2353 933.8619,10.8653 933.1039,12.7403 C932.3449,14.6213 931.9599,16.6403 931.9599,18.8043 C931.9599,20.9733 932.3449,22.9933 933.1039,24.8683 C933.8619,26.7493 934.9199,28.3783 936.2879,29.7673 C937.6459,31.1623 939.2479,32.2623 941.1069,33.0693 C942.9669,33.8763 944.9969,34.2823 947.1979,34.2823 C949.3669,34.2823 951.3759,33.8763 953.2349,33.0693 C955.0949,32.2623 956.7089,31.1623 958.0649,29.7673 C959.4229,28.3783 960.4909,26.7493 961.2719,24.8683 C962.0409,22.9933 962.4369,20.9733 962.4369,18.8043 C962.4369,16.6403 962.0409,14.6213 961.2719,12.7403 C960.4909,10.8653 959.4229,9.2353 958.0649,7.8413 C956.7089,6.4523 955.0949,5.3523 953.2349,4.5453 C951.3759,3.7383 949.3669,3.3323 947.1979,3.3323 C944.9969,3.3323 942.9669,3.7383 941.1069,4.5453 Z M954.3259,2.1413 C956.5269,3.0653 958.4399,4.3423 960.0539,5.9773 C961.6669,7.6063 962.9389,9.5243 963.8679,11.7253 C964.7869,13.9213 965.2469,16.2823 965.2469,18.8043 C965.2469,21.3633 964.7869,23.7303 963.8679,25.9153 C962.9389,28.0953 961.6669,29.9973 960.0539,31.6163 C958.4399,33.2293 956.5269,34.5013 954.3259,35.4203 C952.1349,36.3443 949.7519,36.8033 947.1979,36.8033 C944.6449,36.8033 942.2619,36.3443 940.0699,35.4203 C937.8689,34.5013 935.9569,33.2293 934.3429,31.6163 C932.7299,29.9973 931.4579,28.0953 930.5389,25.9153 C929.6089,23.7303 929.1489,21.3633 929.1489,18.8043 C929.1489,16.2823 929.6089,13.9213 930.5389,11.7253 C931.4579,9.5243 932.7299,7.6063 934.3429,5.9773 C935.9569,4.3423 937.8689,3.0653 940.0699,2.1413 C942.2619,1.2223 944.6449,0.7623 947.1979,0.7623 C949.7519,0.7623 952.1349,1.2223 954.3259,2.1413 Z M819.2889,117.2393 C817.7739,103.5693 818.0229,83.5403 803.9179,83.5403 C792.3209,83.5403 789.4429,105.9943 788.7949,117.2393 L819.2889,117.2393 Z M788.7949,149.2633 C788.7949,163.9523 790.9269,191.6003 805.5969,191.7003 C814.3829,191.7793 816.0099,179.1033 818.5399,165.4323 L855.5719,165.5333 C853.3409,184.9613 840.9489,225.0023 804.6829,225.0023 C765.6039,225.0023 747.9719,183.2963 747.9719,136.9173 C747.9719,89.5623 766.6199,49.5033 804.1659,49.5033 C843.4789,49.5033 857.0689,94.2183 857.0689,137.9333 L857.0689,149.2633 L788.7949,149.2633 Z M608.1229,0.0003 L646.4829,0.0003 L673.7499,81.1433 L701.0009,0.0003 L739.3439,0.0003 L739.3439,221.8903 L702.2649,221.8903 L702.2649,87.7983 L674.0509,171.8023 L673.4339,171.8023 L645.2059,87.7983 L645.2059,221.8903 L608.1229,221.8903 L608.1229,0.0003 Z M448.3969,117.2393 C446.8829,103.5693 447.1349,83.5403 433.0269,83.5403 C421.4299,83.5403 418.5519,105.9943 417.9019,117.2393 L448.3969,117.2393 Z M417.9019,149.2633 C417.9019,163.9523 420.0149,191.6003 434.6909,191.7003 C443.4899,191.7793 445.1049,179.1033 447.6299,165.4323 L484.6809,165.5333 C482.4489,184.9613 470.0729,225.0023 433.7739,225.0023 C394.7299,225.0023 377.0779,183.2963 377.0779,136.9173 C377.0779,89.5623 395.7129,49.5033 433.2739,49.5033 C472.5849,49.5033 486.1919,94.2183 486.1919,137.9333 L486.1919,149.2633 L417.9019,149.2633 Z M236.7229,0.0003 L275.0849,0.0003 L302.3349,81.1433 L329.6019,0.0003 L367.9449,0.0003 L367.9449,221.8903 L330.8789,221.8903 L330.8789,87.7983 L302.6499,171.8023 L302.0179,171.8023 L273.8029,87.7983 L273.8029,221.8903 L236.7229,221.8903 L236.7229,0.0003 Z M561.4319,142.6423 L561.4319,131.2463 C561.4319,101.1383 556.0399,84.6373 546.5269,84.6373 C537.0259,84.6373 532.6029,101.1383 532.6029,131.2463 L532.6029,142.6423 C532.6029,173.0833 537.0259,189.2693 546.5269,189.2693 C556.0399,189.2693 561.4319,173.0833 561.4319,142.6423 Z M495.1889,144.5543 L495.1889,129.3353 C495.1889,68.8003 511.0269,48.8213 531.3069,48.8213 C547.8079,48.8213 555.4279,62.4453 561.1349,72.5943 L561.1349,0.0003 L598.5449,0.0003 L598.5449,221.8903 L561.1349,221.8903 L561.1349,200.6453 C555.7429,210.8123 547.8079,225.0833 531.3069,225.0833 C511.0269,225.0833 495.1889,205.7213 495.1889,144.5543 Z M866.6569,52.0013 L904.0699,52.0013 L904.0699,72.2783 C910.7239,59.2713 919.2919,48.8213 934.1819,48.8213 C955.7069,48.8213 966.8369,67.2043 966.8369,93.1883 L966.8369,221.8903 L929.4399,221.8903 L929.4399,101.7543 C929.4399,89.3943 924.6839,82.4073 917.0639,82.4073 C909.4599,82.4073 904.0699,89.3943 904.0699,101.7543 L904.0699,221.8903 L866.6569,221.8903 L866.6569,52.0013 Z" id="Fill-1" fill="#941A1D"></path>
            <g id="Group-5" transform="translate(0.000000, 272.452000)">
                <mask id="mask-2" fill="white">
                    <use xlink:href="#path-1"></use>
                </mask>
                <g id="Clip-4"></g>
                <path d="M12.3115,79.6788 L27.8295,79.6788 C33.0435,79.6788 37.9815,78.9728 42.6425,77.5628 C47.3015,76.1518 51.3835,74.0348 54.8905,71.2138 C58.3945,68.3928 61.1745,64.8658 63.2265,60.6338 C65.2775,56.4018 66.3045,51.4638 66.3045,45.8218 C66.3045,42.9148 65.8325,39.5168 64.8935,35.6248 C63.9515,31.7358 62.1785,28.0388 59.5705,24.5328 C56.9615,21.0278 53.3515,18.0558 48.7335,15.6188 C44.1175,13.1818 38.1315,11.9638 30.7795,11.9638 L12.3115,11.9638 L12.3115,79.6788 Z M-0.0005,0.4208 L31.6775,0.4208 C38.0895,0.4208 43.7105,1.1488 48.5415,2.6018 C53.3715,4.0568 57.5615,5.9998 61.1095,8.4368 C64.6565,10.8728 67.6065,13.6748 69.9585,16.8368 C72.3095,20.0008 74.1695,23.2488 75.5375,26.5838 C76.9045,29.9178 77.8885,33.2528 78.4875,36.5868 C79.0845,39.9218 79.3855,42.9998 79.3855,45.8218 C79.3855,51.6368 78.3155,57.2568 76.1795,62.6858 C74.0405,68.1158 70.8765,72.9458 66.6885,77.1778 C62.4985,81.4098 57.3045,84.8088 51.1065,87.3728 C44.9065,89.9388 37.7475,91.2208 29.6245,91.2208 L-0.0005,91.2208 L-0.0005,0.4208 Z" id="Fill-3" fill="#941A1D" mask="url(#mask-2)"></path>
            </g>
            <path d="M101.0591,333.2783 C101.0591,336.3563 101.5281,339.1993 102.4701,341.8063 C103.4101,344.4163 104.7341,346.6373 106.4451,348.4753 C108.1551,350.3153 110.2481,351.7673 112.7291,352.8363 C115.2081,353.9063 117.9881,354.4393 121.0651,354.4393 C124.1431,354.4393 126.9211,353.9063 129.4021,352.8363 C131.8801,351.7673 133.9751,350.3153 135.6861,348.4753 C137.3951,346.6373 138.7201,344.4163 139.6621,341.8063 C140.6011,339.1993 141.0721,336.3563 141.0721,333.2783 C141.0721,330.2003 140.6011,327.3583 139.6621,324.7503 C138.7201,322.1423 137.3951,319.9203 135.6861,318.0813 C133.9751,316.2433 131.8801,314.7903 129.4021,313.7203 C126.9211,312.6523 124.1431,312.1173 121.0651,312.1173 C117.9881,312.1173 115.2081,312.6523 112.7291,313.7203 C110.2481,314.7903 108.1551,316.2433 106.4451,318.0813 C104.7341,319.9203 103.4101,322.1423 102.4701,324.7503 C101.5281,327.3583 101.0591,330.2003 101.0591,333.2783 M88.7471,333.2783 C88.7471,328.8343 89.5811,324.6853 91.2481,320.8383 C92.9151,316.9903 95.2021,313.6143 98.1091,310.7063 C101.0151,307.8003 104.4351,305.5123 108.3691,303.8453 C112.3011,302.1773 116.5331,301.3443 121.0651,301.3443 C125.5961,301.3443 129.8291,302.1773 133.7621,303.8453 C137.6941,305.5123 141.1141,307.8003 144.0221,310.7063 C146.9281,313.6143 149.2161,316.9903 150.8831,320.8383 C152.5501,324.6853 153.3841,328.8343 153.3841,333.2783 C153.3841,337.7243 152.5501,341.8923 150.8831,345.7823 C149.2161,349.6743 146.9281,353.0503 144.0221,355.9143 C141.1141,358.7793 137.6941,361.0443 133.7621,362.7113 C129.8291,364.3783 125.5961,365.2123 121.0651,365.2123 C116.5331,365.2123 112.3011,364.3783 108.3691,362.7113 C104.4351,361.0443 101.0151,358.7793 98.1091,355.9143 C95.2021,353.0503 92.9151,349.6743 91.2481,345.7823 C89.5811,341.8923 88.7471,337.7243 88.7471,333.2783" id="Fill-6" fill="#941A1D"></path>
            <polygon id="Fill-8" fill="#941A1D" points="158.1279 302.8837 171.0809 302.8837 184.7349 348.2827 184.9939 348.2827 199.5519 302.8837 211.8639 302.8837 227.2529 348.2827 227.5099 348.2827 240.4629 302.8837 252.7749 302.8837 233.1529 363.6727 221.4819 363.6727 205.3829 318.2737 205.1229 318.2737 190.4459 363.6727 178.1349 363.6727"></polygon>
            <path d="M265.4697,302.8837 L277.0117,302.8837 L277.0117,312.2447 L277.2687,312.2447 C278.7217,308.9967 281.2437,306.3677 284.8357,304.3587 C288.4267,302.3507 292.5727,301.3447 297.2757,301.3447 C300.1807,301.3447 302.9827,301.7927 305.6757,302.6917 C308.3687,303.5887 310.7197,304.9797 312.7287,306.8597 C314.7367,308.7407 316.3407,311.1547 317.5387,314.1057 C318.7347,317.0547 319.3337,320.5387 319.3337,324.5577 L319.3337,363.6727 L307.7917,363.6727 L307.7917,327.7637 C307.7917,324.9427 307.4067,322.5277 306.6367,320.5177 C305.8677,318.5097 304.8417,316.8847 303.5597,315.6447 C302.2767,314.4047 300.8027,313.5077 299.1347,312.9507 C297.4677,312.3957 295.7367,312.1167 293.9407,312.1167 C291.5467,312.1167 289.3237,312.5017 287.2717,313.2717 C285.2197,314.0407 283.4247,315.2597 281.8857,316.9267 C280.3467,318.5937 279.1487,320.7097 278.2947,323.2747 C277.4387,325.8397 277.0117,328.8757 277.0117,332.3807 L277.0117,363.6727 L265.4697,363.6727 L265.4697,302.8837 Z" id="Fill-10" fill="#941A1D"></path>
            <path d="M372.0439,312.8867 L355.4999,312.8867 L355.4999,340.4597 C355.4999,342.1707 355.5419,343.8587 355.6279,345.5257 C355.7119,347.1937 356.0329,348.6897 356.5899,350.0147 C357.1449,351.3407 358.0009,352.4087 359.1549,353.2207 C360.3089,354.0337 361.9969,354.4397 364.2209,354.4397 C365.5869,354.4397 366.9979,354.3107 368.4529,354.0547 C369.9059,353.7977 371.2309,353.3287 372.4289,352.6437 L372.4289,363.1597 C371.0599,363.9297 369.2869,364.4617 367.1069,364.7627 C364.9259,365.0617 363.2369,365.2117 362.0409,365.2117 C357.5939,365.2117 354.1529,364.5907 351.7159,363.3527 C349.2799,362.1147 347.4839,360.5107 346.3299,358.5427 C345.1759,356.5767 344.4909,354.3747 344.2779,351.9387 C344.0639,349.5017 343.9579,347.0447 343.9579,344.5637 L343.9579,312.8867 L330.6199,312.8867 L330.6199,302.8837 L343.9579,302.8837 L343.9579,285.8257 L355.4999,285.8257 L355.4999,302.8837 L372.0439,302.8837 L372.0439,312.8867 Z" id="Fill-12" fill="#941A1D"></path>
            <path d="M393.8452,333.2783 C393.8452,336.3563 394.3142,339.1993 395.2562,341.8063 C396.1962,344.4163 397.5202,346.6373 399.2312,348.4753 C400.9412,350.3153 403.0342,351.7673 405.5152,352.8363 C407.9942,353.9063 410.7742,354.4393 413.8512,354.4393 C416.9292,354.4393 419.7072,353.9063 422.1882,352.8363 C424.6662,351.7673 426.7612,350.3153 428.4722,348.4753 C430.1812,346.6373 431.5062,344.4163 432.4482,341.8063 C433.3872,339.1993 433.8582,336.3563 433.8582,333.2783 C433.8582,330.2003 433.3872,327.3583 432.4482,324.7503 C431.5062,322.1423 430.1812,319.9203 428.4722,318.0813 C426.7612,316.2433 424.6662,314.7903 422.1882,313.7203 C419.7072,312.6523 416.9292,312.1173 413.8512,312.1173 C410.7742,312.1173 407.9942,312.6523 405.5152,313.7203 C403.0342,314.7903 400.9412,316.2433 399.2312,318.0813 C397.5202,319.9203 396.1962,322.1423 395.2562,324.7503 C394.3142,327.3583 393.8452,330.2003 393.8452,333.2783 M381.5332,333.2783 C381.5332,328.8343 382.3672,324.6853 384.0342,320.8383 C385.7012,316.9903 387.9882,313.6143 390.8952,310.7063 C393.8012,307.8003 397.2212,305.5123 401.1552,303.8453 C405.0872,302.1773 409.3192,301.3443 413.8512,301.3443 C418.3822,301.3443 422.6152,302.1773 426.5482,303.8453 C430.4802,305.5123 433.9002,307.8003 436.8082,310.7063 C439.7142,313.6143 442.0022,316.9903 443.6692,320.8383 C445.3362,324.6853 446.1702,328.8343 446.1702,333.2783 C446.1702,337.7243 445.3362,341.8923 443.6692,345.7823 C442.0022,349.6743 439.7142,353.0503 436.8082,355.9143 C433.9002,358.7793 430.4802,361.0443 426.5482,362.7113 C422.6152,364.3783 418.3822,365.2123 413.8512,365.2123 C409.3192,365.2123 405.0872,364.3783 401.1552,362.7113 C397.2212,361.0443 393.8012,358.7793 390.8952,355.9143 C387.9882,353.0503 385.7012,349.6743 384.0342,345.7823 C382.3672,341.8923 381.5332,337.7243 381.5332,333.2783" id="Fill-14" fill="#941A1D"></path>
            <polygon id="Fill-16" fill="#941A1D" points="453.4795 302.8837 466.4325 302.8837 480.0865 348.2827 480.3455 348.2827 494.9035 302.8837 507.2155 302.8837 522.6045 348.2827 522.8625 348.2827 535.8145 302.8837 548.1255 302.8837 528.5045 363.6727 516.8335 363.6727 500.7355 318.2737 500.4735 318.2737 485.7975 363.6727 473.4865 363.6727"></polygon>
            <path d="M558.2568,302.8837 L569.7988,302.8837 L569.7988,312.2447 L570.0558,312.2447 C571.5088,308.9967 574.0298,306.3677 577.6218,304.3587 C581.2128,302.3507 585.3588,301.3447 590.0618,301.3447 C592.9678,301.3447 595.7688,301.7927 598.4618,302.6917 C601.1548,303.5887 603.5058,304.9797 605.5158,306.8597 C607.5238,308.7407 609.1268,311.1547 610.3248,314.1057 C611.5218,317.0547 612.1208,320.5387 612.1208,324.5577 L612.1208,363.6727 L600.5778,363.6727 L600.5778,327.7637 C600.5778,324.9427 600.1938,322.5277 599.4238,320.5177 C598.6538,318.5097 597.6278,316.8847 596.3468,315.6447 C595.0638,314.4047 593.5888,313.5077 591.9208,312.9507 C590.2548,312.3957 588.5228,312.1167 586.7278,312.1167 C584.3328,312.1167 582.1108,312.5017 580.0588,313.2717 C578.0068,314.0407 576.2108,315.2597 574.6728,316.9267 C573.1338,318.5937 571.9348,320.7097 571.0808,323.2747 C570.2258,325.8397 569.7988,328.8757 569.7988,332.3807 L569.7988,363.6727 L558.2568,363.6727 L558.2568,302.8837 Z" id="Fill-18" fill="#941A1D"></path>
            <polygon id="Fill-20" fill="#941A1D" points="663.291 272.873 675.604 272.873 675.604 352.131 717.283 352.131 717.283 363.673 663.291 363.673"></polygon>
            <path d="M759.8613,334.4326 C757.1243,334.4326 754.3243,334.5826 751.4613,334.8806 C748.5953,335.1816 745.9883,335.7586 743.6373,336.6126 C741.2853,337.4676 739.3613,338.6636 737.8663,340.2036 C736.3703,341.7426 735.6223,343.7096 735.6223,346.1026 C735.6223,349.6096 736.7973,352.1306 739.1493,353.6696 C741.5003,355.2086 744.6833,355.9776 748.7033,355.9776 C751.8653,355.9776 754.5583,355.4456 756.7833,354.3746 C759.0063,353.3066 760.8003,351.9176 762.1703,350.2066 C763.5363,348.4966 764.5203,346.5956 765.1193,344.4996 C765.7163,342.4066 766.0163,340.3316 766.0163,338.2806 L766.0163,334.4326 L759.8613,334.4326 Z M727.2863,310.3226 C730.5343,307.3296 734.2963,305.0856 738.5723,303.5886 C742.8463,302.0936 747.1203,301.3446 751.3963,301.3446 C755.8413,301.3446 759.6693,301.9016 762.8753,303.0116 C766.0813,304.1236 768.7103,305.6206 770.7613,307.4996 C772.8143,309.3816 774.3313,311.5396 775.3153,313.9766 C776.2973,316.4126 776.7903,318.9576 776.7903,321.6076 L776.7903,352.6436 C776.7903,354.7816 776.8323,356.7466 776.9183,358.5426 C777.0023,360.3386 777.1313,362.0496 777.3023,363.6726 L767.0433,363.6726 C766.7863,360.5946 766.6583,357.5166 766.6583,354.4396 L766.4013,354.4396 C763.8373,358.3726 760.8003,361.1526 757.2963,362.7756 C753.7893,364.3986 749.7293,365.2116 745.1123,365.2116 C742.2913,365.2116 739.5973,364.8276 737.0333,364.0576 C734.4673,363.2876 732.2233,362.1336 730.2993,360.5946 C728.3763,359.0556 726.8573,357.1546 725.7473,354.8876 C724.6343,352.6226 724.0803,349.9946 724.0803,347.0006 C724.0803,343.0696 724.9563,339.7766 726.7093,337.1256 C728.4603,334.4766 730.8553,332.3166 733.8903,330.6496 C736.9243,328.9816 740.4733,327.7856 744.5353,327.0586 C748.5953,326.3326 752.9353,325.9676 757.5523,325.9676 L766.0163,325.9676 L766.0163,323.4036 C766.0163,321.8646 765.7163,320.3256 765.1193,318.7866 C764.5203,317.2466 763.6223,315.8586 762.4253,314.6186 C761.2273,313.3796 759.7323,312.3956 757.9373,311.6676 C756.1413,310.9436 754.0043,310.5786 751.5253,310.5786 C749.3003,310.5786 747.3573,310.7926 745.6893,311.2196 C744.0223,311.6486 742.5043,312.1816 741.1363,312.8226 C739.7683,313.4636 738.5283,314.2126 737.4183,315.0676 C736.3053,315.9226 735.2373,316.7346 734.2123,317.5036 L727.2863,310.3226 Z" id="Fill-22" fill="#941A1D"></path>
            <path d="M826.0361,318.1445 C824.6681,316.4355 822.9781,315.0025 820.9711,313.8485 C818.9611,312.6945 816.5021,312.1175 813.5971,312.1175 C810.8591,312.1175 808.4861,312.6945 806.4781,313.8485 C804.4691,315.0025 803.4651,316.6925 803.4651,318.9145 C803.4651,320.7095 804.0421,322.1655 805.1961,323.2745 C806.3501,324.3865 807.7171,325.2855 809.3001,325.9675 C810.8811,326.6535 812.5701,327.1655 814.3661,327.5065 C816.1611,327.8495 817.7001,328.1485 818.9831,328.4045 C821.4621,329.0035 823.7921,329.7315 825.9731,330.5845 C828.1521,331.4405 830.0321,332.5525 831.6151,333.9185 C833.1961,335.2885 834.4361,336.9555 835.3351,338.9205 C836.2321,340.8885 836.6811,343.2815 836.6811,346.1025 C836.6811,349.5235 835.9541,352.4515 834.5011,354.8875 C833.0461,357.3245 831.1661,359.3125 828.8581,360.8515 C826.5501,362.3905 823.9211,363.5025 820.9711,364.1855 C818.0211,364.8695 815.0501,365.2115 812.0571,365.2115 C807.0121,365.2115 802.5871,364.4425 798.7841,362.9035 C794.9781,361.3645 791.5801,358.5425 788.5881,354.4395 L797.3091,347.2565 C799.1881,349.1385 801.2851,350.8055 803.5931,352.2585 C805.9011,353.7135 808.7231,354.4395 812.0571,354.4395 C813.5111,354.4395 814.9851,354.2905 816.4821,353.9905 C817.9761,353.6915 819.3041,353.2205 820.4581,352.5795 C821.6121,351.9385 822.5521,351.1265 823.2791,350.1425 C824.0051,349.1615 824.3691,348.0265 824.3691,346.7445 C824.3691,345.0355 823.8341,343.6235 822.7661,342.5115 C821.6961,341.4015 820.4141,340.5245 818.9191,339.8825 C817.4221,339.2415 815.8411,338.7285 814.1741,338.3435 C812.5071,337.9585 811.0311,337.6385 809.7491,337.3815 C807.2681,336.7855 804.9181,336.0995 802.6951,335.3305 C800.4721,334.5605 798.5061,333.5345 796.7961,332.2515 C795.0851,330.9695 793.7181,329.3465 792.6921,327.3785 C791.6661,325.4135 791.1531,322.9765 791.1531,320.0685 C791.1531,316.9065 791.8141,314.1495 793.1401,311.7965 C794.4661,309.4465 796.2191,307.4995 798.3991,305.9605 C800.5791,304.4225 803.0581,303.2685 805.8381,302.4985 C808.6151,301.7295 811.4161,301.3445 814.2381,301.3445 C818.3421,301.3445 822.2731,302.1145 826.0361,303.6535 C829.7981,305.1915 832.7901,307.7565 835.0141,311.3475 L826.0361,318.1445 Z" id="Fill-24" fill="#941A1D"></path>
            <polygon id="Fill-26" fill="#941A1D" points="871.9473 272.873 886.1823 272.873 912.8583 346.744 913.1143 346.744 940.8163 272.873 954.2823 272.873 918.5013 363.673 906.9593 363.673"></polygon>
            <path d="M1004.9395,328.2763 C1004.8525,325.7123 1004.4465,323.3613 1003.7205,321.2223 C1002.9935,319.0873 1001.9035,317.2273 1000.4505,315.6443 C998.9955,314.0633 997.1795,312.8223 995.0005,311.9243 C992.8195,311.0273 990.2745,310.5783 987.3695,310.5783 C984.5475,310.5783 981.9605,311.1133 979.6105,312.1813 C977.2575,313.2513 975.2695,314.6403 973.6465,316.3493 C972.0215,318.0603 970.7605,319.9633 969.8635,322.0563 C968.9655,324.1523 968.5165,326.2243 968.5165,328.2763 L1004.9395,328.2763 Z M968.5165,337.5103 C968.5165,340.1613 969.0935,342.5763 970.2485,344.7553 C971.4025,346.9363 972.9185,348.7963 974.8005,350.3353 C976.6805,351.8743 978.8605,353.0723 981.3415,353.9253 C983.8205,354.7813 986.3845,355.2093 989.0365,355.2093 C992.6265,355.2093 995.7475,354.3753 998.3985,352.7083 C1001.0475,351.0403 1003.4845,348.8393 1005.7085,346.1023 L1014.4295,352.7713 C1008.0165,361.0653 999.0405,365.2123 987.4975,365.2123 C982.7085,365.2123 978.3705,364.3983 974.4805,362.7753 C970.5885,361.1523 967.2975,358.9073 964.6055,356.0423 C961.9125,353.1783 959.8375,349.8013 958.3845,345.9103 C956.9305,342.0213 956.2055,337.8103 956.2055,333.2783 C956.2055,328.7473 956.9945,324.5373 958.5775,320.6453 C960.1585,316.7553 962.3385,313.3803 965.1185,310.5143 C967.8955,307.6503 971.2105,305.4063 975.0575,303.7813 C978.9045,302.1583 983.0925,301.3443 987.6265,301.3443 C993.0115,301.3443 997.5645,302.2863 1001.2845,304.1663 C1005.0025,306.0473 1008.0585,308.5053 1010.4545,311.5403 C1012.8465,314.5763 1014.5775,317.9973 1015.6475,321.7993 C1016.7155,325.6053 1017.2515,329.4743 1017.2515,333.4063 L1017.2515,337.5103 L968.5165,337.5103 Z" id="Fill-28" fill="#941A1D"></path>
            <path d="M1060.5986,312.1171 C1057.5206,312.1171 1054.7416,312.6521 1052.2626,313.7211 C1049.7816,314.7901 1047.6876,316.2431 1045.9786,318.0811 C1044.2666,319.9201 1042.9426,322.1421 1042.0026,324.7501 C1041.0606,327.3581 1040.5916,330.2001 1040.5916,333.2781 C1040.5916,339.4331 1042.3876,344.3711 1045.9786,348.0911 C1049.5696,351.8091 1054.4426,353.6701 1060.5986,353.6701 C1066.7546,353.6701 1071.6276,351.8091 1075.2186,348.0911 C1078.8096,344.3711 1080.6056,339.4331 1080.6056,333.2781 C1080.6056,330.2001 1080.1346,327.3581 1079.1946,324.7501 C1078.2526,322.1421 1076.9276,319.9201 1075.2186,318.0811 C1073.5076,316.2431 1071.4126,314.7901 1068.9346,313.7211 C1066.4536,312.6521 1063.6766,312.1171 1060.5986,312.1171 Z M1092.1476,363.1601 C1092.1476,367.7761 1091.3566,371.9871 1089.7756,375.7911 C1088.1926,379.5951 1085.9476,382.8871 1083.0416,385.6661 C1080.1346,388.4441 1076.6296,390.6041 1072.5256,392.1431 C1068.4216,393.6821 1063.8886,394.4511 1058.9316,394.4511 C1053.1166,394.4511 1047.7936,393.6381 1042.9646,392.0151 C1038.1326,390.3901 1033.5376,387.5691 1029.1776,383.5501 L1037.0006,373.8041 C1039.9936,377.0521 1043.2416,379.5111 1046.7476,381.1781 C1050.2526,382.8451 1054.2286,383.6791 1058.6746,383.6791 C1062.9496,383.6791 1066.4976,383.0581 1069.3196,381.8201 C1072.1406,380.5781 1074.3846,378.9761 1076.0526,377.0101 C1077.7196,375.0421 1078.8936,372.7981 1079.5786,370.2771 C1080.2626,367.7541 1080.6056,365.2121 1080.6056,362.6461 L1080.6056,353.6701 L1080.2206,353.6701 C1077.9956,357.3461 1074.9826,360.0611 1071.1786,361.8131 C1067.3736,363.5661 1063.3756,364.4421 1059.1876,364.4421 C1054.7416,364.4421 1050.6156,363.6521 1046.8116,362.0691 C1043.0066,360.4881 1039.7366,358.3081 1037.0006,355.5291 C1034.2636,352.7521 1032.1276,349.4591 1030.5886,345.6541 C1029.0496,341.8501 1028.2806,337.7241 1028.2806,333.2781 C1028.2806,328.8341 1029.0056,324.6651 1030.4596,320.7741 C1031.9126,316.8851 1033.9876,313.4861 1036.6806,310.5781 C1039.3736,307.6731 1042.6216,305.4061 1046.4266,303.7811 C1050.2306,302.1581 1054.4846,301.3451 1059.1876,301.3451 C1063.2916,301.3451 1067.2866,302.2421 1071.1786,304.0381 C1075.0686,305.8331 1078.1236,308.3561 1080.3486,311.6041 L1080.6056,311.6041 L1080.6056,302.8841 L1092.1476,302.8841 L1092.1476,363.1601 Z" id="Fill-30" fill="#941A1D"></path>
            <path d="M1139.9834,334.4326 C1137.2464,334.4326 1134.4464,334.5826 1131.5824,334.8806 C1128.7164,335.1816 1126.1104,335.7586 1123.7594,336.6126 C1121.4074,337.4676 1119.4834,338.6636 1117.9884,340.2036 C1116.4914,341.7426 1115.7444,343.7096 1115.7444,346.1026 C1115.7444,349.6096 1116.9184,352.1306 1119.2704,353.6696 C1121.6214,355.2086 1124.8054,355.9776 1128.8254,355.9776 C1131.9874,355.9776 1134.6804,355.4456 1136.9054,354.3746 C1139.1274,353.3066 1140.9224,351.9176 1142.2914,350.2066 C1143.6584,348.4966 1144.6414,346.5956 1145.2414,344.4996 C1145.8374,342.4066 1146.1384,340.3316 1146.1384,338.2806 L1146.1384,334.4326 L1139.9834,334.4326 Z M1107.4084,310.3226 C1110.6564,307.3296 1114.4174,305.0856 1118.6934,303.5886 C1122.9674,302.0936 1127.2424,301.3446 1131.5184,301.3446 C1135.9624,301.3446 1139.7914,301.9016 1142.9974,303.0116 C1146.2034,304.1236 1148.8324,305.6206 1150.8834,307.4996 C1152.9354,309.3816 1154.4534,311.5396 1155.4364,313.9766 C1156.4194,316.4126 1156.9124,318.9576 1156.9124,321.6076 L1156.9124,352.6436 C1156.9124,354.7816 1156.9544,356.7466 1157.0404,358.5426 C1157.1244,360.3386 1157.2524,362.0496 1157.4244,363.6726 L1147.1654,363.6726 C1146.9084,360.5946 1146.7804,357.5166 1146.7804,354.4396 L1146.5234,354.4396 C1143.9594,358.3726 1140.9224,361.1526 1137.4184,362.7756 C1133.9114,364.3986 1129.8514,365.2116 1125.2344,365.2116 C1122.4134,365.2116 1119.7194,364.8276 1117.1544,364.0576 C1114.5894,363.2876 1112.3454,362.1336 1110.4214,360.5946 C1108.4984,359.0556 1106.9784,357.1546 1105.8694,354.8876 C1104.7564,352.6226 1104.2014,349.9946 1104.2014,347.0006 C1104.2014,343.0696 1105.0774,339.7766 1106.8314,337.1256 C1108.5824,334.4766 1110.9764,332.3166 1114.0124,330.6496 C1117.0464,328.9816 1120.5954,327.7856 1124.6574,327.0586 C1128.7164,326.3326 1133.0574,325.9676 1137.6744,325.9676 L1146.1384,325.9676 L1146.1384,323.4036 C1146.1384,321.8646 1145.8374,320.3256 1145.2414,318.7866 C1144.6414,317.2466 1143.7444,315.8586 1142.5474,314.6186 C1141.3494,313.3796 1139.8544,312.3956 1138.0594,311.6676 C1136.2634,310.9436 1134.1264,310.5786 1131.6464,310.5786 C1129.4214,310.5786 1127.4784,310.7926 1125.8114,311.2196 C1124.1444,311.6486 1122.6254,312.1816 1121.2584,312.8226 C1119.8894,313.4636 1118.6494,314.2126 1117.5394,315.0676 C1116.4264,315.9226 1115.3594,316.7346 1114.3334,317.5036 L1107.4084,310.3226 Z" id="Fill-32" fill="#941A1D"></path>
            <g id="Group-36" transform="translate(1166.000000, 300.452000)">
                <mask id="mask-4" fill="white">
                    <use xlink:href="#path-3"></use>
                </mask>
                <g id="Clip-35"></g>
                <path d="M37.5928,17.6925 C36.2248,15.9835 34.5348,14.5505 32.5278,13.3965 C30.5178,12.2425 28.0588,11.6655 25.1538,11.6655 C22.4158,11.6655 20.0428,12.2425 18.0348,13.3965 C16.0258,14.5505 15.0218,16.2405 15.0218,18.4625 C15.0218,20.2575 15.5988,21.7135 16.7528,22.8225 C17.9068,23.9345 19.2738,24.8335 20.8568,25.5155 C22.4378,26.2015 24.1268,26.7135 25.9228,27.0545 C27.7178,27.3975 29.2568,27.6965 30.5388,27.9525 C33.0188,28.5515 35.3488,29.2795 37.5298,30.1325 C39.7088,30.9885 41.5888,32.1005 43.1718,33.4665 C44.7528,34.8365 45.9928,36.5035 46.8908,38.4685 C47.7888,40.4365 48.2378,42.8295 48.2378,45.6505 C48.2378,49.0715 47.5098,51.9995 46.0578,54.4355 C44.6028,56.8725 42.7228,58.8605 40.4138,60.3995 C38.1068,61.9385 35.4768,63.0505 32.5278,63.7335 C29.5768,64.4175 26.6058,64.7595 23.6138,64.7595 C18.5688,64.7595 14.1438,63.9905 10.3408,62.4515 C6.5348,60.9125 3.1368,58.0905 0.1448,53.9875 L8.8648,46.8045 C10.7448,48.6865 12.8408,50.3535 15.1498,51.8065 C17.4578,53.2615 20.2798,53.9875 23.6138,53.9875 C25.0668,53.9875 26.5418,53.8385 28.0378,53.5385 C29.5328,53.2395 30.8608,52.7685 32.0148,52.1275 C33.1678,51.4865 34.1088,50.6745 34.8358,49.6905 C35.5618,48.7095 35.9258,47.5745 35.9258,46.2925 C35.9258,44.5835 35.3908,43.1715 34.3218,42.0595 C33.2528,40.9495 31.9698,40.0725 30.4758,39.4305 C28.9788,38.7895 27.3978,38.2765 25.7308,37.8915 C24.0628,37.5065 22.5878,37.1865 21.3058,36.9295 C18.8248,36.3335 16.4748,35.6475 14.2518,34.8785 C12.0278,34.1085 10.0618,33.0825 8.3528,31.7995 C6.6418,30.5175 5.2748,28.8945 4.2488,26.9265 C3.2228,24.9615 2.7098,22.5245 2.7098,19.6165 C2.7098,16.4545 3.3708,13.6975 4.6968,11.3445 C6.0228,8.9945 7.7758,7.0475 9.9558,5.5085 C12.1358,3.9705 14.6138,2.8165 17.3938,2.0465 C20.1708,1.2775 22.9728,0.8925 25.7938,0.8925 C29.8988,0.8925 33.8298,1.6625 37.5928,3.2015 C41.3548,4.7395 44.3458,7.3045 46.5708,10.8955 L37.5928,17.6925 Z" id="Fill-34" fill="#941A1D" mask="url(#mask-4)"></path>
            </g>
        </g>
    </g>
</svg>