<?xml version="1.0" encoding="UTF-8"?>
<svg width="655px" height="189px" viewBox="0 0 655 189" version="1.1" xmlns="http://www.w3.org/2000/svg" xmlns:xlink="http://www.w3.org/1999/xlink">
    <!-- Generator: Sketch 52.2 (67145) - http://www.bohemiancoding.com/sketch -->
    <title>TreehouseREIT_Final-01</title>
    <desc>Created with Sketch.</desc>
    <g id="Page-1" stroke="none" stroke-width="1" fill="none" fill-rule="evenodd">
        <g id="TreehouseREIT_Final-01">
            <path d="M116.216514,83.0695042 C115.611899,83.4218771 115.000085,83.7670424 114.399469,84.1306271 C112.367289,85.3639322 110.411886,86.7117585 108.522863,88.158089 C106.481087,89.7213432 104.532082,91.3927119 102.676648,93.1761992 C100.733242,95.046178 98.8826068,97.0066525 97.2399084,99.1449153 C96.0898596,100.644102 94.9997924,102.189737 93.9449145,103.756195 C93.5290415,104.376051 93.1035714,104.998309 92.7588767,105.671822 C92.4077839,106.358949 92.0135043,107.024453 91.6592125,107.711581 C91.3129182,108.389097 90.9778205,109.076225 90.661917,109.770559 C90.3468132,110.464894 90.0453053,111.166436 89.7653907,111.877589 C88.7952869,114.336992 88.0179243,116.854856 87.5660623,119.460013 C87.3029426,120.980021 87.1094017,122.512843 86.9350549,124.045665 C86.7127228,126.008542 86.6983272,127.98103 86.8318864,129.949513 C86.9350549,131.507962 87.1189988,133.066411 87.3293346,134.616051 C87.7428083,137.632042 88.5105739,140.569551 89.4734799,143.452602 C90.5523504,146.675212 91.8863431,149.795314 93.4546642,152.809703 C93.9617094,153.783534 94.4975458,154.741347 95.0165873,155.708771 C95.0477778,155.766432 95.0613736,155.8305 95.082967,155.892966 L94.3943773,155.892966 C94.1744444,155.859331 93.9545116,155.814483 93.7321795,155.794462 C92.9268254,155.727992 92.1182723,155.667928 91.3105189,155.60386 C90.2244505,155.512564 89.1415812,155.416462 88.0587118,155.327568 C87.2789499,155.2635 86.4999878,155.208242 85.7202259,155.144174 C84.6373565,155.052076 83.5536874,154.956775 82.4708181,154.868682 C82.081337,154.837449 81.6918559,154.813424 81.2991758,154.796606 C80.9616789,154.779788 80.7401465,154.683686 80.6033883,154.312894 C79.8620147,152.287551 79.2621978,150.221364 78.8007387,148.114335 C78.4760379,146.627161 78.1913248,145.128775 77.9545971,143.624784 C77.7602564,142.401089 77.6578877,141.16378 77.5283272,139.932877 C77.3019963,137.778597 77.254011,135.616309 77.3131929,133.454822 C77.3427839,132.317619 77.42116,131.179614 77.5283272,130.049619 C77.6530891,128.740233 77.7730525,127.425242 78.007381,126.132674 C78.3200855,124.422864 78.6911722,122.718661 79.1278388,121.03528 C80.0371612,117.533174 81.3879487,114.197644 83.0826313,111.003064 C84.4222222,108.482797 85.9641514,106.09547 87.7212149,103.847492 C87.9395482,103.567195 87.9627411,103.251661 88.0107265,102.940131 C88.2618498,101.348047 88.3506227,99.7439492 88.1922711,98.1366483 C87.9555433,95.7381102 87.1733822,93.5253686 85.7706105,91.5624915 C84.5485836,89.8526822 82.9850611,88.5024534 81.1960073,87.4133008 C78.5976007,85.8308263 75.7712637,84.8321695 72.8017705,84.2435466 C71.3382173,83.9512373 69.8562698,83.7598347 68.6942247,83.5724364 C69.4140049,83.5724364 70.4512882,83.5532161 71.4893712,83.5804449 C72.2323443,83.5964619 72.9761172,83.658928 73.7174908,83.7286017 C74.5972222,83.8094873 75.4793529,83.8935763 76.3550855,84.0249153 C77.8610256,84.2547585 79.3485714,84.5807034 80.8017277,85.0379873 C83.3841392,85.8500466 85.7826068,87.008072 87.8723687,88.7491144 C90.354011,90.8153008 92.0558913,93.4060424 93.0171978,96.4869025 C93.072381,96.6694958 93.1323626,96.8504873 93.1851465,97.0330805 C93.2347314,97.2132712 93.2803175,97.3918602 93.3402991,97.6176992 C100.047051,91.2725847 107.819878,86.6757203 116.216514,83.0695042" id="Fill-1" fill="#124734"></path>
            <path d="M55.675,102.992186 C55.1159707,103.076275 54.5729365,103.195602 54.0283028,103.23164 C52.4927717,103.330144 50.9580403,103.471093 49.4225092,103.455076 C47.12721,103.432653 44.8846947,103.04264 42.7565446,102.123267 C39.5911111,100.754619 37.4349695,98.4265551 36.2225397,95.20875 C35.7562821,93.9682373 35.4763675,92.6828771 35.3548046,91.3614788 C35.3500061,91.3230381 35.3116178,91.287 35.2900244,91.2485593 L35.2900244,89.6973178 C35.8162637,89.565178 36.3417033,89.4290339 36.8679426,89.3025 C39.0984615,88.7659322 41.3489744,88.5456992 43.6322772,88.8996737 C46.6041697,89.3617627 49.0834127,90.7336144 51.0939988,92.9655763 C52.9734249,95.0485805 54.1906532,97.497572 55.0080037,100.157186 C55.2567277,100.966843 55.4318742,101.799725 55.6342125,102.622996 C55.6638034,102.733513 55.6614042,102.848835 55.675,102.992186" id="Fill-2" fill="#124734"></path>
            <path d="M152.753358,65.7936229 L152.753358,65.9658051 C152.642991,66.1716229 152.519029,66.3702331 152.425458,66.5832585 C151.419365,68.8624703 150.230928,71.0343686 148.677002,72.9948432 C147.060696,75.0354025 145.14768,76.7035678 142.708425,77.6878093 C140.932167,78.4061695 139.079133,78.6360127 137.171716,78.4374025 C134.957192,78.2075593 132.922613,77.4651737 131.019194,76.3231653 C130.808858,76.1958305 130.70409,76.0837119 130.784866,75.8082203 C131.399878,73.7276186 132.195635,71.7287034 133.42246,69.9227924 C135.382662,67.0381398 138.04185,65.194589 141.468004,64.4882415 C143.47619,64.0742034 145.493974,64.0982288 147.512558,64.3929407 C149.267222,64.6492119 150.969902,65.1008898 152.615,65.7695975 C152.657387,65.7856144 152.707772,65.7856144 152.753358,65.7936229" id="Fill-3" fill="#124734"></path>
            <path d="M68.8245849,74.0535636 C67.9904396,74.0535636 67.1890842,74.0727839 66.390928,74.0487585 C64.8633944,74.0007076 63.3398596,73.8829831 61.8331197,73.6034873 C59.3562759,73.1438008 57.01779,72.3389492 54.9664164,70.8309534 C53.326917,69.6240763 52.0784982,68.0944576 51.2467521,66.2292839 C50.297442,64.1054364 49.9767399,61.8742754 50.0863065,59.5686356 C50.1031013,59.2330805 50.1390904,58.899928 50.1942735,58.5699788 C50.2110684,58.4834873 50.3230342,58.3593559 50.4094078,58.3449407 C53.2765324,57.8396059 56.1332601,57.7963602 58.9452015,58.6708856 C61.7667399,59.5462119 63.9780647,61.2560212 65.6303602,63.6986059 C67.0507265,65.7960254 67.9184615,68.1200847 68.401514,70.5890975 C68.6022527,71.6181864 68.6886264,72.6696992 68.8221856,73.7108008 C68.8341819,73.8020975 68.8245849,73.8949958 68.8245849,74.0535636" id="Fill-4" fill="#124734"></path>
            <path d="M76.5222344,100.255691 C75.8696337,100.325364 75.2162332,100.419064 74.5612332,100.471119 C73.7798718,100.535987 72.9977106,100.572025 72.4362821,100.605661 C70.0090232,100.626483 67.8288889,100.445492 65.703138,99.8056144 C62.5920879,98.8742288 60.0960501,97.1187712 58.4413553,94.2725593 C57.60721,92.8382415 57.0617766,91.2894025 56.8274481,89.6468644 C56.6962882,88.7322966 56.6746947,87.800911 56.5963187,86.8767331 C56.5771245,86.6492924 56.6842918,86.5563941 56.8850305,86.5011356 C58.6828816,86.0294364 60.502326,85.701089 62.3649573,85.6962839 C65.365641,85.6938814 68.1223993,86.4795127 70.5160684,88.3494915 C71.9772222,89.4915 73.1344689,90.9041949 74.0741819,92.4986822 C75.2690171,94.526428 76.0583761,96.7127415 76.559823,99.0039661 C76.6294017,99.3219025 76.66779,99.6454449 76.7421673,99.9585763 C76.7901526,100.166797 76.7109768,100.23647 76.5222344,100.255691" id="Fill-5" fill="#124734"></path>
            <path d="M144.707814,89.953589 C144.354322,90.2386907 144.026422,90.5157839 143.684127,90.7744576 C142.214176,91.890839 140.683443,92.9151229 139.039145,93.7608178 C137.262088,94.6745847 135.404255,95.3617119 133.42246,95.6452119 C130.83525,96.0136017 128.363205,95.6348008 126.048712,94.3758686 C123.7942,93.1497712 122.081923,91.3590763 120.714341,89.2136059 C120.394438,88.7082712 120.400836,88.6962585 120.835904,88.2461822 C122.383431,86.6540975 124.097308,85.2774407 126.096697,84.2907966 C128.078492,83.3145636 130.168254,82.818839 132.386777,82.9429703 C133.993486,83.0318644 135.533816,83.4146695 137.008565,84.0537458 C139.990855,85.3495169 142.457302,87.3316144 144.567057,89.7814068 C144.605446,89.8246525 144.638236,89.8695 144.707814,89.953589" id="Fill-6" fill="#124734"></path>
            <path d="M74.2813187,111.087153 C73.6575092,111.738242 73.0696886,112.390131 72.4434799,113.00278 C70.8287729,114.580449 69.0909035,116.005157 67.1115079,117.11353 C65.3320513,118.107381 63.4478266,118.799314 61.4092491,118.983508 C59.2834982,119.173309 57.2489194,118.794508 55.3191087,117.867928 C53.3085226,116.900504 51.6226374,115.523847 50.2190659,113.793216 C50.1782784,113.741962 50.1422894,113.685102 50.0663126,113.57939 C50.6469353,112.837004 51.2115629,112.06739 51.8257753,111.338619 C52.8950488,110.066873 54.1090781,108.956898 55.507851,108.054343 C57.8295421,106.557559 60.3687668,105.863225 63.125525,106.037809 C65.3968315,106.181962 67.5201832,106.870691 69.5451648,107.888568 C71.1470757,108.693419 72.6322222,109.67686 73.9998046,110.835686 C74.0829792,110.907763 74.1669536,110.984644 74.2813187,111.087153" id="Fill-7" fill="#124734"></path>
            <path d="M55.0439927,84.1930932 C53.8891453,84.2403432 52.7654884,84.3172246 51.6418315,84.3268347 C49.6952259,84.3436525 47.7662149,84.1714703 45.8675946,83.7237966 C43.4787241,83.1583983 41.2937912,82.1717542 39.4743468,80.4891737 C38.0539805,79.1749831 37.0494872,77.5756907 36.4088828,75.7481568 C35.7274908,73.8069025 35.4763675,71.809589 35.605928,69.7602203 C35.6203236,69.5688178 35.674707,69.478322 35.8754457,69.4374788 C37.5829243,69.0875085 39.3023993,68.8552627 41.052265,68.9033136 C44.7679304,69.0042203 47.9741514,70.2727627 50.5085775,73.0525042 C52.0121184,74.6998475 53.0502015,76.6274873 53.8131685,78.7128941 C54.3865934,80.2905636 54.7784737,81.9114788 54.9960073,83.574839 C55.02,83.7622373 55.0247985,83.9512373 55.0439927,84.1930932" id="Fill-8" fill="#124734"></path>
            <path d="M131.014396,103.298911 C130.773669,103.499924 130.548138,103.698534 130.309811,103.88353 C128.324817,105.417953 126.242253,106.792208 123.92536,107.781254 C121.770818,108.699826 119.540299,109.238797 117.182619,109.105055 C114.992888,108.982525 113.003095,108.266568 111.202845,107.017246 C109.395397,105.762318 107.970232,104.154216 106.856172,102.257008 C106.7658,102.101644 106.7658,101.998335 106.89696,101.862191 C108.841166,99.8200297 111.016502,98.101411 113.678089,97.0907415 C115.518327,96.3916017 117.421746,96.1425381 119.387546,96.3579661 C122.198687,96.6694958 124.654737,97.8355297 126.918846,99.4660551 C128.375201,100.514364 129.685201,101.722843 130.847247,103.090691 C130.895232,103.148352 130.940818,103.207614 131.014396,103.298911" id="Fill-9" fill="#124734"></path>
            <path d="M106.656233,69.9388093 L117.209811,69.9388093 L117.209811,59.3716271 L106.656233,59.3716271 L106.656233,69.9388093 Z M128.042503,36.6323644 C125.029023,37.3331059 122.028339,38.0330466 119.01486,38.7209746 C107.58475,41.3557627 96.1418437,43.9913517 84.7109341,46.6269407 C80.286685,47.6456186 75.875232,48.6642966 71.4501832,49.6957881 C71.2718376,49.7462415 70.9799267,49.9248305 70.9799267,50.0513644 C70.9287424,50.9555212 70.9543346,51.859678 70.9543346,52.8399153 C72.7465873,52.4330847 74.4508669,52.0382669 76.2687118,51.6306356 L76.2687118,80.5324195 L83.8847863,80.5324195 L83.8847863,59.346 L94.4759524,59.346 L94.4759524,80.5324195 L121.837998,80.5324195 L121.837998,41.1267203 C124.138895,40.5917542 126.389408,40.0704025 128.627125,39.54825 L128.627125,36.5562839 C128.41119,36.581911 128.220849,36.5939237 128.042503,36.6323644 Z" id="Fill-10" fill="#124734"></path>
            <path d="M93.9713065,7.56400424 C46.1243162,7.56400424 7.1978022,46.5436525 7.1978022,94.4559534 C7.1978022,142.368254 46.1243162,181.347903 93.9713065,181.347903 C141.818297,181.347903 180.744811,142.368254 180.744811,94.4559534 C180.744811,46.5436525 141.818297,7.56400424 93.9713065,7.56400424 Z M93.9713065,188.55553 C42.1551282,188.55553 0,146.34286 0,94.4559534 C0,42.5698475 42.1551282,0.356377119 93.9713065,0.356377119 C145.787485,0.356377119 187.942613,42.5698475 187.942613,94.4559534 C187.942613,146.34286 145.787485,188.55553 93.9713065,188.55553 Z" id="Fill-11" fill="#124734"></path>
            <polyline id="Fill-12" fill="#124734" points="244.08627 52.001428 244.08627 112.578331 232.306667 112.578331 232.306667 52.001428 219.029921 52.001428 219.029921 41.8050381 257.363016 41.8050381 257.363016 52.001428 244.08627 52.001428"></polyline>
            <path d="M292.800995,62.5974407 C292.800995,60.4647839 292.501087,58.6981144 291.902869,57.2982331 C291.303852,55.8991525 290.520092,54.799589 289.556386,54.0003432 C288.591081,53.2002966 287.509811,52.6348983 286.312576,52.3009449 C285.114542,51.9685932 283.916508,51.8012161 282.718474,51.8012161 L275.930147,51.8012161 L275.930147,73.5930763 L282.718474,73.5930763 C285.64638,73.5930763 288.059243,72.6777076 289.956264,70.8437669 C291.852485,69.011428 292.800995,66.2629195 292.800995,62.5974407 Z M293.599151,112.578331 L282.618504,82.3895847 L275.930147,82.3895847 L275.930147,112.578331 L264.350482,112.578331 L264.350482,41.8050381 L284.514725,41.8050381 C287.443431,41.8050381 290.138608,42.1886441 292.601056,42.9542542 C295.062705,43.7214661 297.175659,44.9379534 298.939921,46.6021144 C300.703382,48.2694788 302.08456,50.3685 303.083455,52.9007797 C304.081551,55.4338602 304.580598,58.4650678 304.580598,61.9968051 C304.580598,64.7308983 304.231105,67.1446525 303.532118,69.2444746 C302.833132,71.3434958 301.951001,73.1277839 300.886526,74.5925339 C299.822051,76.0596864 298.640812,77.2417373 297.342808,78.141089 C296.044805,79.0404407 294.762796,79.6578941 293.499982,79.9902458 L306.177711,112.578331 L293.599151,112.578331 Z" id="Fill-13" fill="#124734"></path>
            <polyline id="Fill-14" fill="#124734" points="315.559646 112.578331 315.559646 41.8050381 347.205183 41.8050381 347.205183 52.4010508 327.04014 52.4010508 327.04014 71.1937373 345.70804 71.1937373 345.70804 80.9897034 327.04014 80.9897034 327.04014 101.883013 348.203278 101.883013 348.203278 112.578331 315.559646 112.578331"></polyline>
            <polyline id="Fill-15" fill="#124734" points="359.083156 112.578331 359.083156 41.8050381 390.728694 41.8050381 390.728694 52.4010508 370.563651 52.4010508 370.563651 71.1937373 389.231551 71.1937373 389.231551 80.9897034 370.563651 80.9897034 370.563651 101.883013 391.726789 101.883013 391.726789 112.578331 359.083156 112.578331"></polyline>
            <polyline id="Fill-16" fill="#124734" points="435.650177 112.578331 435.650177 81.1899153 414.487039 81.1899153 414.487039 112.578331 402.606667 112.578331 402.606667 41.8050381 414.487039 41.8050381 414.487039 70.4937966 435.650177 70.4937966 435.650177 41.8050381 447.52895 41.8050381 447.52895 112.578331 435.650177 112.578331"></polyline>
            <path d="M497.34174,77.091178 C497.34174,73.4929703 497.058626,70.1109915 496.493199,66.9452415 C495.927772,63.7810932 495.096825,61.047 493.997961,58.7477669 C492.899896,56.4493347 491.534713,54.6338136 489.904011,53.3004025 C488.273309,51.9685932 486.393883,51.3014873 484.264933,51.3014873 C482.068803,51.3014873 480.154188,51.9685932 478.525085,53.3004025 C476.893584,54.6338136 475.53,56.4493347 474.431935,58.7477669 C473.333871,61.047 472.51812,63.7810932 471.986282,66.9452415 C471.452045,70.1109915 471.187326,73.4929703 471.187326,77.091178 C471.187326,80.6901864 471.452045,84.0729661 471.986282,87.2379153 C472.51812,90.4036653 473.333871,93.1529746 474.431935,95.4842415 C475.53,97.817911 476.893584,99.6510508 478.525085,100.98286 C480.154188,102.317072 482.068803,102.981775 484.264933,102.981775 C486.461062,102.981775 488.372479,102.317072 490.00478,100.98286 C491.634683,99.6510508 492.999866,97.817911 494.09793,95.4842415 C495.195995,93.1529746 496.010147,90.4036653 496.543584,87.2379153 C497.074621,84.0729661 497.34174,80.6901864 497.34174,77.091178 Z M509.72116,77.091178 C509.72116,82.6899025 509.137338,87.7720805 507.973694,92.3361102 C506.808449,96.9017415 505.128962,100.817886 502.932033,104.081339 C500.735904,107.347996 498.056722,109.879475 494.896087,111.678979 C491.733852,113.477682 488.190934,114.377835 484.264933,114.377835 C480.270952,114.377835 476.71044,113.477682 473.583394,111.678979 C470.45475,109.879475 467.793162,107.347996 465.597033,104.081339 C463.400904,100.817886 461.719017,96.9017415 460.555372,92.3361102 C459.390928,87.7720805 458.809505,82.6899025 458.809505,77.091178 C458.809505,71.4932542 459.373333,66.4294958 460.505788,61.8966992 C461.636642,57.3663051 463.300934,53.4677797 465.497063,50.2011229 C467.693193,46.9368686 470.371575,44.4206059 473.53381,42.6539364 C476.693645,40.8896695 480.270952,40.0047331 484.264933,40.0047331 C488.190934,40.0047331 491.733852,40.8896695 494.896087,42.6539364 C498.056722,44.4206059 500.735904,46.9368686 502.932033,50.2011229 C505.128962,53.4677797 506.808449,57.3663051 507.973694,61.8966992 C509.137338,66.4294958 509.72116,71.4932542 509.72116,77.091178 Z" id="Fill-17" fill="#124734"></path>
            <path d="M563.027283,97.9844873 C562.228327,101.250343 560.931123,104.098958 559.134072,106.530331 C557.337821,108.964106 555.023327,110.878932 552.19619,112.278013 C549.366654,113.677894 545.922106,114.377835 541.864145,114.377835 C537.803785,114.377835 534.376832,113.677894 531.581685,112.278013 C528.787338,110.878932 526.506435,108.964106 524.743773,106.530331 C522.979512,104.098958 521.714298,101.250343 520.950531,97.9844873 C520.184365,94.7194322 519.802082,91.2205297 519.802082,87.4877797 L519.802082,41.8050381 L531.781624,41.8050381 L531.781624,86.3882161 C531.781624,88.5873432 531.931178,90.7039831 532.230287,92.7357331 C532.530195,94.7690847 533.062033,96.5517712 533.827399,98.0845932 C534.591966,99.6182161 535.640446,100.832301 536.972039,101.732453 C538.302833,102.631805 539.999915,103.082682 542.063284,103.082682 C544.125855,103.082682 545.822137,102.631805 547.15453,101.732453 C548.485324,100.832301 549.533803,99.6182161 550.29917,98.0845932 C551.063736,96.5517712 551.597173,94.7690847 551.896282,92.7357331 C552.19619,90.7039831 552.346545,88.5873432 552.346545,86.3882161 L552.346545,41.8050381 L564.225317,41.8050381 L564.225317,87.4877797 C564.225317,91.2205297 563.82544,94.7194322 563.027283,97.9844873" id="Fill-18" fill="#124734"></path>
            <path d="M605.25279,55.4995297 C602.657582,52.3682161 599.396178,50.8017585 595.469377,50.8017585 C594.336923,50.8017585 593.238858,50.9851525 592.175183,51.3511398 C591.109908,51.717928 590.144603,52.3009449 589.280067,53.1001907 C588.414731,53.9002373 587.733339,54.9341314 587.234292,56.1994703 C586.735244,57.466411 586.48572,58.9655975 586.48572,60.6970297 C586.48572,63.6962034 587.383846,66.0122542 589.180897,67.6451822 C590.977149,69.278911 593.338828,70.8285508 596.268333,72.2933008 C597.998205,73.1606186 599.762466,74.1600763 601.559518,75.2924746 C603.355769,76.4264746 604.986471,77.7911186 606.450824,79.390411 C607.913578,80.9897034 609.111612,82.8893136 610.044927,85.0884407 C610.975842,87.2875678 611.4421,89.8871186 611.4421,92.8862924 C611.4421,96.3507585 610.893468,99.4180042 609.795403,102.082424 C608.697338,104.748445 607.232186,106.997225 605.402344,108.830364 C603.570904,110.664305 601.425159,112.045767 598.96431,112.977953 C596.501062,113.910941 593.905055,114.377835 591.177088,114.377835 C587.249487,114.377835 583.622595,113.610623 580.29641,112.078602 C576.967827,110.546581 574.306239,108.614136 572.309249,106.281267 L578.799267,97.4839576 C580.3292,99.3507331 582.175037,100.817886 584.339176,101.883013 C586.500916,102.948941 588.71384,103.482305 590.977149,103.482305 C593.505977,103.482305 595.602137,102.616589 597.267228,100.882754 C598.929921,99.151322 599.762466,96.7183475 599.762466,93.5854322 C599.762466,90.5213898 598.764371,88.0876144 596.767381,86.288911 C594.770391,84.4886059 592.240763,82.8236441 589.180897,81.2900212 C587.249487,80.3578347 585.43804,79.3247415 583.739359,78.1907415 C582.043077,77.0583432 580.545134,75.7097161 579.24793,74.1432585 C577.949927,72.5776017 576.917442,70.743661 576.153675,68.6446398 C575.387509,66.5456186 575.005226,64.0309576 575.005226,61.0974534 C575.005226,57.4335763 575.586648,54.2846441 576.751893,51.6514576 C577.915537,49.019072 579.44707,46.8367627 581.34409,45.102928 C583.241111,43.3714958 585.387656,42.089339 587.782924,41.2548559 C590.178193,40.4219746 592.607051,40.0047331 595.070299,40.0047331 C598.664402,40.0047331 601.873822,40.5893517 604.703358,41.7545847 C607.531294,42.9214195 609.909768,44.6376356 611.841178,46.9024322 L605.25279,55.4995297" id="Fill-19" fill="#124734"></path>
            <polyline id="Fill-20" fill="#124734" points="622.321978 112.578331 622.321978 41.8050381 653.968315 41.8050381 653.968315 52.4010508 633.802473 52.4010508 633.802473 71.1937373 652.472772 71.1937373 652.472772 80.9897034 633.802473 80.9897034 633.802473 101.883013 654.96801 101.883013 654.96801 112.578331 622.321978 112.578331"></polyline>
            <path d="M228.618193,134.358979 C228.618193,133.759945 228.534219,133.26422 228.36467,132.869403 C228.197521,132.476987 227.977589,132.16786 227.706471,131.942822 C227.434554,131.719386 227.131447,131.560017 226.79475,131.466318 C226.458053,131.372619 226.121355,131.325369 225.784658,131.325369 L223.87804,131.325369 L223.87804,137.447847 L225.784658,137.447847 C226.607607,137.447847 227.2858,137.191576 227.818437,136.676631 C228.351074,136.160886 228.618193,135.388869 228.618193,134.358979 Z M228.842125,148.40264 L225.757466,139.920064 L223.87804,139.920064 L223.87804,148.40264 L220.623834,148.40264 L220.623834,128.516797 L226.290104,128.516797 C227.113053,128.516797 227.869621,128.624911 228.56141,128.840339 C229.253199,129.054165 229.847418,129.396127 230.343266,129.865424 C230.838315,130.333919 231.226996,130.923343 231.506911,131.634496 C231.787625,132.346449 231.928382,133.19775 231.928382,134.191602 C231.928382,134.959614 231.830012,135.636331 231.634072,136.226555 C231.437332,136.815979 231.188608,137.31811 230.889499,137.728945 C230.59119,138.142182 230.258492,138.472932 229.894603,138.727602 C229.529915,138.979869 229.170024,139.152051 228.814933,139.24575 L232.377045,148.40264 L228.842125,148.40264 Z" id="Fill-21" fill="#797A76"></path>
            <polyline id="Fill-22" fill="#797A76" points="236.415012 148.40264 236.415012 128.516797 245.306697 128.516797 245.306697 131.493547 239.641227 131.493547 239.641227 136.775136 244.886026 136.775136 244.886026 139.527648 239.641227 139.527648 239.641227 145.397059 245.587411 145.397059 245.587411 148.40264 236.415012 148.40264"></polyline>
            <path d="M255.151691,131.689754 L255.039725,131.689754 L252.880385,141.548987 L257.256648,141.548987 L255.151691,131.689754 Z M258.657821,148.40264 L257.67652,144.190182 L252.459713,144.190182 L251.449621,148.40264 L248.083449,148.40264 L253.021142,128.516797 L257.312631,128.516797 L262.16395,148.40264 L258.657821,148.40264 Z" id="Fill-23" fill="#797A76"></path>
            <polyline id="Fill-24" fill="#797A76" points="265.640488 148.40264 265.640488 128.516797 269.034652 128.516797 269.034652 145.284941 274.504182 145.284941 274.504182 148.40264 265.640488 148.40264"></polyline>
            <polyline id="Fill-25" fill="#797A76" points="284.293193 148.40264 284.293193 128.516797 293.184878 128.516797 293.184878 131.493547 287.519408 131.493547 287.519408 136.775136 292.763407 136.775136 292.763407 139.527648 287.519408 139.527648 287.519408 145.397059 293.465592 145.397059 293.465592 148.40264 284.293193 148.40264"></polyline>
            <path d="M305.724249,132.364068 C304.995672,131.484737 304.079151,131.045072 302.974689,131.045072 C302.657186,131.045072 302.34848,131.095525 302.049371,131.198835 C301.750263,131.301343 301.479145,131.466318 301.23602,131.689754 C300.992894,131.915593 300.802552,132.2055 300.661795,132.561076 C300.521838,132.918254 300.450659,133.338699 300.450659,133.824814 C300.450659,134.667305 300.702582,135.319195 301.208028,135.77728 C301.712674,136.236165 302.377271,136.671826 303.20022,137.083462 C303.686471,137.32772 304.18152,137.608017 304.686166,137.925953 C305.191612,138.244691 305.649072,138.629097 306.060946,139.077572 C306.472021,139.527648 306.808718,140.061013 307.070238,140.679267 C307.331758,141.29672 307.462918,142.027093 307.462918,142.869585 C307.462918,143.843415 307.308565,144.703525 307.000659,145.453919 C306.691154,146.202712 306.280079,146.834581 305.765836,147.348725 C305.252393,147.86447 304.648578,148.252881 303.956789,148.514758 C303.265,148.777436 302.535623,148.907975 301.768657,148.907975 C300.664994,148.907975 299.646905,148.693347 298.71199,148.262492 C297.776276,147.831636 297.028504,147.288661 296.468675,146.633568 L298.291319,144.161352 C298.721587,144.685907 299.239829,145.097542 299.847643,145.397059 C300.455458,145.697377 301.076868,145.847136 301.712674,145.847136 C302.424457,145.847136 303.013077,145.604479 303.480934,145.116763 C303.947991,144.629847 304.18152,143.946725 304.18152,143.066593 C304.18152,142.204881 303.900806,141.521758 303.340977,141.016424 C302.778748,140.509487 302.067766,140.042593 301.208028,139.611737 C300.664994,139.349059 300.156349,139.059953 299.678895,138.740415 C299.20304,138.422479 298.782369,138.043678 298.41768,137.603212 C298.052991,137.163547 297.76268,136.648602 297.548346,136.059178 C297.332411,135.468153 297.225244,134.761805 297.225244,133.936932 C297.225244,132.907843 297.388394,132.022907 297.716294,131.283725 C298.043394,130.544542 298.473663,129.930292 299.0071,129.443377 C299.539737,128.956462 300.141954,128.596081 300.816148,128.362233 C301.489542,128.127585 302.171734,128.011462 302.863523,128.011462 C303.873614,128.011462 304.774939,128.174835 305.569896,128.503182 C306.364853,128.830729 307.03265,129.31364 307.575684,129.950314 L305.724249,132.364068" id="Fill-26" fill="#797A76"></path>
            <polyline id="Fill-27" fill="#797A76" points="316.717692 131.382229 316.717692 148.40264 313.407503 148.40264 313.407503 131.382229 309.678242 131.382229 309.678242 128.516797 320.448553 128.516797 320.448553 131.382229 316.717692 131.382229"></polyline>
            <path d="M328.414121,131.689754 L328.302155,131.689754 L326.142814,141.548987 L330.518278,141.548987 L328.414121,131.689754 Z M331.92025,148.40264 L330.93895,144.190182 L325.721343,144.190182 L324.712051,148.40264 L321.345879,148.40264 L326.283571,128.516797 L330.575061,128.516797 L335.42638,148.40264 L331.92025,148.40264 Z" id="Fill-28" fill="#797A76"></path>
            <polyline id="Fill-29" fill="#797A76" points="343.363956 131.382229 343.363956 148.40264 340.053767 148.40264 340.053767 131.382229 336.324505 131.382229 336.324505 128.516797 347.094817 128.516797 347.094817 131.382229 343.363956 131.382229"></polyline>
            <polyline id="Fill-30" fill="#797A76" points="350.460989 148.40264 350.460989 128.516797 359.352674 128.516797 359.352674 131.493547 353.687204 131.493547 353.687204 136.775136 358.932002 136.775136 358.932002 139.527648 353.687204 139.527648 353.687204 145.397059 359.634188 145.397059 359.634188 148.40264 350.460989 148.40264"></polyline>
            <polygon id="Fill-31" fill="#797A76" points="370.965128 148.40264 374.3321 148.40264 374.3321 128.516797 370.965128 128.516797"></polygon>
            <polyline id="Fill-32" fill="#797A76" points="388.466184 148.40264 382.828706 134.358979 382.744731 134.358979 382.800714 148.40264 379.77044 148.40264 379.77044 128.516797 383.614066 128.516797 389.196361 142.644547 389.280336 142.644547 389.251545 128.516797 392.169054 128.516797 392.169054 148.40264 388.466184 148.40264"></polyline>
            <polyline id="Fill-33" fill="#797A76" points="404.7908 148.40264 400.527302 148.40264 395.675183 128.516797 399.433236 128.516797 402.743425 144.469678 402.827399 144.469678 406.137589 128.516797 409.726893 128.516797 404.7908 148.40264"></polyline>
            <polyline id="Fill-34" fill="#797A76" points="413.233022 148.40264 413.233022 128.516797 422.124707 128.516797 422.124707 131.493547 416.459237 131.493547 416.459237 136.775136 421.704035 136.775136 421.704035 139.527648 416.459237 139.527648 416.459237 145.397059 422.406221 145.397059 422.406221 148.40264 413.233022 148.40264"></polyline>
            <path d="M434.663278,132.364068 C433.934701,131.484737 433.018181,131.045072 431.914518,131.045072 C431.595415,131.045072 431.287509,131.095525 430.9884,131.198835 C430.689292,131.301343 430.418175,131.466318 430.175049,131.689754 C429.931923,131.915593 429.741581,132.2055 429.600824,132.561076 C429.460067,132.918254 429.389689,133.338699 429.389689,133.824814 C429.389689,134.667305 429.641612,135.319195 430.147857,135.77728 C430.651703,136.236165 431.3163,136.671826 432.139249,137.083462 C432.624701,137.32772 433.120549,137.608017 433.625195,137.925953 C434.130641,138.244691 434.588101,138.629097 434.999976,139.077572 C435.41105,139.527648 435.748547,140.061013 436.009267,140.679267 C436.270788,141.29672 436.401947,142.027093 436.401947,142.869585 C436.401947,143.843415 436.248394,144.703525 435.939689,145.453919 C435.630183,146.202712 435.219109,146.834581 434.704866,147.348725 C434.190623,147.86447 433.586807,148.252881 432.895818,148.514758 C432.204029,148.777436 431.474652,148.907975 430.707686,148.907975 C429.604023,148.907975 428.585934,148.693347 427.651819,148.262492 C426.716105,147.831636 425.967534,147.288661 425.407705,146.633568 L427.230348,144.161352 C427.660617,144.685907 428.178858,145.097542 428.786673,145.397059 C429.393687,145.697377 430.016697,145.847136 430.651703,145.847136 C431.362686,145.847136 431.951306,145.604479 432.419164,145.116763 C432.886221,144.629847 433.120549,143.946725 433.120549,143.066593 C433.120549,142.204881 432.839835,141.521758 432.280006,141.016424 C431.718578,140.509487 431.006795,140.042593 430.147857,139.611737 C429.604023,139.349059 429.094579,139.059953 428.618724,138.740415 C428.14207,138.422479 427.720598,138.043678 427.356709,137.603212 C426.991221,137.163547 426.701709,136.648602 426.486575,136.059178 C426.271441,135.468153 426.164274,134.761805 426.164274,133.936932 C426.164274,132.907843 426.327424,132.022907 426.654524,131.283725 C426.983223,130.544542 427.412692,129.930292 427.946129,129.443377 C428.478767,128.956462 429.081783,128.596081 429.754377,128.362233 C430.427772,128.127585 431.110763,128.011462 431.802552,128.011462 C432.812643,128.011462 433.713968,128.174835 434.508926,128.503182 C435.303883,128.830729 435.971679,129.31364 436.515513,129.950314 L434.663278,132.364068" id="Fill-35" fill="#797A76"></path>
            <polyline id="Fill-36" fill="#797A76" points="445.656722 131.382229 445.656722 148.40264 442.347332 148.40264 442.347332 131.382229 438.616471 131.382229 438.616471 128.516797 449.387582 128.516797 449.387582 131.382229 445.656722 131.382229"></polyline>
            <polyline id="Fill-37" fill="#797A76" points="466.385592 148.40264 466.442375 133.124072 466.357601 133.124072 462.374817 148.40264 459.738822 148.40264 455.840012 133.124072 455.755238 133.124072 455.811221 148.40264 452.752955 148.40264 452.752955 128.516797 457.269976 128.516797 461.084811 143.066593 461.196777 143.066593 464.926838 128.516797 469.66779 128.516797 469.66779 148.40264 466.385592 148.40264"></polyline>
            <polyline id="Fill-38" fill="#797A76" points="475.078138 148.40264 475.078138 128.516797 483.970623 128.516797 483.970623 131.493547 478.305153 131.493547 478.305153 136.775136 483.549151 136.775136 483.549151 139.527648 478.305153 139.527648 478.305153 145.397059 484.251337 145.397059 484.251337 148.40264 475.078138 148.40264"></polyline>
            <polyline id="Fill-39" fill="#797A76" points="497.40732 148.40264 491.769042 134.358979 491.685867 134.358979 491.74185 148.40264 488.711575 148.40264 488.711575 128.516797 492.554402 128.516797 498.136697 142.644547 498.221471 142.644547 498.19268 128.516797 501.109389 128.516797 501.109389 148.40264 497.40732 148.40264"></polyline>
            <polyline id="Fill-40" fill="#797A76" points="511.516612 131.382229 511.516612 148.40264 508.206422 148.40264 508.206422 131.382229 504.476361 131.382229 504.476361 128.516797 515.247473 128.516797 515.247473 131.382229 511.516612 131.382229"></polyline>
            <polyline id="Fill-41" fill="#797A76" points="529.102442 131.382229 529.102442 148.40264 525.793053 148.40264 525.793053 131.382229 522.062991 131.382229 522.062991 128.516797 532.834103 128.516797 532.834103 131.382229 529.102442 131.382229"></polyline>
            <path d="M544.193034,134.358979 C544.193034,133.759945 544.10906,133.26422 543.940311,132.869403 C543.772363,132.476987 543.55163,132.16786 543.282112,131.942822 C543.010195,131.719386 542.706288,131.560017 542.369591,131.466318 C542.032894,131.372619 541.696197,131.325369 541.359499,131.325369 L539.452082,131.325369 L539.452082,137.447847 L541.359499,137.447847 C542.182448,137.447847 542.859841,137.191576 543.393278,136.676631 C543.925916,136.160886 544.193034,135.388869 544.193034,134.358979 Z M544.416966,148.40264 L541.332308,139.920064 L539.452082,139.920064 L539.452082,148.40264 L536.198675,148.40264 L536.198675,128.516797 L541.864945,128.516797 C542.687894,128.516797 543.445263,128.624911 544.136252,128.840339 C544.82804,129.054165 545.422259,129.396127 545.917308,129.865424 C546.413156,130.333919 546.801038,130.923343 547.082552,131.634496 C547.362466,132.346449 547.503223,133.19775 547.503223,134.191602 C547.503223,134.959614 547.404853,135.636331 547.208913,136.226555 C547.012973,136.815979 546.763449,137.31811 546.464341,137.728945 C546.165232,138.142182 545.833333,138.472932 545.469444,138.727602 C545.103956,138.979869 544.744866,139.152051 544.389774,139.24575 L547.951087,148.40264 L544.416966,148.40264 Z" id="Fill-42" fill="#797A76"></path>
            <path d="M563.828639,144.302301 C563.603907,145.220072 563.238419,146.019318 562.733773,146.703242 C562.229927,147.386364 561.578926,147.924534 560.784768,148.31775 C559.989011,148.710966 559.022106,148.907975 557.880855,148.907975 C556.741203,148.907975 555.778297,148.710966 554.992137,148.31775 C554.207576,147.924534 553.566972,147.386364 553.071923,146.703242 C552.575275,146.019318 552.220183,145.220072 552.005849,144.302301 C551.789915,143.38453 551.681947,142.401089 551.681947,141.351979 L551.681947,128.516797 L555.04812,128.516797 L555.04812,141.043653 C555.04812,141.661907 555.090507,142.256136 555.175281,142.827941 C555.259255,143.399746 555.409609,143.900275 555.623144,144.32953 C555.838278,144.761987 556.132589,145.102347 556.506874,145.355415 C556.88116,145.607682 557.358614,145.734216 557.938437,145.734216 C558.516661,145.734216 558.994115,145.607682 559.3684,145.355415 C559.742686,145.102347 560.036996,144.761987 560.251331,144.32953 C560.466465,143.900275 560.616819,143.399746 560.699994,142.827941 C560.784768,142.256136 560.827155,141.661907 560.827155,141.043653 L560.827155,128.516797 L564.164536,128.516797 L564.164536,141.351979 C564.164536,142.401089 564.05177,143.38453 563.828639,144.302301" id="Fill-43" fill="#797A76"></path>
            <path d="M577.094988,132.364068 C576.36641,131.484737 575.44909,131.045072 574.345427,131.045072 C574.027125,131.045072 573.719219,131.095525 573.42011,131.198835 C573.121001,131.301343 572.849084,131.466318 572.606758,131.689754 C572.363632,131.915593 572.173291,132.2055 572.032534,132.561076 C571.891777,132.918254 571.821398,133.338699 571.821398,133.824814 C571.821398,134.667305 572.074121,135.319195 572.578767,135.77728 C573.083413,136.236165 573.74721,136.671826 574.570958,137.083462 C575.05641,137.32772 575.552259,137.608017 576.056905,137.925953 C576.56235,138.244691 577.019811,138.629097 577.431685,139.077572 C577.842759,139.527648 578.179457,140.061013 578.440177,140.679267 C578.702497,141.29672 578.833657,142.027093 578.833657,142.869585 C578.833657,143.843415 578.679304,144.703525 578.371398,145.453919 C578.061893,146.202712 577.650818,146.834581 577.136575,147.348725 C576.622332,147.86447 576.018516,148.252881 575.327527,148.514758 C574.635739,148.777436 573.906361,148.907975 573.139396,148.907975 C572.035733,148.907975 571.017643,148.693347 570.082729,148.262492 C569.147015,147.831636 568.400043,147.288661 567.839414,146.633568 L569.662057,144.161352 C570.092326,144.685907 570.609768,145.097542 571.218382,145.397059 C571.825397,145.697377 572.447607,145.847136 573.083413,145.847136 C573.794396,145.847136 574.383016,145.604479 574.850873,145.116763 C575.31793,144.629847 575.552259,143.946725 575.552259,143.066593 C575.552259,142.204881 575.271545,141.521758 574.710916,141.016424 C574.149487,140.509487 573.438504,140.042593 572.578767,139.611737 C572.035733,139.349059 571.527088,139.059953 571.049634,138.740415 C570.573779,138.422479 570.152308,138.043678 569.788419,137.603212 C569.42293,137.163547 569.133419,136.648602 568.918284,136.059178 C568.70315,135.468153 568.595983,134.761805 568.595983,133.936932 C568.595983,132.907843 568.759133,132.022907 569.086233,131.283725 C569.414133,130.544542 569.844402,129.930292 570.377039,129.443377 C570.909676,128.956462 571.512692,128.596081 572.186087,128.362233 C572.859481,128.127585 573.541673,128.011462 574.234261,128.011462 C575.243553,128.011462 576.145678,128.174835 576.940635,128.503182 C577.735592,128.830729 578.403388,129.31364 578.946422,129.950314 L577.094988,132.364068" id="Fill-44" fill="#797A76"></path>
            <polyline id="Fill-45" fill="#797A76" points="588.088431 131.382229 588.088431 148.40264 584.778242 148.40264 584.778242 131.382229 581.048181 131.382229 581.048181 128.516797 591.819292 128.516797 591.819292 131.382229 588.088431 131.382229"></polyline>
        </g>
    </g>
</svg>